;TYPE=PLATED
;Layer: PTH_Through
;EasyEDA Pro v3.2.148, 2026-06-29 22:01:57
;Gerber Generator version 0.3
M48
METRIC,LZ,0000.00000
;Hole size 1 = 0.30500 METRIC
T01C0.30500
;Hole size 2 = 0.70002 METRIC
T02C0.70002
;Hole size 3 = 0.76200 METRIC
T03C0.76200
;Hole size 4 = 0.80000 METRIC
T04C0.80000
;Hole size 5 = 0.90002 METRIC
T05C0.90002
;Hole size 6 = 0.91440 METRIC
T06C0.91440
;Hole size 7 = 1.00000 METRIC
T07C1.00000
;Hole size 8 = 1.10002 METRIC
T08C1.10002
;Hole size 9 = 1.20000 METRIC
T09C1.20000
%
G05
G90
T01
X110.36138Y24.81385
X106.17039Y25.95685
X147.5723Y21.00376
T02
X69.172Y19.812
X79.672Y19.812
T03
X45.84713Y27.55887
X45.847Y30.059
X45.847Y25.05901
T04
X91.329Y25.146
X93.329Y25.146
X100.67801Y38.10667
X108.61799Y38.10667
X100.67801Y35.56667
X108.61799Y35.56667
X100.67801Y33.02669
X108.61799Y33.02669
X100.67801Y30.48669
X108.61799Y30.48669
X100.67801Y27.94669
X108.61799Y27.94669
X100.67801Y25.40669
X108.61799Y25.40669
X100.67801Y22.86669
X108.61799Y22.86669
X100.67801Y20.32672
X108.61799Y20.32672
T05
X66.294Y53.086
X66.294Y50.546
X66.294Y48.006
X66.294Y45.466
X73.914Y53.086
X73.914Y50.546
X73.914Y48.006
X73.914Y45.466
T06
X72.21995Y28.829
X82.71995Y28.829
T07
X144.01632Y22.01979
X144.01632Y24.55979
X143.88932Y29.38579
X143.88932Y31.92579
X145.79432Y36.37079
X145.79432Y38.91079
X154.17632Y40.43479
X154.17632Y42.97479
X161.92332Y37.76779
X161.92332Y40.30779
X167.51132Y32.81479
X167.51132Y35.35479
X168.40032Y24.81379
X168.40032Y27.35379
X164.46332Y17.06679
X164.46332Y19.60679
X156.71632Y13.25679
X156.71632Y15.79679
X148.08032Y15.03479
X148.08032Y17.57479
T08
X120.269Y44.831
T09
X47.752Y53.975
X52.832Y53.975
X90.043Y50.165
X90.043Y52.705
M30