G04 Layer: TopSilkscreenLayer*
G04 EasyEDA Pro v3.2.148, 2026-06-29 22:01:56*
G04 Gerber Generator version 0.3*
G04 Scale: 100 percent, Rotated: No, Reflected: No*
G04 Dimensions in millimeters*
G04 Leading zeros omitted, absolute positions, 4 integers and 5 decimals*
G04 Generated by one-click*
G04 Object Configs: Pad,Via,Track,Text,Image,Dimension,BoardOutline,BoardCutout,CopperFilled,SolidRegion,FPCStiffener,Line,PlaneZone,ComponentProperty,ComponentSilkscreen,TearDrop*
G04 Layer Configs: 1,2,3,4,5,6,7,8,9,10,11,13,14,56*
G04 Copper Areas: 0*
%FSLAX45Y45*%
%MOMM*%
%ADD10C,0.1524*%
%ADD11C,0.254*%
%ADD12C,0.2032*%
%ADD13C,0.203*%
%ADD14C,0.2*%
%ADD15C,0.25*%
%ADD16C,0.6*%
%ADD17C,0.3059*%
%ADD18C,0.3*%
G75*


G04 Text Start*
G54D10*
G01X9021990Y2871052D02*
G01X9018942Y2877402D01*
G01X9012592Y2883498D01*
G01X9006496Y2886546D01*
G01X8994050Y2886546D01*
G01X8987954Y2883498D01*
G01X8981604Y2877402D01*
G01X8978556Y2871052D01*
G01X8975508Y2861908D01*
G01X8975508Y2846414D01*
G01X8978556Y2837016D01*
G01X8981604Y2830920D01*
G01X8987954Y2824570D01*
G01X8994050Y2821522D01*
G01X9006496Y2821522D01*
G01X9012592Y2824570D01*
G01X9018942Y2830920D01*
G01X9021990Y2837016D01*
G01X9052216Y2874100D02*
G01X9058312Y2877402D01*
G01X9067456Y2886546D01*
G01X9067456Y2821522D01*
G01X4664349Y5704180D02*
G01X4661301Y5710530D01*
G01X4654951Y5716626D01*
G01X4648855Y5719674D01*
G01X4636409Y5719674D01*
G01X4630313Y5716626D01*
G01X4623963Y5710530D01*
G01X4620915Y5704180D01*
G01X4617867Y5695036D01*
G01X4617867Y5679542D01*
G01X4620915Y5670144D01*
G01X4623963Y5664048D01*
G01X4630313Y5657698D01*
G01X4636409Y5654650D01*
G01X4648855Y5654650D01*
G01X4654951Y5657698D01*
G01X4661301Y5664048D01*
G01X4664349Y5670144D01*
G01X4697623Y5704180D02*
G01X4697623Y5707228D01*
G01X4700671Y5713578D01*
G01X4703719Y5716626D01*
G01X4709815Y5719674D01*
G01X4722261Y5719674D01*
G01X4728611Y5716626D01*
G01X4731659Y5713578D01*
G01X4734707Y5707228D01*
G01X4734707Y5701132D01*
G01X4731659Y5695036D01*
G01X4725309Y5685638D01*
G01X4694575Y5654650D01*
G01X4737755Y5654650D01*
G01X8760206Y4886960D02*
G01X8825230Y4886960D01*
G01X8760206Y4930394D02*
G01X8825230Y4930394D01*
G01X8791194Y4886960D02*
G01X8791194Y4930394D01*
G01X8772652Y4960620D02*
G01X8769350Y4966716D01*
G01X8760206Y4975860D01*
G01X8825230Y4975860D01*
G01X13990836Y2073958D02*
G01X14055860Y2073958D01*
G01X14055860Y2073958D02*
G01X14055860Y2111042D01*
G01X13990836Y2141268D02*
G01X14055860Y2141268D01*
G01X13990836Y2141268D02*
G01X13990836Y2181400D01*
G01X14021824Y2141268D02*
G01X14021824Y2165906D01*
G01X14055860Y2141268D02*
G01X14055860Y2181400D01*
G01X13990836Y2211626D02*
G01X14055860Y2211626D01*
G01X13990836Y2211626D02*
G01X13990836Y2233216D01*
G01X13993884Y2242360D01*
G01X13999980Y2248710D01*
G01X14006330Y2251758D01*
G01X14015474Y2254806D01*
G01X14030968Y2254806D01*
G01X14040366Y2251758D01*
G01X14046462Y2248710D01*
G01X14052812Y2242360D01*
G01X14055860Y2233216D01*
G01X14055860Y2211626D01*
G01X14003282Y2285032D02*
G01X13999980Y2291128D01*
G01X13990836Y2300272D01*
G01X14055860Y2300272D01*
G01X13978136Y2810558D02*
G01X14043160Y2810558D01*
G01X14043160Y2810558D02*
G01X14043160Y2847642D01*
G01X13978136Y2877868D02*
G01X14043160Y2877868D01*
G01X13978136Y2877868D02*
G01X13978136Y2918000D01*
G01X14009124Y2877868D02*
G01X14009124Y2902506D01*
G01X14043160Y2877868D02*
G01X14043160Y2918000D01*
G01X13978136Y2948226D02*
G01X14043160Y2948226D01*
G01X13978136Y2948226D02*
G01X13978136Y2969816D01*
G01X13981184Y2978960D01*
G01X13987280Y2985310D01*
G01X13993630Y2988358D01*
G01X14002774Y2991406D01*
G01X14018268Y2991406D01*
G01X14027666Y2988358D01*
G01X14033762Y2985310D01*
G01X14040112Y2978960D01*
G01X14043160Y2969816D01*
G01X14043160Y2948226D01*
G01X13993630Y3024680D02*
G01X13990582Y3024680D01*
G01X13984232Y3027728D01*
G01X13981184Y3030776D01*
G01X13978136Y3036872D01*
G01X13978136Y3049318D01*
G01X13981184Y3055668D01*
G01X13984232Y3058716D01*
G01X13990582Y3061764D01*
G01X13996678Y3061764D01*
G01X14002774Y3058716D01*
G01X14012172Y3052366D01*
G01X14043160Y3021632D01*
G01X14043160Y3064812D01*
G01X14168636Y3509058D02*
G01X14233660Y3509058D01*
G01X14233660Y3509058D02*
G01X14233660Y3546142D01*
G01X14168636Y3576368D02*
G01X14233660Y3576368D01*
G01X14168636Y3576368D02*
G01X14168636Y3616500D01*
G01X14199624Y3576368D02*
G01X14199624Y3601006D01*
G01X14233660Y3576368D02*
G01X14233660Y3616500D01*
G01X14168636Y3646726D02*
G01X14233660Y3646726D01*
G01X14168636Y3646726D02*
G01X14168636Y3668316D01*
G01X14171684Y3677460D01*
G01X14177780Y3683810D01*
G01X14184130Y3686858D01*
G01X14193274Y3689906D01*
G01X14208768Y3689906D01*
G01X14218166Y3686858D01*
G01X14224262Y3683810D01*
G01X14230612Y3677460D01*
G01X14233660Y3668316D01*
G01X14233660Y3646726D01*
G01X14168636Y3726228D02*
G01X14168636Y3760264D01*
G01X14193274Y3741722D01*
G01X14193274Y3750866D01*
G01X14196322Y3757216D01*
G01X14199624Y3760264D01*
G01X14208768Y3763312D01*
G01X14215118Y3763312D01*
G01X14224262Y3760264D01*
G01X14230612Y3754168D01*
G01X14233660Y3744770D01*
G01X14233660Y3735372D01*
G01X14230612Y3726228D01*
G01X14227310Y3723180D01*
G01X14221214Y3720132D01*
G01X15006836Y3915458D02*
G01X15071860Y3915458D01*
G01X15071860Y3915458D02*
G01X15071860Y3952542D01*
G01X15006836Y3982768D02*
G01X15071860Y3982768D01*
G01X15006836Y3982768D02*
G01X15006836Y4022900D01*
G01X15037824Y3982768D02*
G01X15037824Y4007406D01*
G01X15071860Y3982768D02*
G01X15071860Y4022900D01*
G01X15006836Y4053126D02*
G01X15071860Y4053126D01*
G01X15006836Y4053126D02*
G01X15006836Y4074716D01*
G01X15009884Y4083860D01*
G01X15015980Y4090210D01*
G01X15022330Y4093258D01*
G01X15031474Y4096306D01*
G01X15046968Y4096306D01*
G01X15056366Y4093258D01*
G01X15062462Y4090210D01*
G01X15068812Y4083860D01*
G01X15071860Y4074716D01*
G01X15071860Y4053126D01*
G01X15006836Y4157266D02*
G01X15050016Y4126532D01*
G01X15050016Y4172760D01*
G01X15006836Y4157266D02*
G01X15071860Y4157266D01*
G01X15781536Y3648758D02*
G01X15846560Y3648758D01*
G01X15846560Y3648758D02*
G01X15846560Y3685842D01*
G01X15781536Y3716068D02*
G01X15846560Y3716068D01*
G01X15781536Y3716068D02*
G01X15781536Y3756200D01*
G01X15812524Y3716068D02*
G01X15812524Y3740706D01*
G01X15846560Y3716068D02*
G01X15846560Y3756200D01*
G01X15781536Y3786426D02*
G01X15846560Y3786426D01*
G01X15781536Y3786426D02*
G01X15781536Y3808016D01*
G01X15784584Y3817160D01*
G01X15790680Y3823510D01*
G01X15797030Y3826558D01*
G01X15806174Y3829606D01*
G01X15821668Y3829606D01*
G01X15831066Y3826558D01*
G01X15837162Y3823510D01*
G01X15843512Y3817160D01*
G01X15846560Y3808016D01*
G01X15846560Y3786426D01*
G01X15781536Y3896916D02*
G01X15781536Y3865928D01*
G01X15809222Y3862880D01*
G01X15806174Y3865928D01*
G01X15803126Y3875072D01*
G01X15803126Y3884470D01*
G01X15806174Y3893868D01*
G01X15812524Y3899964D01*
G01X15821668Y3903012D01*
G01X15828018Y3903012D01*
G01X15837162Y3899964D01*
G01X15843512Y3893868D01*
G01X15846560Y3884470D01*
G01X15846560Y3875072D01*
G01X15843512Y3865928D01*
G01X15840210Y3862880D01*
G01X15834114Y3859832D01*
G01X16340336Y3153458D02*
G01X16405360Y3153458D01*
G01X16405360Y3153458D02*
G01X16405360Y3190542D01*
G01X16340336Y3220768D02*
G01X16405360Y3220768D01*
G01X16340336Y3220768D02*
G01X16340336Y3260900D01*
G01X16371324Y3220768D02*
G01X16371324Y3245406D01*
G01X16405360Y3220768D02*
G01X16405360Y3260900D01*
G01X16340336Y3291126D02*
G01X16405360Y3291126D01*
G01X16340336Y3291126D02*
G01X16340336Y3312716D01*
G01X16343384Y3321860D01*
G01X16349480Y3328210D01*
G01X16355830Y3331258D01*
G01X16364974Y3334306D01*
G01X16380468Y3334306D01*
G01X16389866Y3331258D01*
G01X16395962Y3328210D01*
G01X16402312Y3321860D01*
G01X16405360Y3312716D01*
G01X16405360Y3291126D01*
G01X16349480Y3401616D02*
G01X16343384Y3398568D01*
G01X16340336Y3389170D01*
G01X16340336Y3383074D01*
G01X16343384Y3373676D01*
G01X16352782Y3367580D01*
G01X16368022Y3364532D01*
G01X16383516Y3364532D01*
G01X16395962Y3367580D01*
G01X16402312Y3373676D01*
G01X16405360Y3383074D01*
G01X16405360Y3386122D01*
G01X16402312Y3395266D01*
G01X16395962Y3401616D01*
G01X16386818Y3404664D01*
G01X16383516Y3404664D01*
G01X16374372Y3401616D01*
G01X16368022Y3395266D01*
G01X16364974Y3386122D01*
G01X16364974Y3383074D01*
G01X16368022Y3373676D01*
G01X16374372Y3367580D01*
G01X16383516Y3364532D01*
G01X16429236Y2353358D02*
G01X16494260Y2353358D01*
G01X16494260Y2353358D02*
G01X16494260Y2390442D01*
G01X16429236Y2420668D02*
G01X16494260Y2420668D01*
G01X16429236Y2420668D02*
G01X16429236Y2460800D01*
G01X16460224Y2420668D02*
G01X16460224Y2445306D01*
G01X16494260Y2420668D02*
G01X16494260Y2460800D01*
G01X16429236Y2491026D02*
G01X16494260Y2491026D01*
G01X16429236Y2491026D02*
G01X16429236Y2512616D01*
G01X16432284Y2521760D01*
G01X16438380Y2528110D01*
G01X16444730Y2531158D01*
G01X16453874Y2534206D01*
G01X16469368Y2534206D01*
G01X16478766Y2531158D01*
G01X16484862Y2528110D01*
G01X16491212Y2521760D01*
G01X16494260Y2512616D01*
G01X16494260Y2491026D01*
G01X16429236Y2607612D02*
G01X16494260Y2576624D01*
G01X16429236Y2564432D02*
G01X16429236Y2607612D01*
G01X16035536Y1578658D02*
G01X16100560Y1578658D01*
G01X16100560Y1578658D02*
G01X16100560Y1615742D01*
G01X16035536Y1645968D02*
G01X16100560Y1645968D01*
G01X16035536Y1645968D02*
G01X16035536Y1686100D01*
G01X16066524Y1645968D02*
G01X16066524Y1670606D01*
G01X16100560Y1645968D02*
G01X16100560Y1686100D01*
G01X16035536Y1716326D02*
G01X16100560Y1716326D01*
G01X16035536Y1716326D02*
G01X16035536Y1737916D01*
G01X16038584Y1747060D01*
G01X16044680Y1753410D01*
G01X16051030Y1756458D01*
G01X16060174Y1759506D01*
G01X16075668Y1759506D01*
G01X16085066Y1756458D01*
G01X16091162Y1753410D01*
G01X16097512Y1747060D01*
G01X16100560Y1737916D01*
G01X16100560Y1716326D01*
G01X16035536Y1804972D02*
G01X16038584Y1795828D01*
G01X16044680Y1792780D01*
G01X16051030Y1792780D01*
G01X16057126Y1795828D01*
G01X16060174Y1801924D01*
G01X16063222Y1814370D01*
G01X16066524Y1823768D01*
G01X16072620Y1829864D01*
G01X16078716Y1832912D01*
G01X16088114Y1832912D01*
G01X16094210Y1829864D01*
G01X16097512Y1826816D01*
G01X16100560Y1817418D01*
G01X16100560Y1804972D01*
G01X16097512Y1795828D01*
G01X16094210Y1792780D01*
G01X16088114Y1789732D01*
G01X16078716Y1789732D01*
G01X16072620Y1792780D01*
G01X16066524Y1798876D01*
G01X16063222Y1808274D01*
G01X16060174Y1820466D01*
G01X16057126Y1826816D01*
G01X16051030Y1829864D01*
G01X16044680Y1829864D01*
G01X16038584Y1826816D01*
G01X16035536Y1817418D01*
G01X16035536Y1804972D01*
G01X15260836Y1197658D02*
G01X15325860Y1197658D01*
G01X15325860Y1197658D02*
G01X15325860Y1234742D01*
G01X15260836Y1264968D02*
G01X15325860Y1264968D01*
G01X15260836Y1264968D02*
G01X15260836Y1305100D01*
G01X15291824Y1264968D02*
G01X15291824Y1289606D01*
G01X15325860Y1264968D02*
G01X15325860Y1305100D01*
G01X15260836Y1335326D02*
G01X15325860Y1335326D01*
G01X15260836Y1335326D02*
G01X15260836Y1356916D01*
G01X15263884Y1366060D01*
G01X15269980Y1372410D01*
G01X15276330Y1375458D01*
G01X15285474Y1378506D01*
G01X15300968Y1378506D01*
G01X15310366Y1375458D01*
G01X15316462Y1372410D01*
G01X15322812Y1366060D01*
G01X15325860Y1356916D01*
G01X15325860Y1335326D01*
G01X15282426Y1448864D02*
G01X15291824Y1445816D01*
G01X15297920Y1439466D01*
G01X15300968Y1430322D01*
G01X15300968Y1427274D01*
G01X15297920Y1417876D01*
G01X15291824Y1411780D01*
G01X15282426Y1408732D01*
G01X15279378Y1408732D01*
G01X15269980Y1411780D01*
G01X15263884Y1417876D01*
G01X15260836Y1427274D01*
G01X15260836Y1430322D01*
G01X15263884Y1439466D01*
G01X15269980Y1445816D01*
G01X15282426Y1448864D01*
G01X15297920Y1448864D01*
G01X15313414Y1445816D01*
G01X15322812Y1439466D01*
G01X15325860Y1430322D01*
G01X15325860Y1423972D01*
G01X15322812Y1414828D01*
G01X15316462Y1411780D01*
G01X14397236Y1375458D02*
G01X14462260Y1375458D01*
G01X14462260Y1375458D02*
G01X14462260Y1412542D01*
G01X14397236Y1442768D02*
G01X14462260Y1442768D01*
G01X14397236Y1442768D02*
G01X14397236Y1482900D01*
G01X14428224Y1442768D02*
G01X14428224Y1467406D01*
G01X14462260Y1442768D02*
G01X14462260Y1482900D01*
G01X14397236Y1513126D02*
G01X14462260Y1513126D01*
G01X14397236Y1513126D02*
G01X14397236Y1534716D01*
G01X14400284Y1543860D01*
G01X14406380Y1550210D01*
G01X14412730Y1553258D01*
G01X14421874Y1556306D01*
G01X14437368Y1556306D01*
G01X14446766Y1553258D01*
G01X14452862Y1550210D01*
G01X14459212Y1543860D01*
G01X14462260Y1534716D01*
G01X14462260Y1513126D01*
G01X14409682Y1586532D02*
G01X14406380Y1592628D01*
G01X14397236Y1601772D01*
G01X14462260Y1601772D01*
G01X14397236Y1650540D02*
G01X14400284Y1641142D01*
G01X14409682Y1635046D01*
G01X14424922Y1631998D01*
G01X14434320Y1631998D01*
G01X14449814Y1635046D01*
G01X14459212Y1641142D01*
G01X14462260Y1650540D01*
G01X14462260Y1656636D01*
G01X14459212Y1666034D01*
G01X14449814Y1672130D01*
G01X14434320Y1675178D01*
G01X14424922Y1675178D01*
G01X14409682Y1672130D01*
G01X14400284Y1666034D01*
G01X14397236Y1656636D01*
G01X14397236Y1650540D01*
G01X11894820Y4729734D02*
G01X11894820Y4664710D01*
G01X11894820Y4729734D02*
G01X11922760Y4729734D01*
G01X11931904Y4726686D01*
G01X11934952Y4723638D01*
G01X11938254Y4717288D01*
G01X11938254Y4708144D01*
G01X11934952Y4702048D01*
G01X11931904Y4698746D01*
G01X11922760Y4695698D01*
G01X11894820Y4695698D01*
G01X11968480Y4717288D02*
G01X11974576Y4720590D01*
G01X11983720Y4729734D01*
G01X11983720Y4664710D01*
G01X6854828Y2215835D02*
G01X6854828Y2150811D01*
G01X6854828Y2215835D02*
G01X6882768Y2215835D01*
G01X6891912Y2212787D01*
G01X6894960Y2209739D01*
G01X6898262Y2203389D01*
G01X6898262Y2197293D01*
G01X6894960Y2191197D01*
G01X6891912Y2188149D01*
G01X6882768Y2184847D01*
G01X6854828Y2184847D01*
G01X6876418Y2184847D02*
G01X6898262Y2150811D01*
G01X6928488Y2203389D02*
G01X6934584Y2206691D01*
G01X6943728Y2215835D01*
G01X6943728Y2150811D01*
G01X7149615Y3116834D02*
G01X7149615Y3051810D01*
G01X7149615Y3116834D02*
G01X7177555Y3116834D01*
G01X7186699Y3113786D01*
G01X7189747Y3110738D01*
G01X7193049Y3104388D01*
G01X7193049Y3098292D01*
G01X7189747Y3092196D01*
G01X7186699Y3089148D01*
G01X7177555Y3085846D01*
G01X7149615Y3085846D01*
G01X7171205Y3085846D02*
G01X7193049Y3051810D01*
G01X7226323Y3101340D02*
G01X7226323Y3104388D01*
G01X7229371Y3110738D01*
G01X7232419Y3113786D01*
G01X7238515Y3116834D01*
G01X7250961Y3116834D01*
G01X7257311Y3113786D01*
G01X7260359Y3110738D01*
G01X7263407Y3104388D01*
G01X7263407Y3098292D01*
G01X7260359Y3092196D01*
G01X7254009Y3082798D01*
G01X7223275Y3051810D01*
G01X7266455Y3051810D01*
G01X4329621Y3350534D02*
G01X4329621Y3285510D01*
G01X4329621Y3350534D02*
G01X4357561Y3350534D01*
G01X4366705Y3347486D01*
G01X4369753Y3344438D01*
G01X4373055Y3338088D01*
G01X4373055Y3331992D01*
G01X4369753Y3325896D01*
G01X4366705Y3322848D01*
G01X4357561Y3319546D01*
G01X4329621Y3319546D01*
G01X4351211Y3319546D02*
G01X4373055Y3285510D01*
G01X4409377Y3350534D02*
G01X4443413Y3350534D01*
G01X4424871Y3325896D01*
G01X4434015Y3325896D01*
G01X4440365Y3322848D01*
G01X4443413Y3319546D01*
G01X4446461Y3310402D01*
G01X4446461Y3304052D01*
G01X4443413Y3294908D01*
G01X4437317Y3288558D01*
G01X4427919Y3285510D01*
G01X4418521Y3285510D01*
G01X4409377Y3288558D01*
G01X4406329Y3291860D01*
G01X4403281Y3297956D01*
G01X11058736Y3970068D02*
G01X11012254Y3970068D01*
G01X11003110Y3967020D01*
G01X10996760Y3960670D01*
G01X10993712Y3951526D01*
G01X10993712Y3945176D01*
G01X10996760Y3936032D01*
G01X11003110Y3929936D01*
G01X11012254Y3926634D01*
G01X11058736Y3926634D01*
G01X11043242Y3893360D02*
G01X11046290Y3893360D01*
G01X11052640Y3890312D01*
G01X11055688Y3887264D01*
G01X11058736Y3881168D01*
G01X11058736Y3868722D01*
G01X11055688Y3862372D01*
G01X11052640Y3859324D01*
G01X11046290Y3856276D01*
G01X11040194Y3856276D01*
G01X11034098Y3859324D01*
G01X11024700Y3865674D01*
G01X10993712Y3896408D01*
G01X10993712Y3853228D01*
G01X7573334Y5505978D02*
G01X7526852Y5505978D01*
G01X7517708Y5502930D01*
G01X7511358Y5496580D01*
G01X7508310Y5487436D01*
G01X7508310Y5481086D01*
G01X7511358Y5471942D01*
G01X7517708Y5465846D01*
G01X7526852Y5462544D01*
G01X7573334Y5462544D01*
G01X7560888Y5432318D02*
G01X7564190Y5426222D01*
G01X7573334Y5417078D01*
G01X7508310Y5417078D01*
G04 Text End*

G04 PolygonModel Start*
G54D11*
G01X9081287Y2664587D02*
G01X9182887Y2664587D01*
G01X9132900Y2714600D02*
G01X9132900Y2613000D01*
G36*
G01X9412300Y2679700D02*
G02X9412300Y2349500I-157746J-165100D01*
G01X9412300Y2679700D01*
G37*
G01X4629201Y5597500D02*
G01X5429199Y5597500D01*
G01X5429199Y5597500D02*
G01X5429199Y5197500D01*
G01X5429199Y5197500D02*
G01X4629201Y5197500D01*
G01X4629201Y5197500D02*
G01X4629201Y5597500D01*
G54D12*
G01X8877300Y5397500D02*
G01X9131300Y5397500D01*
G01X9131300Y5397500D02*
G01X9131300Y4889500D01*
G01X9131300Y4889500D02*
G01X8877300Y4889500D01*
G01X8877300Y4889500D02*
G01X8877300Y5080000D01*
G54D13*
G01X8877300Y5397500D02*
G01X8877300Y5080000D01*
G54D11*
G01X14223832Y2405179D02*
G01X14274632Y2405179D01*
G01X14249232Y2379779D02*
G01X14249232Y2430579D01*
G01X14110470Y2329752D02*
G02X14392692Y2611973I282222J0D01*
G01X14392692Y2611973D02*
G01X14403040Y2611973D01*
G01X14403040Y2611973D02*
G02X14688083Y2326930I0J-285044D01*
G01X14688083Y2326930D02*
G02X14603606Y2122980I-288430J0D01*
G01X14603606Y2122980D02*
G01X14587423Y2106798D01*
G01X14587423Y2106798D02*
G01X14573717Y2093092D01*
G01X14573717Y2093092D02*
G02X14543209Y2080456I-30508J30508D01*
G01X14543209Y2080456D02*
G01X14259400Y2080456D01*
G01X14259400Y2080456D02*
G02X14241231Y2087982I0J25695D01*
G01X14241231Y2087982D02*
G01X14188963Y2140250D01*
G01X14188963Y2140250D02*
G02X14110470Y2329752I189504J189502D01*
G01X14211132Y3141779D02*
G01X14261932Y3141779D01*
G01X14236532Y3116379D02*
G01X14236532Y3167179D01*
G01X14097770Y3066352D02*
G02X14379992Y3348573I282222J0D01*
G01X14379992Y3348573D02*
G01X14390340Y3348573D01*
G01X14390340Y3348573D02*
G02X14675383Y3063530I0J-285044D01*
G01X14675383Y3063530D02*
G02X14590906Y2859580I-288430J0D01*
G01X14590906Y2859580D02*
G01X14574723Y2843398D01*
G01X14574723Y2843398D02*
G01X14561017Y2829692D01*
G01X14561017Y2829692D02*
G02X14530509Y2817056I-30508J30508D01*
G01X14530509Y2817056D02*
G01X14246700Y2817056D01*
G01X14246700Y2817056D02*
G02X14228531Y2824582I0J25695D01*
G01X14228531Y2824582D02*
G01X14176263Y2876850D01*
G01X14176263Y2876850D02*
G02X14097770Y3066352I189504J189502D01*
G01X14401632Y3840279D02*
G01X14452432Y3840279D01*
G01X14427032Y3814879D02*
G01X14427032Y3865679D01*
G01X14288270Y3764852D02*
G02X14570492Y4047073I282222J0D01*
G01X14570492Y4047073D02*
G01X14580840Y4047073D01*
G01X14580840Y4047073D02*
G02X14865883Y3762030I0J-285044D01*
G01X14865883Y3762030D02*
G02X14781406Y3558080I-288430J0D01*
G01X14781406Y3558080D02*
G01X14765223Y3541898D01*
G01X14765223Y3541898D02*
G01X14751517Y3528192D01*
G01X14751517Y3528192D02*
G02X14721009Y3515556I-30508J30508D01*
G01X14721009Y3515556D02*
G01X14437200Y3515556D01*
G01X14437200Y3515556D02*
G02X14419031Y3523082I0J25695D01*
G01X14419031Y3523082D02*
G01X14366763Y3575350D01*
G01X14366763Y3575350D02*
G02X14288270Y3764852I189504J189502D01*
G01X15239832Y4246679D02*
G01X15290632Y4246679D01*
G01X15265232Y4221279D02*
G01X15265232Y4272079D01*
G01X15126470Y4171252D02*
G02X15408692Y4453473I282222J0D01*
G01X15408692Y4453473D02*
G01X15419040Y4453473D01*
G01X15419040Y4453473D02*
G02X15704083Y4168430I0J-285044D01*
G01X15704083Y4168430D02*
G02X15619606Y3964480I-288430J0D01*
G01X15619606Y3964480D02*
G01X15603423Y3948298D01*
G01X15603423Y3948298D02*
G01X15589717Y3934592D01*
G01X15589717Y3934592D02*
G02X15559209Y3921956I-30508J30508D01*
G01X15559209Y3921956D02*
G01X15275400Y3921956D01*
G01X15275400Y3921956D02*
G02X15257231Y3929482I0J25695D01*
G01X15257231Y3929482D02*
G01X15204963Y3981750D01*
G01X15204963Y3981750D02*
G02X15126470Y4171252I189504J189502D01*
G01X16014532Y3979979D02*
G01X16065332Y3979979D01*
G01X16039932Y3954579D02*
G01X16039932Y4005379D01*
G01X15901170Y3904552D02*
G02X16183392Y4186773I282222J0D01*
G01X16183392Y4186773D02*
G01X16193740Y4186773D01*
G01X16193740Y4186773D02*
G02X16478783Y3901730I0J-285044D01*
G01X16478783Y3901730D02*
G02X16394306Y3697780I-288430J0D01*
G01X16394306Y3697780D02*
G01X16378123Y3681598D01*
G01X16378123Y3681598D02*
G01X16364417Y3667892D01*
G01X16364417Y3667892D02*
G02X16333909Y3655256I-30508J30508D01*
G01X16333909Y3655256D02*
G01X16050100Y3655256D01*
G01X16050100Y3655256D02*
G02X16031931Y3662782I0J25695D01*
G01X16031931Y3662782D02*
G01X15979663Y3715050D01*
G01X15979663Y3715050D02*
G02X15901170Y3904552I189504J189502D01*
G01X16573332Y3484679D02*
G01X16624132Y3484679D01*
G01X16598732Y3459279D02*
G01X16598732Y3510079D01*
G01X16459970Y3409252D02*
G02X16742192Y3691473I282222J0D01*
G01X16742192Y3691473D02*
G01X16752540Y3691473D01*
G01X16752540Y3691473D02*
G02X17037583Y3406430I0J-285044D01*
G01X17037583Y3406430D02*
G02X16953106Y3202480I-288430J0D01*
G01X16953106Y3202480D02*
G01X16936923Y3186298D01*
G01X16936923Y3186298D02*
G01X16923217Y3172592D01*
G01X16923217Y3172592D02*
G02X16892709Y3159956I-30508J30508D01*
G01X16892709Y3159956D02*
G01X16608900Y3159956D01*
G01X16608900Y3159956D02*
G02X16590731Y3167482I0J25695D01*
G01X16590731Y3167482D02*
G01X16538463Y3219750D01*
G01X16538463Y3219750D02*
G02X16459970Y3409252I189504J189502D01*
G01X16662232Y2684579D02*
G01X16713032Y2684579D01*
G01X16687632Y2659179D02*
G01X16687632Y2709979D01*
G01X16548870Y2609152D02*
G02X16831092Y2891373I282222J0D01*
G01X16831092Y2891373D02*
G01X16841440Y2891373D01*
G01X16841440Y2891373D02*
G02X17126483Y2606330I0J-285044D01*
G01X17126483Y2606330D02*
G02X17042006Y2402380I-288430J0D01*
G01X17042006Y2402380D02*
G01X17025823Y2386198D01*
G01X17025823Y2386198D02*
G01X17012117Y2372492D01*
G01X17012117Y2372492D02*
G02X16981609Y2359856I-30508J30508D01*
G01X16981609Y2359856D02*
G01X16697800Y2359856D01*
G01X16697800Y2359856D02*
G02X16679631Y2367382I0J25695D01*
G01X16679631Y2367382D02*
G01X16627363Y2419650D01*
G01X16627363Y2419650D02*
G02X16548870Y2609152I189504J189502D01*
G01X16268532Y1909879D02*
G01X16319332Y1909879D01*
G01X16293932Y1884479D02*
G01X16293932Y1935279D01*
G01X16155170Y1834452D02*
G02X16437392Y2116673I282222J0D01*
G01X16437392Y2116673D02*
G01X16447740Y2116673D01*
G01X16447740Y2116673D02*
G02X16732783Y1831630I0J-285044D01*
G01X16732783Y1831630D02*
G02X16648306Y1627680I-288430J0D01*
G01X16648306Y1627680D02*
G01X16632123Y1611498D01*
G01X16632123Y1611498D02*
G01X16618417Y1597792D01*
G01X16618417Y1597792D02*
G02X16587909Y1585156I-30508J30508D01*
G01X16587909Y1585156D02*
G01X16304100Y1585156D01*
G01X16304100Y1585156D02*
G02X16285931Y1592682I0J25695D01*
G01X16285931Y1592682D02*
G01X16233663Y1644950D01*
G01X16233663Y1644950D02*
G02X16155170Y1834452I189504J189502D01*
G01X15493832Y1528879D02*
G01X15544632Y1528879D01*
G01X15519232Y1503479D02*
G01X15519232Y1554279D01*
G01X15380470Y1453452D02*
G02X15662692Y1735673I282222J0D01*
G01X15662692Y1735673D02*
G01X15673040Y1735673D01*
G01X15673040Y1735673D02*
G02X15958083Y1450630I0J-285044D01*
G01X15958083Y1450630D02*
G02X15873606Y1246680I-288430J0D01*
G01X15873606Y1246680D02*
G01X15857423Y1230498D01*
G01X15857423Y1230498D02*
G01X15843717Y1216792D01*
G01X15843717Y1216792D02*
G02X15813209Y1204156I-30508J30508D01*
G01X15813209Y1204156D02*
G01X15529400Y1204156D01*
G01X15529400Y1204156D02*
G02X15511231Y1211682I0J25695D01*
G01X15511231Y1211682D02*
G01X15458963Y1263950D01*
G01X15458963Y1263950D02*
G02X15380470Y1453452I189504J189502D01*
G01X14630232Y1706679D02*
G01X14681032Y1706679D01*
G01X14655632Y1681279D02*
G01X14655632Y1732079D01*
G01X14516870Y1631252D02*
G02X14799092Y1913473I282222J0D01*
G01X14799092Y1913473D02*
G01X14809440Y1913473D01*
G01X14809440Y1913473D02*
G02X15094483Y1628430I0J-285044D01*
G01X15094483Y1628430D02*
G02X15010006Y1424480I-288430J0D01*
G01X15010006Y1424480D02*
G01X14993823Y1408298D01*
G01X14993823Y1408298D02*
G01X14980117Y1394592D01*
G01X14980117Y1394592D02*
G02X14949609Y1381956I-30508J30508D01*
G01X14949609Y1381956D02*
G01X14665800Y1381956D01*
G01X14665800Y1381956D02*
G02X14647631Y1389482I0J25695D01*
G01X14647631Y1389482D02*
G01X14595363Y1441750D01*
G01X14595363Y1441750D02*
G02X14516870Y1631252I189504J189502D01*
G01X12153900Y4610100D02*
G01X12153900Y4356100D01*
G01X12153900Y4356100D02*
G01X11899900Y4356100D01*
G01X11899900Y4356100D02*
G01X11899900Y4610100D01*
G01X11899900Y4610100D02*
G01X12153900Y4610100D01*
G01X7010321Y1981200D02*
G01X7117199Y1981200D01*
G01X7767201Y1980796D02*
G01X7874079Y1980796D01*
G01X7117199Y1866199D02*
G01X7117199Y2096201D01*
G01X7117199Y2096201D02*
G01X7767201Y2096201D01*
G01X7767201Y2093199D02*
G01X7767201Y1869201D01*
G01X7767201Y1866199D02*
G01X7117199Y1866199D01*
G01X7416795Y2882900D02*
G01X7340595Y2882900D01*
G01X8077195Y2882900D02*
G01X8153395Y2882900D01*
G01X4698210Y2133902D02*
G01X4697700Y2201901D01*
G01X4829703Y3230900D02*
G01X4339697Y3230900D01*
G01X4339697Y3230900D02*
G01X4334701Y3230900D01*
G01X4334701Y3230900D02*
G01X4334701Y3181401D01*
G01X4334701Y3181401D02*
G01X4384700Y3181401D01*
G01X4384700Y3181401D02*
G01X4384700Y2330399D01*
G01X4384700Y2330399D02*
G01X4334701Y2330399D01*
G01X4334701Y2330399D02*
G01X4334701Y2280366D01*
G01X4334701Y2280366D02*
G01X4339697Y2280366D01*
G01X4339697Y2280366D02*
G01X4829703Y2280366D01*
G01X4829703Y3230900D02*
G01X4829703Y2280900D01*
G54D14*
G01X7074400Y5421600D02*
G01X7073900Y5421630D01*
G01X7073900Y5421630D02*
G01X7275322Y5421630D01*
G01X7275322Y5421630D02*
G01X7275322Y4431538D01*
G01X7275322Y4431538D02*
G01X6745478Y4431538D01*
G01X6745478Y4431538D02*
G01X6745478Y5421630D01*
G01X6745478Y5421630D02*
G01X6946900Y5421630D01*
G01X6946900Y5421630D02*
G01X6946400Y5421600D01*
G01X6946400Y5421600D02*
G03X7073400Y5421600I63500J0D01*
G54D15*
G01X6629400Y5451094D02*
G03X6629527Y5426096I127J-12499D01*
G03X6629654Y5451094I0J12499D01*
G54D16*
G01X6845300Y5372608D02*
G03X6845554Y5312609I254J-29999D01*
G03X6845808Y5372608I0J30000D01*
G54D10*
G01X10385425Y3894538D02*
G01X10180660Y3894538D01*
G01X10180660Y3894538D02*
G01X10180660Y1948801D01*
G01X10180660Y1948801D02*
G01X10748940Y1948801D01*
G01X10748940Y1948801D02*
G01X10748940Y3894538D01*
G01X10748940Y3894538D02*
G01X10544175Y3894538D01*
G01X10385425Y3894537D02*
G03X10544175Y3894537I79375J0D01*

G04 Rect Start*
G54D11*
G01X7429487Y2768600D02*
G01X7429487Y2997200D01*
G01X8077187Y2997200D01*
G01X8077187Y2768600D01*
G01X7429487Y2768600D01*
G01X4591710Y2131911D02*
G01X4591710Y2280907D01*
G01X4804715Y2280907D01*
G01X4804715Y2131911D01*
G01X4591710Y2131911D01*
G04 Rect End*

G04 Circle Start*
G54D18*
G01X8982888Y2514600D02*
G03X9482912Y2514600I250012J0D01*
G03X8982888Y2514600I-250012J0D01*
G01X10047783Y3947677D02*
G03X10077806Y3947677I15011J0D01*
G03X10047783Y3947677I-15011J0D01*
G04 Circle End*

M02*

