G04 Layer: BottomLayer*
G04 EasyEDA Pro v3.2.148, 2026-06-29 22:01:56*
G04 Gerber Generator version 0.3*
G04 Scale: 100 percent, Rotated: No, Reflected: No*
G04 Dimensions in millimeters*
G04 Leading zeros omitted, absolute positions, 4 integers and 5 decimals*
G04 Generated by one-click*
G04 Object Configs: Pad,Via,Track,Text,Image,Dimension,BoardOutline,BoardCutout,CopperFilled,SolidRegion,FPCStiffener,Line,PlaneZone,ComponentProperty,ComponentSilkscreen,TearDrop*
G04 Layer Configs: 1,2,3,4,5,6,7,8,9,10,11,13,14,56*
G04 Copper Areas: 0*
%FSLAX45Y45*%
%MOMM*%
%ADD10C,1.3*%
%ADD11C,1.8*%
%ADD12R,2.0X2.0*%
%ADD13C,2.0*%
%ADD14R,1.7X1.7*%
%ADD15C,1.4*%
%ADD16C,1.6*%
%ADD17C,1.5203*%
%ADD18C,1.524*%
%ADD19R,1.5X1.5*%
%ADD20C,1.5*%
%ADD21O,1.8X1.44*%
%ADD22C,0.61*%
%ADD23C,0.254*%
G75*


G04 Pad Start*
G54D10*
G01X9132900Y2514600D03*
G01X9332900Y2514600D03*
G54D11*
G01X4775200Y5397500D03*
G01X5283200Y5397500D03*
G54D12*
G01X9004300Y5016500D03*
G54D13*
G01X9004300Y5270500D03*
G54D11*
G01X14401632Y2201979D03*
G01X14401632Y2455979D03*
G01X14388932Y2938579D03*
G01X14388932Y3192579D03*
G01X14579432Y3637079D03*
G01X14579432Y3891079D03*
G01X15417632Y4043479D03*
G01X15417632Y4297479D03*
G01X16192332Y3776779D03*
G01X16192332Y4030779D03*
G01X16751132Y3281479D03*
G01X16751132Y3535479D03*
G01X16840032Y2481379D03*
G01X16840032Y2735379D03*
G01X16446332Y1706679D03*
G01X16446332Y1960679D03*
G01X15671632Y1325679D03*
G01X15671632Y1579679D03*
G01X14808032Y1503479D03*
G01X14808032Y1757479D03*
G54D14*
G01X12026900Y4483100D03*
G54D15*
G01X6917207Y1981200D03*
G01X7967193Y1981200D03*
G54D16*
G01X7221995Y2882900D03*
G01X8272005Y2882900D03*
G54D18*
G01X4584700Y2755887D03*
G01X4584700Y3005900D03*
G01X4584700Y2505901D03*
G54D19*
G01X6629400Y5308600D03*
G54D20*
G01X6629400Y5054600D03*
G01X6629400Y4800600D03*
G01X6629400Y4546600D03*
G01X7391400Y5308600D03*
G01X7391400Y5054600D03*
G01X7391400Y4800600D03*
G01X7391400Y4546600D03*
G54D21*
G01X10067798Y3810669D03*
G01X10861802Y3810669D03*
G01X10067798Y3556669D03*
G01X10861802Y3556669D03*
G01X10067798Y3302669D03*
G01X10861802Y3302669D03*
G01X10067798Y3048669D03*
G01X10861802Y3048669D03*
G01X10067798Y2794669D03*
G01X10861802Y2794669D03*
G01X10067798Y2540669D03*
G01X10861802Y2540669D03*
G01X10067798Y2286669D03*
G01X10861802Y2286669D03*
G01X10067798Y2032669D03*
G01X10861802Y2032669D03*
G04 Pad End*

G04 Via Start*
G54D22*
G01X11036138Y2481385D03*
G01X10617039Y2595685D03*
G01X14757230Y2100376D03*
G04 Via End*

G04 Track Start*
G54D23*
G01X15671629Y1325677D02*
G01X11568797Y1325677D01*
G01X10861798Y2032676D01*
G01X6917206Y1981196D02*
G01X6409207Y2489195D01*
G01X4601411Y2489195D01*
G01X4584701Y2505905D01*
G01X4584701Y2755894D01*
G01X6409207Y2489195D02*
G01X6409207Y4072412D01*
G01X7391395Y5054600D01*
G01X9132902Y2514605D02*
G01X9132902Y3059094D01*
G01X7391395Y4800600D01*
G01X6629397Y5054600D02*
G01X6629397Y5050600D01*
G01X4584701Y3005904D01*
G01X9004302Y5270499D02*
G01X7429495Y5270499D01*
G01X7391395Y5308599D01*
G01X7010396Y4927600D01*
G01X6603997Y4927600D01*
G01X6502397Y4826000D01*
G01X6502397Y4673601D01*
G01X6629397Y4546601D01*
G01X9004302Y5270499D02*
G01X9401971Y5270499D01*
G01X10861798Y3810672D01*
G01X12026896Y4483101D02*
G01X12026896Y4467771D01*
G01X10861798Y3302673D01*
G01X9349430Y4815041D01*
G01X7800034Y4815041D01*
G01X7432805Y5182270D01*
G01X7356605Y5182270D01*
G01X6974936Y4800600D01*
G01X6629397Y4800600D01*
G01X14579431Y3637083D02*
G01X14096832Y3154484D01*
G01X10173610Y3154484D01*
G01X10067800Y3048674D01*
G01X9814830Y2032676D02*
G01X10067800Y2032676D01*
G01X9663101Y2184406D02*
G01X9663101Y2311405D01*
G01X10044100Y2692405D01*
G01X10505529Y2692405D01*
G01X10861798Y3048674D01*
G01X6629397Y5308599D02*
G01X6578597Y5257799D01*
G01X4914900Y5257799D01*
G01X4775200Y5397499D01*
G01X16192328Y3776782D02*
G01X15049330Y2633785D01*
G01X11188538Y2633785D01*
G01X11036138Y2481385D01*
G01X16446337Y1706677D02*
G01X15561539Y2591475D01*
G01X11268947Y2591475D01*
G01X11091148Y2413675D01*
G01X10194800Y2413675D01*
G01X10067800Y2540675D01*
G01X15417629Y4043482D02*
G01X14706431Y3332283D01*
G01X14350831Y3332283D01*
G01X13690433Y2671885D01*
G01X10693239Y2671885D01*
G01X10617039Y2595685D01*
G01X14401631Y2455975D02*
G01X14757230Y2100376D01*
G01X16446337Y1960676D02*
G01X16446337Y2341675D01*
G01X16840036Y2735375D01*
G01X16890836Y2786174D01*
G01X16890836Y3395673D01*
G01X16751136Y3535483D01*
G01X16687627Y3535483D01*
G01X16192328Y4030782D01*
G01X15684329Y4030782D01*
G01X15417629Y4297481D01*
G01X14401631Y2455975D02*
G01X14096832Y2151176D01*
G01X10363039Y2151176D01*
G01X10134440Y1922576D01*
G01X9232342Y1922576D01*
G01X8272013Y2882904D01*
G01X9332901Y2514605D02*
G01X9663101Y2184406D01*
G01X9814830Y2032676D01*
G04 Track End*

M02*

