G04 Layer: DrillDrawingLayer*
G04 EasyEDA Pro v3.2.148, 2026-06-29 22:01:56*
G04 Gerber Generator version 0.3*
G04 Scale: 100 percent, Rotated: No, Reflected: No*
G04 Dimensions in millimeters*
G04 Leading zeros omitted, absolute positions, 4 integers and 5 decimals*
G04 Generated by one-click*
G04 Object Configs: Pad,Via,Track,Text,Image,Dimension,BoardOutline,BoardCutout,CopperFilled,SolidRegion,FPCStiffener,Line,PlaneZone,ComponentProperty,ComponentSilkscreen,TearDrop*
G04 Layer Configs: 1,2,3,4,5,6,7,8,9,10,11,13,14,56*
G04 Copper Areas: 0*
%FSLAX45Y45*%
%MOMM*%
%AMIconRect*4,1,4,0.28,-0.28,-0.28,-0.28,-0.28,0.28,0.28,0.28,0.28,-0.28,0*4,0,4,0.233333,-0.233333,0.233333,0.233333,-0.233333,0.233333,-0.233333,-0.233333,0.233333,-0.233333,0*%
%AMIconTriangle*4,1,3,-0.339593,0.240473,0.339593,0.240473,0,-0.37884,-0.339593,0.240473,0*4,0,3,-0.265673,0.19404,0,-0.27342,0.266233,0.19404,-0.265673,0.19404,0*%
%AMIconStar6*4,1,12,0.12068,0.20888,0.298527,0.172713,0.241313,0,0.298527,-0.17206,0.12068,-0.208227,0,-0.344073,-0.120073,-0.208227,-0.298573,-0.17206,-0.240707,0,-0.298573,0.17206,-0.120073,0.20888,0,0.344073,0.12068,0.20888,0*4,0,12,-0.000467,0.273467,-0.090067,0.171733,-0.237533,0.136733,-0.193667,-0.007467,-0.237533,-0.1372,-0.090067,-0.171733,-0.000467,-0.273933,0.090067,-0.171733,0.237533,-0.1372,0.194133,0.007,0.237533,0.1372,0.090067,0.171267,-0.000467,0.273467,0*%
%AMIconStar4*4,1,8,-0.311733,0.311733,0,0.202533,0.311733,0.311733,0.202533,0,0.311733,-0.311733,0,-0.202533,-0.304407,-0.311733,-0.202533,0,-0.311733,0.311733,0*4,0,8,0.233333,-0.233333,0.1512,0,0.233333,0.233333,0,0.1512,-0.233333,0.233333,-0.1512,0,-0.233333,-0.233333,0,-0.1512,0.233333,-0.233333,0*%
%AMIconPlus*4,1,12,0.1736,-0.28,-0.1736,-0.28,-0.1736,-0.1736,-0.28,-0.1736,-0.28,0.1736,-0.1736,0.1736,-0.1736,0.28,0.1736,0.28,0.1736,0.1736,0.28,0.1736,0.28,-0.1736,0.1736,-0.1736,0.1736,-0.28,0*4,0,12,0.126933,-0.233333,0.126933,-0.126933,0.233333,-0.126933,0.233333,0.126933,0.126933,0.126933,0.126933,0.233333,-0.126933,0.233333,-0.126933,0.126933,-0.233333,0.126933,-0.233333,-0.126933,-0.126933,-0.126933,-0.126933,-0.233333,0.126933,-0.233333,0*%
%AMIconX*4,1,16,0.28,-0.28,0.076347,-0.28,0,-0.203653,-0.076347,-0.28,-0.28,-0.28,-0.28,-0.076347,-0.203653,0,-0.28,0.076347,-0.28,0.28,-0.076347,0.28,0,0.203653,0.076347,0.28,0.28,0.28,0.28,0.076347,0.203653,0,0.28,-0.076347,0.28,-0.28,0*4,0,16,0.23352,-0.23296,0.23352,-0.095853,0.137107,0.000093,0.23352,0.095853,0.23352,0.2331,0.095853,0.2331,0,0.137107,-0.095853,0.2331,-0.23352,0.2331,-0.23352,0.095853,-0.137107,0.000093,-0.23352,-0.095853,-0.23352,-0.23296,-0.095853,-0.23296,0,-0.137107,0.095853,-0.23296,0.23352,-0.23296,0*%
%AMIconDiamond*4,1,4,0,-0.364,-0.364,0,0,0.364,0.364,0,0,-0.364,0*4,0,4,0,-0.284807,0.284807,0,0,0.28504,-0.284807,0,0,-0.284807,0*%
%AMIconRect2*4,1,6,0.28,-0.28,-0.28,-0.28,-0.28,0.28,-0.23352,0.2331,-0.233333,-0.233333,0.23352,-0.233333,0.28,-0.28,0*4,1,6,0.28,-0.28,0.23352,-0.233333,0.23352,0.2331,-0.23352,0.2331,-0.28,0.28,0.28,0.28,0.28,-0.28,0*4,1,6,0.186853,-0.186667,-0.186667,-0.186667,-0.186667,0.186853,-0.14,0.140187,-0.14,-0.14,0.140187,-0.14,0.186853,-0.186667,0*4,1,6,0.186853,-0.186667,0.140187,-0.14,0.140187,0.140187,-0.14,0.140187,-0.186667,0.186853,0.186853,0.186853,0.186853,-0.186667,0*%
%ADD10IconRect*%
%ADD11C,0.616X0.522667*%
%ADD12IconTriangle*%
%ADD13IconStar6*%
%ADD14IconStar4*%
%ADD15IconPlus*%
%ADD16IconX*%
%ADD17IconDiamond*%
%ADD18IconRect2*%
%ADD19C,0.2032*%
%ADD20C,0.254*%
G75*


G04 Drill Drawing Start*
G54D10*
G01X12026900Y4483100D03*
G54D11*
G01X6917200Y1981200D03*
G01X7967200Y1981200D03*
G54D12*
G01X7221995Y2882900D03*
G01X8271995Y2882900D03*
G54D13*
G01X10617039Y2595685D03*
G01X11036138Y2481385D03*
G01X14757230Y2100376D03*
G54D14*
G01X4584700Y2505901D03*
G01X4584700Y3005900D03*
G01X4584713Y2755887D03*
G54D15*
G01X4775200Y5397500D03*
G01X5283200Y5397500D03*
G01X9004300Y5016500D03*
G01X9004300Y5270500D03*
G54D16*
G01X6629400Y4546600D03*
G01X6629400Y4800600D03*
G01X6629400Y5054600D03*
G01X6629400Y5308600D03*
G01X7391400Y4546600D03*
G01X7391400Y4800600D03*
G01X7391400Y5054600D03*
G01X7391400Y5308600D03*
G54D17*
G01X9132900Y2514600D03*
G01X9332900Y2514600D03*
G01X10067801Y2032672D03*
G01X10067801Y2286669D03*
G01X10067801Y2540669D03*
G01X10067801Y2794669D03*
G01X10067801Y3048669D03*
G01X10067801Y3302669D03*
G01X10067801Y3556667D03*
G01X10067801Y3810667D03*
G01X10861799Y2032672D03*
G01X10861799Y2286669D03*
G01X10861799Y2540669D03*
G01X10861799Y2794669D03*
G01X10861799Y3048669D03*
G01X10861799Y3302669D03*
G01X10861799Y3556667D03*
G01X10861799Y3810667D03*
G54D18*
G01X14388932Y2938579D03*
G01X14388932Y3192579D03*
G01X14401632Y2201979D03*
G01X14401632Y2455979D03*
G01X14579432Y3637079D03*
G01X14579432Y3891079D03*
G01X14808032Y1503479D03*
G01X14808032Y1757479D03*
G01X15417632Y4043479D03*
G01X15417632Y4297479D03*
G01X15671632Y1325679D03*
G01X15671632Y1579679D03*
G01X16192332Y3776779D03*
G01X16192332Y4030779D03*
G01X16446332Y1706679D03*
G01X16446332Y1960679D03*
G01X16751132Y3281479D03*
G01X16751132Y3535479D03*
G01X16840032Y2481379D03*
G01X16840032Y2735379D03*
G04 Drill Drawing End*

G04 Text Start*
G54D19*
G01X20537646Y12300494D02*
G01X20537646Y12180352D01*
G01X20537646Y12300494D02*
G01X20583366Y12180352D01*
G01X20629086Y12300494D02*
G01X20583366Y12180352D01*
G01X20629086Y12300494D02*
G01X20629086Y12180352D01*
G01X20745418Y12260362D02*
G01X20745418Y12180352D01*
G01X20745418Y12243344D02*
G01X20733988Y12254774D01*
G01X20722558Y12260362D01*
G01X20705540Y12260362D01*
G01X20694110Y12254774D01*
G01X20682680Y12243344D01*
G01X20676838Y12226072D01*
G01X20676838Y12214642D01*
G01X20682680Y12197624D01*
G01X20694110Y12186194D01*
G01X20705540Y12180352D01*
G01X20722558Y12180352D01*
G01X20733988Y12186194D01*
G01X20745418Y12197624D01*
G01X20793170Y12260362D02*
G01X20793170Y12180352D01*
G01X20793170Y12226072D02*
G01X20799012Y12243344D01*
G01X20810442Y12254774D01*
G01X20821872Y12260362D01*
G01X20838890Y12260362D01*
G01X20886642Y12300494D02*
G01X20886642Y12180352D01*
G01X20943792Y12260362D02*
G01X20886642Y12203212D01*
G01X20909502Y12226072D02*
G01X20949634Y12180352D01*
G01X22074926Y12271792D02*
G01X22069084Y12283222D01*
G01X22057654Y12294652D01*
G01X22046224Y12300494D01*
G01X22023364Y12300494D01*
G01X22011934Y12294652D01*
G01X22000504Y12283222D01*
G01X21994916Y12271792D01*
G01X21989074Y12254774D01*
G01X21989074Y12226072D01*
G01X21994916Y12209054D01*
G01X22000504Y12197624D01*
G01X22011934Y12186194D01*
G01X22023364Y12180352D01*
G01X22046224Y12180352D01*
G01X22057654Y12186194D01*
G01X22069084Y12197624D01*
G01X22074926Y12209054D01*
G01X22151380Y12260362D02*
G01X22139950Y12254774D01*
G01X22128520Y12243344D01*
G01X22122678Y12226072D01*
G01X22122678Y12214642D01*
G01X22128520Y12197624D01*
G01X22139950Y12186194D01*
G01X22151380Y12180352D01*
G01X22168398Y12180352D01*
G01X22179828Y12186194D01*
G01X22191258Y12197624D01*
G01X22197100Y12214642D01*
G01X22197100Y12226072D01*
G01X22191258Y12243344D01*
G01X22179828Y12254774D01*
G01X22168398Y12260362D01*
G01X22151380Y12260362D01*
G01X22244852Y12260362D02*
G01X22244852Y12203212D01*
G01X22250694Y12186194D01*
G01X22262124Y12180352D01*
G01X22279142Y12180352D01*
G01X22290572Y12186194D01*
G01X22307844Y12203212D01*
G01X22307844Y12260362D02*
G01X22307844Y12180352D01*
G01X22355596Y12260362D02*
G01X22355596Y12180352D01*
G01X22355596Y12237502D02*
G01X22372868Y12254774D01*
G01X22384298Y12260362D01*
G01X22401316Y12260362D01*
G01X22412746Y12254774D01*
G01X22418588Y12237502D01*
G01X22418588Y12180352D01*
G01X22483612Y12300494D02*
G01X22483612Y12203212D01*
G01X22489200Y12186194D01*
G01X22500630Y12180352D01*
G01X22512060Y12180352D01*
G01X22466340Y12260362D02*
G01X22506472Y12260362D01*
G01X23483247Y12283222D02*
G01X23471817Y12294652D01*
G01X23454799Y12300494D01*
G01X23431939Y12300494D01*
G01X23414667Y12294652D01*
G01X23403237Y12283222D01*
G01X23403237Y12271792D01*
G01X23409079Y12260362D01*
G01X23414667Y12254774D01*
G01X23426097Y12248932D01*
G01X23460387Y12237502D01*
G01X23471817Y12231914D01*
G01X23477659Y12226072D01*
G01X23483247Y12214642D01*
G01X23483247Y12197624D01*
G01X23471817Y12186194D01*
G01X23454799Y12180352D01*
G01X23431939Y12180352D01*
G01X23414667Y12186194D01*
G01X23403237Y12197624D01*
G01X23530999Y12300494D02*
G01X23536841Y12294652D01*
G01X23542429Y12300494D01*
G01X23536841Y12306082D01*
G01X23530999Y12300494D01*
G01X23536841Y12260362D02*
G01X23536841Y12180352D01*
G01X23653173Y12260362D02*
G01X23590181Y12180352D01*
G01X23590181Y12260362D02*
G01X23653173Y12260362D01*
G01X23590181Y12180352D02*
G01X23653173Y12180352D01*
G01X23700925Y12226072D02*
G01X23769505Y12226072D01*
G01X23769505Y12237502D01*
G01X23763917Y12248932D01*
G01X23758075Y12254774D01*
G01X23746645Y12260362D01*
G01X23729627Y12260362D01*
G01X23718197Y12254774D01*
G01X23706767Y12243344D01*
G01X23700925Y12226072D01*
G01X23700925Y12214642D01*
G01X23706767Y12197624D01*
G01X23718197Y12186194D01*
G01X23729627Y12180352D01*
G01X23746645Y12180352D01*
G01X23758075Y12186194D01*
G01X23769505Y12197624D01*
G01X27297203Y12300494D02*
G01X27297203Y12180352D01*
G01X27297203Y12300494D02*
G01X27348765Y12300494D01*
G01X27365783Y12294652D01*
G01X27371625Y12289064D01*
G01X27377213Y12277634D01*
G01X27377213Y12260362D01*
G01X27371625Y12248932D01*
G01X27365783Y12243344D01*
G01X27348765Y12237502D01*
G01X27297203Y12237502D01*
G01X27424965Y12300494D02*
G01X27424965Y12180352D01*
G01X27541297Y12260362D02*
G01X27541297Y12180352D01*
G01X27541297Y12243344D02*
G01X27529867Y12254774D01*
G01X27518437Y12260362D01*
G01X27501419Y12260362D01*
G01X27489989Y12254774D01*
G01X27478559Y12243344D01*
G01X27472717Y12226072D01*
G01X27472717Y12214642D01*
G01X27478559Y12197624D01*
G01X27489989Y12186194D01*
G01X27501419Y12180352D01*
G01X27518437Y12180352D01*
G01X27529867Y12186194D01*
G01X27541297Y12197624D01*
G01X27606321Y12300494D02*
G01X27606321Y12203212D01*
G01X27611909Y12186194D01*
G01X27623339Y12180352D01*
G01X27634769Y12180352D01*
G01X27589049Y12260362D02*
G01X27629181Y12260362D01*
G01X27682521Y12226072D02*
G01X27751101Y12226072D01*
G01X27751101Y12237502D01*
G01X27745513Y12248932D01*
G01X27739671Y12254774D01*
G01X27728241Y12260362D01*
G01X27711223Y12260362D01*
G01X27699793Y12254774D01*
G01X27688363Y12243344D01*
G01X27682521Y12226072D01*
G01X27682521Y12214642D01*
G01X27688363Y12197624D01*
G01X27699793Y12186194D01*
G01X27711223Y12180352D01*
G01X27728241Y12180352D01*
G01X27739671Y12186194D01*
G01X27751101Y12197624D01*
G01X27867433Y12300494D02*
G01X27867433Y12180352D01*
G01X27867433Y12243344D02*
G01X27856003Y12254774D01*
G01X27844573Y12260362D01*
G01X27827555Y12260362D01*
G01X27816125Y12254774D01*
G01X27804695Y12243344D01*
G01X27798853Y12226072D01*
G01X27798853Y12214642D01*
G01X27804695Y12197624D01*
G01X27816125Y12186194D01*
G01X27827555Y12180352D01*
G01X27844573Y12180352D01*
G01X27856003Y12186194D01*
G01X27867433Y12197624D01*
G01X28838620Y12283222D02*
G01X28827190Y12294652D01*
G01X28810172Y12300494D01*
G01X28787312Y12300494D01*
G01X28770040Y12294652D01*
G01X28758610Y12283222D01*
G01X28758610Y12271792D01*
G01X28764452Y12260362D01*
G01X28770040Y12254774D01*
G01X28781470Y12248932D01*
G01X28815760Y12237502D01*
G01X28827190Y12231914D01*
G01X28833032Y12226072D01*
G01X28838620Y12214642D01*
G01X28838620Y12197624D01*
G01X28827190Y12186194D01*
G01X28810172Y12180352D01*
G01X28787312Y12180352D01*
G01X28770040Y12186194D01*
G01X28758610Y12197624D01*
G01X28886372Y12300494D02*
G01X28886372Y12180352D01*
G01X28886372Y12237502D02*
G01X28903644Y12254774D01*
G01X28915074Y12260362D01*
G01X28932092Y12260362D01*
G01X28943522Y12254774D01*
G01X28949364Y12237502D01*
G01X28949364Y12180352D01*
G01X29065696Y12260362D02*
G01X29065696Y12180352D01*
G01X29065696Y12243344D02*
G01X29054266Y12254774D01*
G01X29042836Y12260362D01*
G01X29025818Y12260362D01*
G01X29014388Y12254774D01*
G01X29002958Y12243344D01*
G01X28997116Y12226072D01*
G01X28997116Y12214642D01*
G01X29002958Y12197624D01*
G01X29014388Y12186194D01*
G01X29025818Y12180352D01*
G01X29042836Y12180352D01*
G01X29054266Y12186194D01*
G01X29065696Y12197624D01*
G01X29113448Y12260362D02*
G01X29113448Y12140474D01*
G01X29113448Y12243344D02*
G01X29124878Y12254774D01*
G01X29136308Y12260362D01*
G01X29153580Y12260362D01*
G01X29165010Y12254774D01*
G01X29176440Y12243344D01*
G01X29182028Y12226072D01*
G01X29182028Y12214642D01*
G01X29176440Y12197624D01*
G01X29165010Y12186194D01*
G01X29153580Y12180352D01*
G01X29136308Y12180352D01*
G01X29124878Y12186194D01*
G01X29113448Y12197624D01*
G01X29229780Y12226072D02*
G01X29298360Y12226072D01*
G01X29298360Y12237502D01*
G01X29292772Y12248932D01*
G01X29286930Y12254774D01*
G01X29275500Y12260362D01*
G01X29258482Y12260362D01*
G01X29247052Y12254774D01*
G01X29235622Y12243344D01*
G01X29229780Y12226072D01*
G01X29229780Y12214642D01*
G01X29235622Y12197624D01*
G01X29247052Y12186194D01*
G01X29258482Y12180352D01*
G01X29275500Y12180352D01*
G01X29286930Y12186194D01*
G01X29298360Y12197624D01*
G01X30189791Y12300494D02*
G01X30235511Y12180352D01*
G01X30281231Y12300494D02*
G01X30235511Y12180352D01*
G01X30328983Y12300494D02*
G01X30334825Y12294652D01*
G01X30340413Y12300494D01*
G01X30334825Y12306082D01*
G01X30328983Y12300494D01*
G01X30334825Y12260362D02*
G01X30334825Y12180352D01*
G01X30456745Y12260362D02*
G01X30456745Y12180352D01*
G01X30456745Y12243344D02*
G01X30445315Y12254774D01*
G01X30433885Y12260362D01*
G01X30416867Y12260362D01*
G01X30405437Y12254774D01*
G01X30394007Y12243344D01*
G01X30388165Y12226072D01*
G01X30388165Y12214642D01*
G01X30394007Y12197624D01*
G01X30405437Y12186194D01*
G01X30416867Y12180352D01*
G01X30433885Y12180352D01*
G01X30445315Y12186194D01*
G01X30456745Y12197624D01*
G01X30607367Y12323354D02*
G01X30504497Y12140474D01*
G01X30655119Y12300494D02*
G01X30655119Y12180352D01*
G01X30655119Y12300494D02*
G01X30706681Y12300494D01*
G01X30723699Y12294652D01*
G01X30729541Y12289064D01*
G01X30735129Y12277634D01*
G01X30735129Y12260362D01*
G01X30729541Y12248932D01*
G01X30723699Y12243344D01*
G01X30706681Y12237502D01*
G01X30655119Y12237502D01*
G01X30851461Y12260362D02*
G01X30851461Y12180352D01*
G01X30851461Y12243344D02*
G01X30840031Y12254774D01*
G01X30828601Y12260362D01*
G01X30811583Y12260362D01*
G01X30800153Y12254774D01*
G01X30788723Y12243344D01*
G01X30782881Y12226072D01*
G01X30782881Y12214642D01*
G01X30788723Y12197624D01*
G01X30800153Y12186194D01*
G01X30811583Y12180352D01*
G01X30828601Y12180352D01*
G01X30840031Y12186194D01*
G01X30851461Y12197624D01*
G01X30967793Y12300494D02*
G01X30967793Y12180352D01*
G01X30967793Y12243344D02*
G01X30956363Y12254774D01*
G01X30944933Y12260362D01*
G01X30927915Y12260362D01*
G01X30916485Y12254774D01*
G01X30905055Y12243344D01*
G01X30899213Y12226072D01*
G01X30899213Y12214642D01*
G01X30905055Y12197624D01*
G01X30916485Y12186194D01*
G01X30927915Y12180352D01*
G01X30944933Y12180352D01*
G01X30956363Y12186194D01*
G01X30967793Y12197624D01*
G01X31858970Y12300494D02*
G01X31858970Y12180352D01*
G01X31858970Y12300494D02*
G01X31910532Y12300494D01*
G01X31927550Y12294652D01*
G01X31933392Y12289064D01*
G01X31938980Y12277634D01*
G01X31938980Y12260362D01*
G01X31933392Y12248932D01*
G01X31927550Y12243344D01*
G01X31910532Y12237502D01*
G01X31858970Y12237502D01*
G01X32055312Y12260362D02*
G01X32055312Y12180352D01*
G01X32055312Y12243344D02*
G01X32043882Y12254774D01*
G01X32032452Y12260362D01*
G01X32015434Y12260362D01*
G01X32004004Y12254774D01*
G01X31992574Y12243344D01*
G01X31986732Y12226072D01*
G01X31986732Y12214642D01*
G01X31992574Y12197624D01*
G01X32004004Y12186194D01*
G01X32015434Y12180352D01*
G01X32032452Y12180352D01*
G01X32043882Y12186194D01*
G01X32055312Y12197624D01*
G01X32171644Y12300494D02*
G01X32171644Y12180352D01*
G01X32171644Y12243344D02*
G01X32160214Y12254774D01*
G01X32148784Y12260362D01*
G01X32131766Y12260362D01*
G01X32120336Y12254774D01*
G01X32108906Y12243344D01*
G01X32103064Y12226072D01*
G01X32103064Y12214642D01*
G01X32108906Y12197624D01*
G01X32120336Y12186194D01*
G01X32131766Y12180352D01*
G01X32148784Y12180352D01*
G01X32160214Y12186194D01*
G01X32171644Y12197624D01*
G01X32427422Y12283222D02*
G01X32415992Y12294652D01*
G01X32398974Y12300494D01*
G01X32376114Y12300494D01*
G01X32358842Y12294652D01*
G01X32347412Y12283222D01*
G01X32347412Y12271792D01*
G01X32353254Y12260362D01*
G01X32358842Y12254774D01*
G01X32370272Y12248932D01*
G01X32404562Y12237502D01*
G01X32415992Y12231914D01*
G01X32421834Y12226072D01*
G01X32427422Y12214642D01*
G01X32427422Y12197624D01*
G01X32415992Y12186194D01*
G01X32398974Y12180352D01*
G01X32376114Y12180352D01*
G01X32358842Y12186194D01*
G01X32347412Y12197624D01*
G01X32475174Y12300494D02*
G01X32475174Y12180352D01*
G01X32475174Y12237502D02*
G01X32492446Y12254774D01*
G01X32503876Y12260362D01*
G01X32520894Y12260362D01*
G01X32532324Y12254774D01*
G01X32538166Y12237502D01*
G01X32538166Y12180352D01*
G01X32654498Y12260362D02*
G01X32654498Y12180352D01*
G01X32654498Y12243344D02*
G01X32643068Y12254774D01*
G01X32631638Y12260362D01*
G01X32614620Y12260362D01*
G01X32603190Y12254774D01*
G01X32591760Y12243344D01*
G01X32585918Y12226072D01*
G01X32585918Y12214642D01*
G01X32591760Y12197624D01*
G01X32603190Y12186194D01*
G01X32614620Y12180352D01*
G01X32631638Y12180352D01*
G01X32643068Y12186194D01*
G01X32654498Y12197624D01*
G01X32702250Y12260362D02*
G01X32702250Y12140474D01*
G01X32702250Y12243344D02*
G01X32713680Y12254774D01*
G01X32725110Y12260362D01*
G01X32742382Y12260362D01*
G01X32753812Y12254774D01*
G01X32765242Y12243344D01*
G01X32770830Y12226072D01*
G01X32770830Y12214642D01*
G01X32765242Y12197624D01*
G01X32753812Y12186194D01*
G01X32742382Y12180352D01*
G01X32725110Y12180352D01*
G01X32713680Y12186194D01*
G01X32702250Y12197624D01*
G01X32818582Y12226072D02*
G01X32887162Y12226072D01*
G01X32887162Y12237502D01*
G01X32881574Y12248932D01*
G01X32875732Y12254774D01*
G01X32864302Y12260362D01*
G01X32847284Y12260362D01*
G01X32835854Y12254774D01*
G01X32824424Y12243344D01*
G01X32818582Y12226072D01*
G01X32818582Y12214642D01*
G01X32824424Y12197624D01*
G01X32835854Y12186194D01*
G01X32847284Y12180352D01*
G01X32864302Y12180352D01*
G01X32875732Y12186194D01*
G01X32887162Y12197624D01*
G01X33778339Y12300494D02*
G01X33778339Y12180352D01*
G01X33778339Y12180352D02*
G01X33846919Y12180352D01*
G01X33963251Y12260362D02*
G01X33963251Y12180352D01*
G01X33963251Y12243344D02*
G01X33951821Y12254774D01*
G01X33940391Y12260362D01*
G01X33923373Y12260362D01*
G01X33911943Y12254774D01*
G01X33900513Y12243344D01*
G01X33894671Y12226072D01*
G01X33894671Y12214642D01*
G01X33900513Y12197624D01*
G01X33911943Y12186194D01*
G01X33923373Y12180352D01*
G01X33940391Y12180352D01*
G01X33951821Y12186194D01*
G01X33963251Y12197624D01*
G01X34016845Y12260362D02*
G01X34051135Y12180352D01*
G01X34085425Y12260362D02*
G01X34051135Y12180352D01*
G01X34039705Y12157492D01*
G01X34028275Y12146062D01*
G01X34016845Y12140474D01*
G01X34011003Y12140474D01*
G01X34133177Y12226072D02*
G01X34201757Y12226072D01*
G01X34201757Y12237502D01*
G01X34196169Y12248932D01*
G01X34190327Y12254774D01*
G01X34178897Y12260362D01*
G01X34161879Y12260362D01*
G01X34150449Y12254774D01*
G01X34139019Y12243344D01*
G01X34133177Y12226072D01*
G01X34133177Y12214642D01*
G01X34139019Y12197624D01*
G01X34150449Y12186194D01*
G01X34161879Y12180352D01*
G01X34178897Y12180352D01*
G01X34190327Y12186194D01*
G01X34201757Y12197624D01*
G01X34249509Y12260362D02*
G01X34249509Y12180352D01*
G01X34249509Y12226072D02*
G01X34255351Y12243344D01*
G01X34266781Y12254774D01*
G01X34278211Y12260362D01*
G01X34295229Y12260362D01*
G01X34470997Y12300494D02*
G01X34470997Y12180352D01*
G01X34470997Y12300494D02*
G01X34522559Y12300494D01*
G01X34539577Y12294652D01*
G01X34545419Y12289064D01*
G01X34551007Y12277634D01*
G01X34551007Y12260362D01*
G01X34545419Y12248932D01*
G01X34539577Y12243344D01*
G01X34522559Y12237502D01*
G01X34470997Y12237502D01*
G01X34667339Y12260362D02*
G01X34667339Y12180352D01*
G01X34667339Y12243344D02*
G01X34655909Y12254774D01*
G01X34644479Y12260362D01*
G01X34627461Y12260362D01*
G01X34616031Y12254774D01*
G01X34604601Y12243344D01*
G01X34598759Y12226072D01*
G01X34598759Y12214642D01*
G01X34604601Y12197624D01*
G01X34616031Y12186194D01*
G01X34627461Y12180352D01*
G01X34644479Y12180352D01*
G01X34655909Y12186194D01*
G01X34667339Y12197624D01*
G01X34715091Y12300494D02*
G01X34720933Y12294652D01*
G01X34726521Y12300494D01*
G01X34720933Y12306082D01*
G01X34715091Y12300494D01*
G01X34720933Y12260362D02*
G01X34720933Y12180352D01*
G01X34774273Y12260362D02*
G01X34774273Y12180352D01*
G01X34774273Y12226072D02*
G01X34780115Y12243344D01*
G01X34791545Y12254774D01*
G01X34802975Y12260362D01*
G01X34819993Y12260362D01*
G01X21989074Y11697063D02*
G01X22000504Y11702651D01*
G01X22017776Y11719923D01*
G01X22017776Y11599781D01*
G01X23460387Y11719923D02*
G01X23403237Y11639913D01*
G01X23489089Y11639913D01*
G01X23460387Y11719923D02*
G01X23460387Y11599781D01*
G01X23548271Y11719923D02*
G01X23611263Y11719923D01*
G01X23576973Y11674203D01*
G01X23593991Y11674203D01*
G01X23605421Y11668361D01*
G01X23611263Y11662773D01*
G01X23616851Y11645501D01*
G01X23616851Y11634071D01*
G01X23611263Y11617053D01*
G01X23599833Y11605623D01*
G01X23582561Y11599781D01*
G01X23565543Y11599781D01*
G01X23548271Y11605623D01*
G01X23542683Y11611211D01*
G01X23536841Y11622641D01*
G01X23670445Y11628483D02*
G01X23664603Y11622641D01*
G01X23670445Y11617053D01*
G01X23676033Y11622641D01*
G01X23670445Y11628483D01*
G01X23735215Y11719923D02*
G01X23798207Y11719923D01*
G01X23763917Y11674203D01*
G01X23780935Y11674203D01*
G01X23792365Y11668361D01*
G01X23798207Y11662773D01*
G01X23803795Y11645501D01*
G01X23803795Y11634071D01*
G01X23798207Y11617053D01*
G01X23786777Y11605623D01*
G01X23769505Y11599781D01*
G01X23752487Y11599781D01*
G01X23735215Y11605623D01*
G01X23729627Y11611211D01*
G01X23723785Y11622641D01*
G01X23851547Y11679791D02*
G01X23914539Y11599781D01*
G01X23914539Y11679791D02*
G01X23851547Y11599781D01*
G01X24019441Y11719923D02*
G01X23962291Y11639913D01*
G01X24048143Y11639913D01*
G01X24019441Y11719923D02*
G01X24019441Y11599781D01*
G01X24107325Y11719923D02*
G01X24170317Y11719923D01*
G01X24136027Y11674203D01*
G01X24153045Y11674203D01*
G01X24164475Y11668361D01*
G01X24170317Y11662773D01*
G01X24175905Y11645501D01*
G01X24175905Y11634071D01*
G01X24170317Y11617053D01*
G01X24158887Y11605623D01*
G01X24141615Y11599781D01*
G01X24124597Y11599781D01*
G01X24107325Y11605623D01*
G01X24101737Y11611211D01*
G01X24095895Y11622641D01*
G01X24229499Y11628483D02*
G01X24223657Y11622641D01*
G01X24229499Y11617053D01*
G01X24235087Y11622641D01*
G01X24229499Y11628483D01*
G01X24294269Y11719923D02*
G01X24357261Y11719923D01*
G01X24322971Y11674203D01*
G01X24339989Y11674203D01*
G01X24351419Y11668361D01*
G01X24357261Y11662773D01*
G01X24362849Y11645501D01*
G01X24362849Y11634071D01*
G01X24357261Y11617053D01*
G01X24345831Y11605623D01*
G01X24328559Y11599781D01*
G01X24311541Y11599781D01*
G01X24294269Y11605623D01*
G01X24288681Y11611211D01*
G01X24282839Y11622641D01*
G01X24410601Y11679791D02*
G01X24410601Y11599781D01*
G01X24410601Y11656931D02*
G01X24427873Y11674203D01*
G01X24439303Y11679791D01*
G01X24456321Y11679791D01*
G01X24467751Y11674203D01*
G01X24473593Y11656931D01*
G01X24473593Y11599781D01*
G01X24473593Y11656931D02*
G01X24490611Y11674203D01*
G01X24502041Y11679791D01*
G01X24519313Y11679791D01*
G01X24530743Y11674203D01*
G01X24536331Y11656931D01*
G01X24536331Y11599781D01*
G01X24584083Y11719923D02*
G01X24589925Y11714081D01*
G01X24595513Y11719923D01*
G01X24589925Y11725511D01*
G01X24584083Y11719923D01*
G01X24589925Y11679791D02*
G01X24589925Y11599781D01*
G01X24643265Y11719923D02*
G01X24643265Y11599781D01*
G01X24731149Y11742783D02*
G01X24719719Y11731353D01*
G01X24708289Y11714081D01*
G01X24696859Y11691221D01*
G01X24691017Y11662773D01*
G01X24691017Y11639913D01*
G01X24696859Y11611211D01*
G01X24708289Y11588351D01*
G01X24719719Y11571333D01*
G01X24731149Y11559903D01*
G01X24778901Y11697063D02*
G01X24790331Y11702651D01*
G01X24807603Y11719923D01*
G01X24807603Y11599781D01*
G01X24861197Y11628483D02*
G01X24855355Y11622641D01*
G01X24861197Y11617053D01*
G01X24866785Y11622641D01*
G01X24861197Y11628483D01*
G01X24914537Y11697063D02*
G01X24925967Y11702651D01*
G01X24943239Y11719923D01*
G01X24943239Y11599781D01*
G01X25025281Y11719923D02*
G01X25008263Y11714081D01*
G01X24996833Y11697063D01*
G01X24990991Y11668361D01*
G01X24990991Y11651343D01*
G01X24996833Y11622641D01*
G01X25008263Y11605623D01*
G01X25025281Y11599781D01*
G01X25036711Y11599781D01*
G01X25053983Y11605623D01*
G01X25065413Y11622641D01*
G01X25071001Y11651343D01*
G01X25071001Y11668361D01*
G01X25065413Y11697063D01*
G01X25053983Y11714081D01*
G01X25036711Y11719923D01*
G01X25025281Y11719923D01*
G01X25153043Y11719923D02*
G01X25136025Y11714081D01*
G01X25124595Y11697063D01*
G01X25118753Y11668361D01*
G01X25118753Y11651343D01*
G01X25124595Y11622641D01*
G01X25136025Y11605623D01*
G01X25153043Y11599781D01*
G01X25164473Y11599781D01*
G01X25181745Y11605623D01*
G01X25193175Y11622641D01*
G01X25198763Y11651343D01*
G01X25198763Y11668361D01*
G01X25193175Y11697063D01*
G01X25181745Y11714081D01*
G01X25164473Y11719923D01*
G01X25153043Y11719923D01*
G01X25246515Y11679791D02*
G01X25309507Y11599781D01*
G01X25309507Y11679791D02*
G01X25246515Y11599781D01*
G01X25357259Y11697063D02*
G01X25368689Y11702651D01*
G01X25385961Y11719923D01*
G01X25385961Y11599781D01*
G01X25439555Y11628483D02*
G01X25433713Y11622641D01*
G01X25439555Y11617053D01*
G01X25445143Y11622641D01*
G01X25439555Y11628483D01*
G01X25492895Y11697063D02*
G01X25504325Y11702651D01*
G01X25521597Y11719923D01*
G01X25521597Y11599781D01*
G01X25603639Y11719923D02*
G01X25586621Y11714081D01*
G01X25575191Y11697063D01*
G01X25569349Y11668361D01*
G01X25569349Y11651343D01*
G01X25575191Y11622641D01*
G01X25586621Y11605623D01*
G01X25603639Y11599781D01*
G01X25615069Y11599781D01*
G01X25632341Y11605623D01*
G01X25643771Y11622641D01*
G01X25649359Y11651343D01*
G01X25649359Y11668361D01*
G01X25643771Y11697063D01*
G01X25632341Y11714081D01*
G01X25615069Y11719923D01*
G01X25603639Y11719923D01*
G01X25731401Y11719923D02*
G01X25714383Y11714081D01*
G01X25702953Y11697063D01*
G01X25697111Y11668361D01*
G01X25697111Y11651343D01*
G01X25702953Y11622641D01*
G01X25714383Y11605623D01*
G01X25731401Y11599781D01*
G01X25742831Y11599781D01*
G01X25760103Y11605623D01*
G01X25771533Y11622641D01*
G01X25777121Y11651343D01*
G01X25777121Y11668361D01*
G01X25771533Y11697063D01*
G01X25760103Y11714081D01*
G01X25742831Y11719923D01*
G01X25731401Y11719923D01*
G01X25824873Y11679791D02*
G01X25824873Y11599781D01*
G01X25824873Y11656931D02*
G01X25842145Y11674203D01*
G01X25853575Y11679791D01*
G01X25870593Y11679791D01*
G01X25882023Y11674203D01*
G01X25887865Y11656931D01*
G01X25887865Y11599781D01*
G01X25887865Y11656931D02*
G01X25904883Y11674203D01*
G01X25916313Y11679791D01*
G01X25933585Y11679791D01*
G01X25945015Y11674203D01*
G01X25950603Y11656931D01*
G01X25950603Y11599781D01*
G01X25998355Y11679791D02*
G01X25998355Y11599781D01*
G01X25998355Y11656931D02*
G01X26015627Y11674203D01*
G01X26027057Y11679791D01*
G01X26044075Y11679791D01*
G01X26055505Y11674203D01*
G01X26061347Y11656931D01*
G01X26061347Y11599781D01*
G01X26061347Y11656931D02*
G01X26078365Y11674203D01*
G01X26089795Y11679791D01*
G01X26107067Y11679791D01*
G01X26118497Y11674203D01*
G01X26124085Y11656931D01*
G01X26124085Y11599781D01*
G01X26171837Y11742783D02*
G01X26183267Y11731353D01*
G01X26194697Y11714081D01*
G01X26206127Y11691221D01*
G01X26211969Y11662773D01*
G01X26211969Y11639913D01*
G01X26206127Y11611211D01*
G01X26194697Y11588351D01*
G01X26183267Y11571333D01*
G01X26171837Y11559903D01*
G01X27297203Y11719923D02*
G01X27297203Y11599781D01*
G01X27297203Y11719923D02*
G01X27348765Y11719923D01*
G01X27365783Y11714081D01*
G01X27371625Y11708493D01*
G01X27377213Y11697063D01*
G01X27377213Y11679791D01*
G01X27371625Y11668361D01*
G01X27365783Y11662773D01*
G01X27348765Y11656931D01*
G01X27297203Y11656931D01*
G01X27465097Y11719923D02*
G01X27465097Y11599781D01*
G01X27424965Y11719923D02*
G01X27504975Y11719923D01*
G01X27552727Y11719923D02*
G01X27552727Y11599781D01*
G01X27632737Y11719923D02*
G01X27632737Y11599781D01*
G01X27552727Y11662773D02*
G01X27632737Y11662773D01*
G01X28758610Y11719923D02*
G01X28758610Y11599781D01*
G01X28758610Y11719923D02*
G01X28810172Y11719923D01*
G01X28827190Y11714081D01*
G01X28833032Y11708493D01*
G01X28838620Y11697063D01*
G01X28838620Y11685633D01*
G01X28833032Y11674203D01*
G01X28827190Y11668361D01*
G01X28810172Y11662773D01*
G01X28758610Y11662773D01*
G01X28798742Y11662773D02*
G01X28838620Y11599781D01*
G01X28915074Y11679791D02*
G01X28903644Y11674203D01*
G01X28892214Y11662773D01*
G01X28886372Y11645501D01*
G01X28886372Y11634071D01*
G01X28892214Y11617053D01*
G01X28903644Y11605623D01*
G01X28915074Y11599781D01*
G01X28932092Y11599781D01*
G01X28943522Y11605623D01*
G01X28954952Y11617053D01*
G01X28960794Y11634071D01*
G01X28960794Y11645501D01*
G01X28954952Y11662773D01*
G01X28943522Y11674203D01*
G01X28932092Y11679791D01*
G01X28915074Y11679791D01*
G01X29008546Y11679791D02*
G01X29008546Y11622641D01*
G01X29014388Y11605623D01*
G01X29025818Y11599781D01*
G01X29042836Y11599781D01*
G01X29054266Y11605623D01*
G01X29071538Y11622641D01*
G01X29071538Y11679791D02*
G01X29071538Y11599781D01*
G01X29119290Y11679791D02*
G01X29119290Y11599781D01*
G01X29119290Y11656931D02*
G01X29136562Y11674203D01*
G01X29147992Y11679791D01*
G01X29165010Y11679791D01*
G01X29176440Y11674203D01*
G01X29182282Y11656931D01*
G01X29182282Y11599781D01*
G01X29298614Y11719923D02*
G01X29298614Y11599781D01*
G01X29298614Y11662773D02*
G01X29287184Y11674203D01*
G01X29275754Y11679791D01*
G01X29258736Y11679791D01*
G01X29247306Y11674203D01*
G01X29235876Y11662773D01*
G01X29230034Y11645501D01*
G01X29230034Y11634071D01*
G01X29235876Y11617053D01*
G01X29247306Y11605623D01*
G01X29258736Y11599781D01*
G01X29275754Y11599781D01*
G01X29287184Y11605623D01*
G01X29298614Y11617053D01*
G01X30189791Y11719923D02*
G01X30189791Y11599781D01*
G01X30189791Y11719923D02*
G01X30241353Y11719923D01*
G01X30258371Y11714081D01*
G01X30264213Y11708493D01*
G01X30269801Y11697063D01*
G01X30269801Y11679791D01*
G01X30264213Y11668361D01*
G01X30258371Y11662773D01*
G01X30241353Y11656931D01*
G01X30189791Y11656931D01*
G01X30386133Y11679791D02*
G01X30386133Y11599781D01*
G01X30386133Y11662773D02*
G01X30374703Y11674203D01*
G01X30363273Y11679791D01*
G01X30346255Y11679791D01*
G01X30334825Y11674203D01*
G01X30323395Y11662773D01*
G01X30317553Y11645501D01*
G01X30317553Y11634071D01*
G01X30323395Y11617053D01*
G01X30334825Y11605623D01*
G01X30346255Y11599781D01*
G01X30363273Y11599781D01*
G01X30374703Y11605623D01*
G01X30386133Y11617053D01*
G01X30502465Y11719923D02*
G01X30502465Y11599781D01*
G01X30502465Y11662773D02*
G01X30491035Y11674203D01*
G01X30479605Y11679791D01*
G01X30462587Y11679791D01*
G01X30451157Y11674203D01*
G01X30439727Y11662773D01*
G01X30433885Y11645501D01*
G01X30433885Y11634071D01*
G01X30439727Y11617053D01*
G01X30451157Y11605623D01*
G01X30462587Y11599781D01*
G01X30479605Y11599781D01*
G01X30491035Y11605623D01*
G01X30502465Y11617053D01*
G01X31858970Y11719923D02*
G01X31858970Y11599781D01*
G01X31858970Y11719923D02*
G01X31910532Y11719923D01*
G01X31927550Y11714081D01*
G01X31933392Y11708493D01*
G01X31938980Y11697063D01*
G01X31938980Y11685633D01*
G01X31933392Y11674203D01*
G01X31927550Y11668361D01*
G01X31910532Y11662773D01*
G01X31858970Y11662773D01*
G01X31899102Y11662773D02*
G01X31938980Y11599781D01*
G01X31986732Y11645501D02*
G01X32055312Y11645501D01*
G01X32055312Y11656931D01*
G01X32049724Y11668361D01*
G01X32043882Y11674203D01*
G01X32032452Y11679791D01*
G01X32015434Y11679791D01*
G01X32004004Y11674203D01*
G01X31992574Y11662773D01*
G01X31986732Y11645501D01*
G01X31986732Y11634071D01*
G01X31992574Y11617053D01*
G01X32004004Y11605623D01*
G01X32015434Y11599781D01*
G01X32032452Y11599781D01*
G01X32043882Y11605623D01*
G01X32055312Y11617053D01*
G01X32171644Y11662773D02*
G01X32160214Y11674203D01*
G01X32148784Y11679791D01*
G01X32131766Y11679791D01*
G01X32120336Y11674203D01*
G01X32108906Y11662773D01*
G01X32103064Y11645501D01*
G01X32103064Y11634071D01*
G01X32108906Y11617053D01*
G01X32120336Y11605623D01*
G01X32131766Y11599781D01*
G01X32148784Y11599781D01*
G01X32160214Y11605623D01*
G01X32171644Y11617053D01*
G01X32236668Y11719923D02*
G01X32236668Y11622641D01*
G01X32242256Y11605623D01*
G01X32253686Y11599781D01*
G01X32265116Y11599781D01*
G01X32219396Y11679791D02*
G01X32259528Y11679791D01*
G01X32381448Y11679791D02*
G01X32381448Y11599781D01*
G01X32381448Y11662773D02*
G01X32370018Y11674203D01*
G01X32358588Y11679791D01*
G01X32341570Y11679791D01*
G01X32330140Y11674203D01*
G01X32318710Y11662773D01*
G01X32312868Y11645501D01*
G01X32312868Y11634071D01*
G01X32318710Y11617053D01*
G01X32330140Y11605623D01*
G01X32341570Y11599781D01*
G01X32358588Y11599781D01*
G01X32370018Y11605623D01*
G01X32381448Y11617053D01*
G01X32429200Y11679791D02*
G01X32429200Y11599781D01*
G01X32429200Y11656931D02*
G01X32446472Y11674203D01*
G01X32457902Y11679791D01*
G01X32474920Y11679791D01*
G01X32486350Y11674203D01*
G01X32492192Y11656931D01*
G01X32492192Y11599781D01*
G01X32608524Y11679791D02*
G01X32608524Y11588351D01*
G01X32602936Y11571333D01*
G01X32597094Y11565491D01*
G01X32585664Y11559903D01*
G01X32568646Y11559903D01*
G01X32557216Y11565491D01*
G01X32608524Y11662773D02*
G01X32597094Y11674203D01*
G01X32585664Y11679791D01*
G01X32568646Y11679791D01*
G01X32557216Y11674203D01*
G01X32545786Y11662773D01*
G01X32539944Y11645501D01*
G01X32539944Y11634071D01*
G01X32545786Y11617053D01*
G01X32557216Y11605623D01*
G01X32568646Y11599781D01*
G01X32585664Y11599781D01*
G01X32597094Y11605623D01*
G01X32608524Y11617053D01*
G01X32656276Y11719923D02*
G01X32656276Y11599781D01*
G01X32704028Y11645501D02*
G01X32772608Y11645501D01*
G01X32772608Y11656931D01*
G01X32767020Y11668361D01*
G01X32761178Y11674203D01*
G01X32749748Y11679791D01*
G01X32732730Y11679791D01*
G01X32721300Y11674203D01*
G01X32709870Y11662773D01*
G01X32704028Y11645501D01*
G01X32704028Y11634071D01*
G01X32709870Y11617053D01*
G01X32721300Y11605623D01*
G01X32732730Y11599781D01*
G01X32749748Y11599781D01*
G01X32761178Y11605623D01*
G01X32772608Y11617053D01*
G01X33818471Y11719923D02*
G01X33818471Y11599781D01*
G01X33778339Y11719923D02*
G01X33858349Y11719923D01*
G01X33934803Y11679791D02*
G01X33923373Y11674203D01*
G01X33911943Y11662773D01*
G01X33906101Y11645501D01*
G01X33906101Y11634071D01*
G01X33911943Y11617053D01*
G01X33923373Y11605623D01*
G01X33934803Y11599781D01*
G01X33951821Y11599781D01*
G01X33963251Y11605623D01*
G01X33974681Y11617053D01*
G01X33980523Y11634071D01*
G01X33980523Y11645501D01*
G01X33974681Y11662773D01*
G01X33963251Y11674203D01*
G01X33951821Y11679791D01*
G01X33934803Y11679791D01*
G01X34028275Y11679791D02*
G01X34028275Y11559903D01*
G01X34028275Y11662773D02*
G01X34039705Y11674203D01*
G01X34051135Y11679791D01*
G01X34068407Y11679791D01*
G01X34079837Y11674203D01*
G01X34091267Y11662773D01*
G01X34096855Y11645501D01*
G01X34096855Y11634071D01*
G01X34091267Y11617053D01*
G01X34079837Y11605623D01*
G01X34068407Y11599781D01*
G01X34051135Y11599781D01*
G01X34039705Y11605623D01*
G01X34028275Y11617053D01*
G01X34272623Y11719923D02*
G01X34272623Y11599781D01*
G01X34272623Y11599781D02*
G01X34341203Y11599781D01*
G01X34457535Y11679791D02*
G01X34457535Y11599781D01*
G01X34457535Y11662773D02*
G01X34446105Y11674203D01*
G01X34434675Y11679791D01*
G01X34417657Y11679791D01*
G01X34406227Y11674203D01*
G01X34394797Y11662773D01*
G01X34388955Y11645501D01*
G01X34388955Y11634071D01*
G01X34394797Y11617053D01*
G01X34406227Y11605623D01*
G01X34417657Y11599781D01*
G01X34434675Y11599781D01*
G01X34446105Y11605623D01*
G01X34457535Y11617053D01*
G01X34511129Y11679791D02*
G01X34545419Y11599781D01*
G01X34579709Y11679791D02*
G01X34545419Y11599781D01*
G01X34533989Y11576921D01*
G01X34522559Y11565491D01*
G01X34511129Y11559903D01*
G01X34505287Y11559903D01*
G01X34627461Y11645501D02*
G01X34696041Y11645501D01*
G01X34696041Y11656931D01*
G01X34690453Y11668361D01*
G01X34684611Y11674203D01*
G01X34673181Y11679791D01*
G01X34656163Y11679791D01*
G01X34644733Y11674203D01*
G01X34633303Y11662773D01*
G01X34627461Y11645501D01*
G01X34627461Y11634071D01*
G01X34633303Y11617053D01*
G01X34644733Y11605623D01*
G01X34656163Y11599781D01*
G01X34673181Y11599781D01*
G01X34684611Y11605623D01*
G01X34696041Y11617053D01*
G01X34743793Y11679791D02*
G01X34743793Y11599781D01*
G01X34743793Y11645501D02*
G01X34749635Y11662773D01*
G01X34761065Y11674203D01*
G01X34772495Y11679791D01*
G01X34789513Y11679791D01*
G01X34837265Y11651343D02*
G01X34940135Y11651343D01*
G01X34987887Y11719923D02*
G01X34987887Y11599781D01*
G01X34987887Y11719923D02*
G01X35039449Y11719923D01*
G01X35056467Y11714081D01*
G01X35062309Y11708493D01*
G01X35067897Y11697063D01*
G01X35067897Y11685633D01*
G01X35062309Y11674203D01*
G01X35056467Y11668361D01*
G01X35039449Y11662773D01*
G01X34987887Y11662773D02*
G01X35039449Y11662773D01*
G01X35056467Y11656931D01*
G01X35062309Y11651343D01*
G01X35067897Y11639913D01*
G01X35067897Y11622641D01*
G01X35062309Y11611211D01*
G01X35056467Y11605623D01*
G01X35039449Y11599781D01*
G01X34987887Y11599781D01*
G01X35144351Y11679791D02*
G01X35132921Y11674203D01*
G01X35121491Y11662773D01*
G01X35115649Y11645501D01*
G01X35115649Y11634071D01*
G01X35121491Y11617053D01*
G01X35132921Y11605623D01*
G01X35144351Y11599781D01*
G01X35161369Y11599781D01*
G01X35172799Y11605623D01*
G01X35184229Y11617053D01*
G01X35190071Y11634071D01*
G01X35190071Y11645501D01*
G01X35184229Y11662773D01*
G01X35172799Y11674203D01*
G01X35161369Y11679791D01*
G01X35144351Y11679791D01*
G01X35255095Y11719923D02*
G01X35255095Y11622641D01*
G01X35260683Y11605623D01*
G01X35272113Y11599781D01*
G01X35283543Y11599781D01*
G01X35237823Y11679791D02*
G01X35277955Y11679791D01*
G01X35348567Y11719923D02*
G01X35348567Y11622641D01*
G01X35354155Y11605623D01*
G01X35365585Y11599781D01*
G01X35377015Y11599781D01*
G01X35331295Y11679791D02*
G01X35371427Y11679791D01*
G01X35453469Y11679791D02*
G01X35442039Y11674203D01*
G01X35430609Y11662773D01*
G01X35424767Y11645501D01*
G01X35424767Y11634071D01*
G01X35430609Y11617053D01*
G01X35442039Y11605623D01*
G01X35453469Y11599781D01*
G01X35470487Y11599781D01*
G01X35481917Y11605623D01*
G01X35493347Y11617053D01*
G01X35499189Y11634071D01*
G01X35499189Y11645501D01*
G01X35493347Y11662773D01*
G01X35481917Y11674203D01*
G01X35470487Y11679791D01*
G01X35453469Y11679791D01*
G01X35546941Y11679791D02*
G01X35546941Y11599781D01*
G01X35546941Y11656931D02*
G01X35564213Y11674203D01*
G01X35575643Y11679791D01*
G01X35592661Y11679791D01*
G01X35604091Y11674203D01*
G01X35609933Y11656931D01*
G01X35609933Y11599781D01*
G01X35609933Y11656931D02*
G01X35626951Y11674203D01*
G01X35638381Y11679791D01*
G01X35655653Y11679791D01*
G01X35667083Y11674203D01*
G01X35672671Y11656931D01*
G01X35672671Y11599781D01*
G01X35848439Y11719923D02*
G01X35848439Y11599781D01*
G01X35848439Y11599781D02*
G01X35917019Y11599781D01*
G01X36033351Y11679791D02*
G01X36033351Y11599781D01*
G01X36033351Y11662773D02*
G01X36021921Y11674203D01*
G01X36010491Y11679791D01*
G01X35993473Y11679791D01*
G01X35982043Y11674203D01*
G01X35970613Y11662773D01*
G01X35964771Y11645501D01*
G01X35964771Y11634071D01*
G01X35970613Y11617053D01*
G01X35982043Y11605623D01*
G01X35993473Y11599781D01*
G01X36010491Y11599781D01*
G01X36021921Y11605623D01*
G01X36033351Y11617053D01*
G01X36086945Y11679791D02*
G01X36121235Y11599781D01*
G01X36155525Y11679791D02*
G01X36121235Y11599781D01*
G01X36109805Y11576921D01*
G01X36098375Y11565491D01*
G01X36086945Y11559903D01*
G01X36081103Y11559903D01*
G01X36203277Y11645501D02*
G01X36271857Y11645501D01*
G01X36271857Y11656931D01*
G01X36266269Y11668361D01*
G01X36260427Y11674203D01*
G01X36248997Y11679791D01*
G01X36231979Y11679791D01*
G01X36220549Y11674203D01*
G01X36209119Y11662773D01*
G01X36203277Y11645501D01*
G01X36203277Y11634071D01*
G01X36209119Y11617053D01*
G01X36220549Y11605623D01*
G01X36231979Y11599781D01*
G01X36248997Y11599781D01*
G01X36260427Y11605623D01*
G01X36271857Y11617053D01*
G01X36319609Y11679791D02*
G01X36319609Y11599781D01*
G01X36319609Y11645501D02*
G01X36325451Y11662773D01*
G01X36336881Y11674203D01*
G01X36348311Y11679791D01*
G01X36365329Y11679791D01*
G01X21994916Y11110649D02*
G01X21994916Y11116491D01*
G01X22000504Y11127921D01*
G01X22006346Y11133509D01*
G01X22017776Y11139351D01*
G01X22040636Y11139351D01*
G01X22052066Y11133509D01*
G01X22057654Y11127921D01*
G01X22063496Y11116491D01*
G01X22063496Y11105061D01*
G01X22057654Y11093631D01*
G01X22046224Y11076359D01*
G01X21989074Y11019209D01*
G01X22069084Y11019209D01*
G01X23409079Y11110649D02*
G01X23409079Y11116491D01*
G01X23414667Y11127921D01*
G01X23420509Y11133509D01*
G01X23431939Y11139351D01*
G01X23454799Y11139351D01*
G01X23466229Y11133509D01*
G01X23471817Y11127921D01*
G01X23477659Y11116491D01*
G01X23477659Y11105061D01*
G01X23471817Y11093631D01*
G01X23460387Y11076359D01*
G01X23403237Y11019209D01*
G01X23483247Y11019209D01*
G01X23611009Y11139351D02*
G01X23553859Y11019209D01*
G01X23530999Y11139351D02*
G01X23611009Y11139351D01*
G01X23664603Y11047911D02*
G01X23658761Y11042069D01*
G01X23664603Y11036481D01*
G01X23670191Y11042069D01*
G01X23664603Y11047911D01*
G01X23786523Y11122079D02*
G01X23780935Y11133509D01*
G01X23763663Y11139351D01*
G01X23752233Y11139351D01*
G01X23735215Y11133509D01*
G01X23723785Y11116491D01*
G01X23717943Y11087789D01*
G01X23717943Y11059341D01*
G01X23723785Y11036481D01*
G01X23735215Y11025051D01*
G01X23752233Y11019209D01*
G01X23758075Y11019209D01*
G01X23775093Y11025051D01*
G01X23786523Y11036481D01*
G01X23792365Y11053499D01*
G01X23792365Y11059341D01*
G01X23786523Y11076359D01*
G01X23775093Y11087789D01*
G01X23758075Y11093631D01*
G01X23752233Y11093631D01*
G01X23735215Y11087789D01*
G01X23723785Y11076359D01*
G01X23717943Y11059341D01*
G01X23840117Y11099219D02*
G01X23903109Y11019209D01*
G01X23903109Y11099219D02*
G01X23840117Y11019209D01*
G01X23956703Y11110649D02*
G01X23956703Y11116491D01*
G01X23962291Y11127921D01*
G01X23968133Y11133509D01*
G01X23979563Y11139351D01*
G01X24002423Y11139351D01*
G01X24013853Y11133509D01*
G01X24019441Y11127921D01*
G01X24025283Y11116491D01*
G01X24025283Y11105061D01*
G01X24019441Y11093631D01*
G01X24008011Y11076359D01*
G01X23950861Y11019209D01*
G01X24030871Y11019209D01*
G01X24158633Y11139351D02*
G01X24101483Y11019209D01*
G01X24078623Y11139351D02*
G01X24158633Y11139351D01*
G01X24212227Y11047911D02*
G01X24206385Y11042069D01*
G01X24212227Y11036481D01*
G01X24217815Y11042069D01*
G01X24212227Y11047911D01*
G01X24334147Y11122079D02*
G01X24328559Y11133509D01*
G01X24311287Y11139351D01*
G01X24299857Y11139351D01*
G01X24282839Y11133509D01*
G01X24271409Y11116491D01*
G01X24265567Y11087789D01*
G01X24265567Y11059341D01*
G01X24271409Y11036481D01*
G01X24282839Y11025051D01*
G01X24299857Y11019209D01*
G01X24305699Y11019209D01*
G01X24322717Y11025051D01*
G01X24334147Y11036481D01*
G01X24339989Y11053499D01*
G01X24339989Y11059341D01*
G01X24334147Y11076359D01*
G01X24322717Y11087789D01*
G01X24305699Y11093631D01*
G01X24299857Y11093631D01*
G01X24282839Y11087789D01*
G01X24271409Y11076359D01*
G01X24265567Y11059341D01*
G01X24387741Y11099219D02*
G01X24387741Y11019209D01*
G01X24387741Y11076359D02*
G01X24405013Y11093631D01*
G01X24416443Y11099219D01*
G01X24433461Y11099219D01*
G01X24444891Y11093631D01*
G01X24450733Y11076359D01*
G01X24450733Y11019209D01*
G01X24450733Y11076359D02*
G01X24467751Y11093631D01*
G01X24479181Y11099219D01*
G01X24496453Y11099219D01*
G01X24507883Y11093631D01*
G01X24513471Y11076359D01*
G01X24513471Y11019209D01*
G01X24561223Y11139351D02*
G01X24567065Y11133509D01*
G01X24572653Y11139351D01*
G01X24567065Y11144939D01*
G01X24561223Y11139351D01*
G01X24567065Y11099219D02*
G01X24567065Y11019209D01*
G01X24620405Y11139351D02*
G01X24620405Y11019209D01*
G01X24708289Y11162211D02*
G01X24696859Y11150781D01*
G01X24685429Y11133509D01*
G01X24673999Y11110649D01*
G01X24668157Y11082201D01*
G01X24668157Y11059341D01*
G01X24673999Y11030639D01*
G01X24685429Y11007779D01*
G01X24696859Y10990761D01*
G01X24708289Y10979331D01*
G01X24790331Y11139351D02*
G01X24773313Y11133509D01*
G01X24761883Y11116491D01*
G01X24756041Y11087789D01*
G01X24756041Y11070771D01*
G01X24761883Y11042069D01*
G01X24773313Y11025051D01*
G01X24790331Y11019209D01*
G01X24801761Y11019209D01*
G01X24819033Y11025051D01*
G01X24830463Y11042069D01*
G01X24836051Y11070771D01*
G01X24836051Y11087789D01*
G01X24830463Y11116491D01*
G01X24819033Y11133509D01*
G01X24801761Y11139351D01*
G01X24790331Y11139351D01*
G01X24889645Y11047911D02*
G01X24883803Y11042069D01*
G01X24889645Y11036481D01*
G01X24895233Y11042069D01*
G01X24889645Y11047911D01*
G01X25022995Y11139351D02*
G01X24965845Y11019209D01*
G01X24942985Y11139351D02*
G01X25022995Y11139351D01*
G01X25105037Y11139351D02*
G01X25088019Y11133509D01*
G01X25076589Y11116491D01*
G01X25070747Y11087789D01*
G01X25070747Y11070771D01*
G01X25076589Y11042069D01*
G01X25088019Y11025051D01*
G01X25105037Y11019209D01*
G01X25116467Y11019209D01*
G01X25133739Y11025051D01*
G01X25145169Y11042069D01*
G01X25150757Y11070771D01*
G01X25150757Y11087789D01*
G01X25145169Y11116491D01*
G01X25133739Y11133509D01*
G01X25116467Y11139351D01*
G01X25105037Y11139351D01*
G01X25232799Y11139351D02*
G01X25215781Y11133509D01*
G01X25204351Y11116491D01*
G01X25198509Y11087789D01*
G01X25198509Y11070771D01*
G01X25204351Y11042069D01*
G01X25215781Y11025051D01*
G01X25232799Y11019209D01*
G01X25244229Y11019209D01*
G01X25261501Y11025051D01*
G01X25272931Y11042069D01*
G01X25278519Y11070771D01*
G01X25278519Y11087789D01*
G01X25272931Y11116491D01*
G01X25261501Y11133509D01*
G01X25244229Y11139351D01*
G01X25232799Y11139351D01*
G01X25326271Y11099219D02*
G01X25389263Y11019209D01*
G01X25389263Y11099219D02*
G01X25326271Y11019209D01*
G01X25471305Y11139351D02*
G01X25454287Y11133509D01*
G01X25442857Y11116491D01*
G01X25437015Y11087789D01*
G01X25437015Y11070771D01*
G01X25442857Y11042069D01*
G01X25454287Y11025051D01*
G01X25471305Y11019209D01*
G01X25482735Y11019209D01*
G01X25500007Y11025051D01*
G01X25511437Y11042069D01*
G01X25517025Y11070771D01*
G01X25517025Y11087789D01*
G01X25511437Y11116491D01*
G01X25500007Y11133509D01*
G01X25482735Y11139351D01*
G01X25471305Y11139351D01*
G01X25570619Y11047911D02*
G01X25564777Y11042069D01*
G01X25570619Y11036481D01*
G01X25576207Y11042069D01*
G01X25570619Y11047911D01*
G01X25703969Y11139351D02*
G01X25646819Y11019209D01*
G01X25623959Y11139351D02*
G01X25703969Y11139351D01*
G01X25786011Y11139351D02*
G01X25768993Y11133509D01*
G01X25757563Y11116491D01*
G01X25751721Y11087789D01*
G01X25751721Y11070771D01*
G01X25757563Y11042069D01*
G01X25768993Y11025051D01*
G01X25786011Y11019209D01*
G01X25797441Y11019209D01*
G01X25814713Y11025051D01*
G01X25826143Y11042069D01*
G01X25831731Y11070771D01*
G01X25831731Y11087789D01*
G01X25826143Y11116491D01*
G01X25814713Y11133509D01*
G01X25797441Y11139351D01*
G01X25786011Y11139351D01*
G01X25913773Y11139351D02*
G01X25896755Y11133509D01*
G01X25885325Y11116491D01*
G01X25879483Y11087789D01*
G01X25879483Y11070771D01*
G01X25885325Y11042069D01*
G01X25896755Y11025051D01*
G01X25913773Y11019209D01*
G01X25925203Y11019209D01*
G01X25942475Y11025051D01*
G01X25953905Y11042069D01*
G01X25959493Y11070771D01*
G01X25959493Y11087789D01*
G01X25953905Y11116491D01*
G01X25942475Y11133509D01*
G01X25925203Y11139351D01*
G01X25913773Y11139351D01*
G01X26007245Y11099219D02*
G01X26007245Y11019209D01*
G01X26007245Y11076359D02*
G01X26024517Y11093631D01*
G01X26035947Y11099219D01*
G01X26052965Y11099219D01*
G01X26064395Y11093631D01*
G01X26070237Y11076359D01*
G01X26070237Y11019209D01*
G01X26070237Y11076359D02*
G01X26087255Y11093631D01*
G01X26098685Y11099219D01*
G01X26115957Y11099219D01*
G01X26127387Y11093631D01*
G01X26132975Y11076359D01*
G01X26132975Y11019209D01*
G01X26180727Y11099219D02*
G01X26180727Y11019209D01*
G01X26180727Y11076359D02*
G01X26197999Y11093631D01*
G01X26209429Y11099219D01*
G01X26226447Y11099219D01*
G01X26237877Y11093631D01*
G01X26243719Y11076359D01*
G01X26243719Y11019209D01*
G01X26243719Y11076359D02*
G01X26260737Y11093631D01*
G01X26272167Y11099219D01*
G01X26289439Y11099219D01*
G01X26300869Y11093631D01*
G01X26306457Y11076359D01*
G01X26306457Y11019209D01*
G01X26354209Y11162211D02*
G01X26365639Y11150781D01*
G01X26377069Y11133509D01*
G01X26388499Y11110649D01*
G01X26394341Y11082201D01*
G01X26394341Y11059341D01*
G01X26388499Y11030639D01*
G01X26377069Y11007779D01*
G01X26365639Y10990761D01*
G01X26354209Y10979331D01*
G01X27297203Y11139351D02*
G01X27297203Y11019209D01*
G01X27297203Y11139351D02*
G01X27348765Y11139351D01*
G01X27365783Y11133509D01*
G01X27371625Y11127921D01*
G01X27377213Y11116491D01*
G01X27377213Y11099219D01*
G01X27371625Y11087789D01*
G01X27365783Y11082201D01*
G01X27348765Y11076359D01*
G01X27297203Y11076359D01*
G01X27465097Y11139351D02*
G01X27465097Y11019209D01*
G01X27424965Y11139351D02*
G01X27504975Y11139351D01*
G01X27552727Y11139351D02*
G01X27552727Y11019209D01*
G01X27632737Y11139351D02*
G01X27632737Y11019209D01*
G01X27552727Y11082201D02*
G01X27632737Y11082201D01*
G01X28758610Y11139351D02*
G01X28758610Y11019209D01*
G01X28758610Y11139351D02*
G01X28810172Y11139351D01*
G01X28827190Y11133509D01*
G01X28833032Y11127921D01*
G01X28838620Y11116491D01*
G01X28838620Y11105061D01*
G01X28833032Y11093631D01*
G01X28827190Y11087789D01*
G01X28810172Y11082201D01*
G01X28758610Y11082201D01*
G01X28798742Y11082201D02*
G01X28838620Y11019209D01*
G01X28915074Y11099219D02*
G01X28903644Y11093631D01*
G01X28892214Y11082201D01*
G01X28886372Y11064929D01*
G01X28886372Y11053499D01*
G01X28892214Y11036481D01*
G01X28903644Y11025051D01*
G01X28915074Y11019209D01*
G01X28932092Y11019209D01*
G01X28943522Y11025051D01*
G01X28954952Y11036481D01*
G01X28960794Y11053499D01*
G01X28960794Y11064929D01*
G01X28954952Y11082201D01*
G01X28943522Y11093631D01*
G01X28932092Y11099219D01*
G01X28915074Y11099219D01*
G01X29008546Y11099219D02*
G01X29008546Y11042069D01*
G01X29014388Y11025051D01*
G01X29025818Y11019209D01*
G01X29042836Y11019209D01*
G01X29054266Y11025051D01*
G01X29071538Y11042069D01*
G01X29071538Y11099219D02*
G01X29071538Y11019209D01*
G01X29119290Y11099219D02*
G01X29119290Y11019209D01*
G01X29119290Y11076359D02*
G01X29136562Y11093631D01*
G01X29147992Y11099219D01*
G01X29165010Y11099219D01*
G01X29176440Y11093631D01*
G01X29182282Y11076359D01*
G01X29182282Y11019209D01*
G01X29298614Y11139351D02*
G01X29298614Y11019209D01*
G01X29298614Y11082201D02*
G01X29287184Y11093631D01*
G01X29275754Y11099219D01*
G01X29258736Y11099219D01*
G01X29247306Y11093631D01*
G01X29235876Y11082201D01*
G01X29230034Y11064929D01*
G01X29230034Y11053499D01*
G01X29235876Y11036481D01*
G01X29247306Y11025051D01*
G01X29258736Y11019209D01*
G01X29275754Y11019209D01*
G01X29287184Y11025051D01*
G01X29298614Y11036481D01*
G01X30189791Y11139351D02*
G01X30189791Y11019209D01*
G01X30189791Y11139351D02*
G01X30241353Y11139351D01*
G01X30258371Y11133509D01*
G01X30264213Y11127921D01*
G01X30269801Y11116491D01*
G01X30269801Y11099219D01*
G01X30264213Y11087789D01*
G01X30258371Y11082201D01*
G01X30241353Y11076359D01*
G01X30189791Y11076359D01*
G01X30386133Y11099219D02*
G01X30386133Y11019209D01*
G01X30386133Y11082201D02*
G01X30374703Y11093631D01*
G01X30363273Y11099219D01*
G01X30346255Y11099219D01*
G01X30334825Y11093631D01*
G01X30323395Y11082201D01*
G01X30317553Y11064929D01*
G01X30317553Y11053499D01*
G01X30323395Y11036481D01*
G01X30334825Y11025051D01*
G01X30346255Y11019209D01*
G01X30363273Y11019209D01*
G01X30374703Y11025051D01*
G01X30386133Y11036481D01*
G01X30502465Y11139351D02*
G01X30502465Y11019209D01*
G01X30502465Y11082201D02*
G01X30491035Y11093631D01*
G01X30479605Y11099219D01*
G01X30462587Y11099219D01*
G01X30451157Y11093631D01*
G01X30439727Y11082201D01*
G01X30433885Y11064929D01*
G01X30433885Y11053499D01*
G01X30439727Y11036481D01*
G01X30451157Y11025051D01*
G01X30462587Y11019209D01*
G01X30479605Y11019209D01*
G01X30491035Y11025051D01*
G01X30502465Y11036481D01*
G01X31858970Y11139351D02*
G01X31858970Y11019209D01*
G01X31858970Y11139351D02*
G01X31910532Y11139351D01*
G01X31927550Y11133509D01*
G01X31933392Y11127921D01*
G01X31938980Y11116491D01*
G01X31938980Y11105061D01*
G01X31933392Y11093631D01*
G01X31927550Y11087789D01*
G01X31910532Y11082201D01*
G01X31858970Y11082201D01*
G01X31899102Y11082201D02*
G01X31938980Y11019209D01*
G01X32015434Y11099219D02*
G01X32004004Y11093631D01*
G01X31992574Y11082201D01*
G01X31986732Y11064929D01*
G01X31986732Y11053499D01*
G01X31992574Y11036481D01*
G01X32004004Y11025051D01*
G01X32015434Y11019209D01*
G01X32032452Y11019209D01*
G01X32043882Y11025051D01*
G01X32055312Y11036481D01*
G01X32061154Y11053499D01*
G01X32061154Y11064929D01*
G01X32055312Y11082201D01*
G01X32043882Y11093631D01*
G01X32032452Y11099219D01*
G01X32015434Y11099219D01*
G01X32108906Y11099219D02*
G01X32108906Y11042069D01*
G01X32114748Y11025051D01*
G01X32126178Y11019209D01*
G01X32143196Y11019209D01*
G01X32154626Y11025051D01*
G01X32171898Y11042069D01*
G01X32171898Y11099219D02*
G01X32171898Y11019209D01*
G01X32219650Y11099219D02*
G01X32219650Y11019209D01*
G01X32219650Y11076359D02*
G01X32236922Y11093631D01*
G01X32248352Y11099219D01*
G01X32265370Y11099219D01*
G01X32276800Y11093631D01*
G01X32282642Y11076359D01*
G01X32282642Y11019209D01*
G01X32398974Y11139351D02*
G01X32398974Y11019209D01*
G01X32398974Y11082201D02*
G01X32387544Y11093631D01*
G01X32376114Y11099219D01*
G01X32359096Y11099219D01*
G01X32347666Y11093631D01*
G01X32336236Y11082201D01*
G01X32330394Y11064929D01*
G01X32330394Y11053499D01*
G01X32336236Y11036481D01*
G01X32347666Y11025051D01*
G01X32359096Y11019209D01*
G01X32376114Y11019209D01*
G01X32387544Y11025051D01*
G01X32398974Y11036481D01*
G01X33818471Y11139351D02*
G01X33818471Y11019209D01*
G01X33778339Y11139351D02*
G01X33858349Y11139351D01*
G01X33934803Y11099219D02*
G01X33923373Y11093631D01*
G01X33911943Y11082201D01*
G01X33906101Y11064929D01*
G01X33906101Y11053499D01*
G01X33911943Y11036481D01*
G01X33923373Y11025051D01*
G01X33934803Y11019209D01*
G01X33951821Y11019209D01*
G01X33963251Y11025051D01*
G01X33974681Y11036481D01*
G01X33980523Y11053499D01*
G01X33980523Y11064929D01*
G01X33974681Y11082201D01*
G01X33963251Y11093631D01*
G01X33951821Y11099219D01*
G01X33934803Y11099219D01*
G01X34028275Y11099219D02*
G01X34028275Y10979331D01*
G01X34028275Y11082201D02*
G01X34039705Y11093631D01*
G01X34051135Y11099219D01*
G01X34068407Y11099219D01*
G01X34079837Y11093631D01*
G01X34091267Y11082201D01*
G01X34096855Y11064929D01*
G01X34096855Y11053499D01*
G01X34091267Y11036481D01*
G01X34079837Y11025051D01*
G01X34068407Y11019209D01*
G01X34051135Y11019209D01*
G01X34039705Y11025051D01*
G01X34028275Y11036481D01*
G01X34272623Y11139351D02*
G01X34272623Y11019209D01*
G01X34272623Y11019209D02*
G01X34341203Y11019209D01*
G01X34457535Y11099219D02*
G01X34457535Y11019209D01*
G01X34457535Y11082201D02*
G01X34446105Y11093631D01*
G01X34434675Y11099219D01*
G01X34417657Y11099219D01*
G01X34406227Y11093631D01*
G01X34394797Y11082201D01*
G01X34388955Y11064929D01*
G01X34388955Y11053499D01*
G01X34394797Y11036481D01*
G01X34406227Y11025051D01*
G01X34417657Y11019209D01*
G01X34434675Y11019209D01*
G01X34446105Y11025051D01*
G01X34457535Y11036481D01*
G01X34511129Y11099219D02*
G01X34545419Y11019209D01*
G01X34579709Y11099219D02*
G01X34545419Y11019209D01*
G01X34533989Y10996349D01*
G01X34522559Y10984919D01*
G01X34511129Y10979331D01*
G01X34505287Y10979331D01*
G01X34627461Y11064929D02*
G01X34696041Y11064929D01*
G01X34696041Y11076359D01*
G01X34690453Y11087789D01*
G01X34684611Y11093631D01*
G01X34673181Y11099219D01*
G01X34656163Y11099219D01*
G01X34644733Y11093631D01*
G01X34633303Y11082201D01*
G01X34627461Y11064929D01*
G01X34627461Y11053499D01*
G01X34633303Y11036481D01*
G01X34644733Y11025051D01*
G01X34656163Y11019209D01*
G01X34673181Y11019209D01*
G01X34684611Y11025051D01*
G01X34696041Y11036481D01*
G01X34743793Y11099219D02*
G01X34743793Y11019209D01*
G01X34743793Y11064929D02*
G01X34749635Y11082201D01*
G01X34761065Y11093631D01*
G01X34772495Y11099219D01*
G01X34789513Y11099219D01*
G01X34837265Y11070771D02*
G01X34940135Y11070771D01*
G01X34987887Y11139351D02*
G01X34987887Y11019209D01*
G01X34987887Y11139351D02*
G01X35039449Y11139351D01*
G01X35056467Y11133509D01*
G01X35062309Y11127921D01*
G01X35067897Y11116491D01*
G01X35067897Y11105061D01*
G01X35062309Y11093631D01*
G01X35056467Y11087789D01*
G01X35039449Y11082201D01*
G01X34987887Y11082201D02*
G01X35039449Y11082201D01*
G01X35056467Y11076359D01*
G01X35062309Y11070771D01*
G01X35067897Y11059341D01*
G01X35067897Y11042069D01*
G01X35062309Y11030639D01*
G01X35056467Y11025051D01*
G01X35039449Y11019209D01*
G01X34987887Y11019209D01*
G01X35144351Y11099219D02*
G01X35132921Y11093631D01*
G01X35121491Y11082201D01*
G01X35115649Y11064929D01*
G01X35115649Y11053499D01*
G01X35121491Y11036481D01*
G01X35132921Y11025051D01*
G01X35144351Y11019209D01*
G01X35161369Y11019209D01*
G01X35172799Y11025051D01*
G01X35184229Y11036481D01*
G01X35190071Y11053499D01*
G01X35190071Y11064929D01*
G01X35184229Y11082201D01*
G01X35172799Y11093631D01*
G01X35161369Y11099219D01*
G01X35144351Y11099219D01*
G01X35255095Y11139351D02*
G01X35255095Y11042069D01*
G01X35260683Y11025051D01*
G01X35272113Y11019209D01*
G01X35283543Y11019209D01*
G01X35237823Y11099219D02*
G01X35277955Y11099219D01*
G01X35348567Y11139351D02*
G01X35348567Y11042069D01*
G01X35354155Y11025051D01*
G01X35365585Y11019209D01*
G01X35377015Y11019209D01*
G01X35331295Y11099219D02*
G01X35371427Y11099219D01*
G01X35453469Y11099219D02*
G01X35442039Y11093631D01*
G01X35430609Y11082201D01*
G01X35424767Y11064929D01*
G01X35424767Y11053499D01*
G01X35430609Y11036481D01*
G01X35442039Y11025051D01*
G01X35453469Y11019209D01*
G01X35470487Y11019209D01*
G01X35481917Y11025051D01*
G01X35493347Y11036481D01*
G01X35499189Y11053499D01*
G01X35499189Y11064929D01*
G01X35493347Y11082201D01*
G01X35481917Y11093631D01*
G01X35470487Y11099219D01*
G01X35453469Y11099219D01*
G01X35546941Y11099219D02*
G01X35546941Y11019209D01*
G01X35546941Y11076359D02*
G01X35564213Y11093631D01*
G01X35575643Y11099219D01*
G01X35592661Y11099219D01*
G01X35604091Y11093631D01*
G01X35609933Y11076359D01*
G01X35609933Y11019209D01*
G01X35609933Y11076359D02*
G01X35626951Y11093631D01*
G01X35638381Y11099219D01*
G01X35655653Y11099219D01*
G01X35667083Y11093631D01*
G01X35672671Y11076359D01*
G01X35672671Y11019209D01*
G01X35848439Y11139351D02*
G01X35848439Y11019209D01*
G01X35848439Y11019209D02*
G01X35917019Y11019209D01*
G01X36033351Y11099219D02*
G01X36033351Y11019209D01*
G01X36033351Y11082201D02*
G01X36021921Y11093631D01*
G01X36010491Y11099219D01*
G01X35993473Y11099219D01*
G01X35982043Y11093631D01*
G01X35970613Y11082201D01*
G01X35964771Y11064929D01*
G01X35964771Y11053499D01*
G01X35970613Y11036481D01*
G01X35982043Y11025051D01*
G01X35993473Y11019209D01*
G01X36010491Y11019209D01*
G01X36021921Y11025051D01*
G01X36033351Y11036481D01*
G01X36086945Y11099219D02*
G01X36121235Y11019209D01*
G01X36155525Y11099219D02*
G01X36121235Y11019209D01*
G01X36109805Y10996349D01*
G01X36098375Y10984919D01*
G01X36086945Y10979331D01*
G01X36081103Y10979331D01*
G01X36203277Y11064929D02*
G01X36271857Y11064929D01*
G01X36271857Y11076359D01*
G01X36266269Y11087789D01*
G01X36260427Y11093631D01*
G01X36248997Y11099219D01*
G01X36231979Y11099219D01*
G01X36220549Y11093631D01*
G01X36209119Y11082201D01*
G01X36203277Y11064929D01*
G01X36203277Y11053499D01*
G01X36209119Y11036481D01*
G01X36220549Y11025051D01*
G01X36231979Y11019209D01*
G01X36248997Y11019209D01*
G01X36260427Y11025051D01*
G01X36271857Y11036481D01*
G01X36319609Y11099219D02*
G01X36319609Y11019209D01*
G01X36319609Y11064929D02*
G01X36325451Y11082201D01*
G01X36336881Y11093631D01*
G01X36348311Y11099219D01*
G01X36365329Y11099219D01*
G01X21994916Y10530078D02*
G01X21994916Y10535920D01*
G01X22000504Y10547350D01*
G01X22006346Y10552938D01*
G01X22017776Y10558780D01*
G01X22040636Y10558780D01*
G01X22052066Y10552938D01*
G01X22057654Y10547350D01*
G01X22063496Y10535920D01*
G01X22063496Y10524490D01*
G01X22057654Y10513060D01*
G01X22046224Y10495788D01*
G01X21989074Y10438638D01*
G01X22069084Y10438638D01*
G01X23414667Y10558780D02*
G01X23477659Y10558780D01*
G01X23443369Y10513060D01*
G01X23460387Y10513060D01*
G01X23471817Y10507218D01*
G01X23477659Y10501630D01*
G01X23483247Y10484358D01*
G01X23483247Y10472928D01*
G01X23477659Y10455910D01*
G01X23466229Y10444480D01*
G01X23448957Y10438638D01*
G01X23431939Y10438638D01*
G01X23414667Y10444480D01*
G01X23409079Y10450068D01*
G01X23403237Y10461498D01*
G01X23599579Y10541508D02*
G01X23593991Y10552938D01*
G01X23576719Y10558780D01*
G01X23565289Y10558780D01*
G01X23548271Y10552938D01*
G01X23536841Y10535920D01*
G01X23530999Y10507218D01*
G01X23530999Y10478770D01*
G01X23536841Y10455910D01*
G01X23548271Y10444480D01*
G01X23565289Y10438638D01*
G01X23571131Y10438638D01*
G01X23588149Y10444480D01*
G01X23599579Y10455910D01*
G01X23605421Y10472928D01*
G01X23605421Y10478770D01*
G01X23599579Y10495788D01*
G01X23588149Y10507218D01*
G01X23571131Y10513060D01*
G01X23565289Y10513060D01*
G01X23548271Y10507218D01*
G01X23536841Y10495788D01*
G01X23530999Y10478770D01*
G01X23659015Y10467340D02*
G01X23653173Y10461498D01*
G01X23659015Y10455910D01*
G01X23664603Y10461498D01*
G01X23659015Y10467340D01*
G01X23746645Y10558780D02*
G01X23729627Y10552938D01*
G01X23718197Y10535920D01*
G01X23712355Y10507218D01*
G01X23712355Y10490200D01*
G01X23718197Y10461498D01*
G01X23729627Y10444480D01*
G01X23746645Y10438638D01*
G01X23758075Y10438638D01*
G01X23775347Y10444480D01*
G01X23786777Y10461498D01*
G01X23792365Y10490200D01*
G01X23792365Y10507218D01*
G01X23786777Y10535920D01*
G01X23775347Y10552938D01*
G01X23758075Y10558780D01*
G01X23746645Y10558780D01*
G01X23840117Y10518648D02*
G01X23903109Y10438638D01*
G01X23903109Y10518648D02*
G01X23840117Y10438638D01*
G01X23962291Y10558780D02*
G01X24025283Y10558780D01*
G01X23990993Y10513060D01*
G01X24008011Y10513060D01*
G01X24019441Y10507218D01*
G01X24025283Y10501630D01*
G01X24030871Y10484358D01*
G01X24030871Y10472928D01*
G01X24025283Y10455910D01*
G01X24013853Y10444480D01*
G01X23996581Y10438638D01*
G01X23979563Y10438638D01*
G01X23962291Y10444480D01*
G01X23956703Y10450068D01*
G01X23950861Y10461498D01*
G01X24147203Y10541508D02*
G01X24141615Y10552938D01*
G01X24124343Y10558780D01*
G01X24112913Y10558780D01*
G01X24095895Y10552938D01*
G01X24084465Y10535920D01*
G01X24078623Y10507218D01*
G01X24078623Y10478770D01*
G01X24084465Y10455910D01*
G01X24095895Y10444480D01*
G01X24112913Y10438638D01*
G01X24118755Y10438638D01*
G01X24135773Y10444480D01*
G01X24147203Y10455910D01*
G01X24153045Y10472928D01*
G01X24153045Y10478770D01*
G01X24147203Y10495788D01*
G01X24135773Y10507218D01*
G01X24118755Y10513060D01*
G01X24112913Y10513060D01*
G01X24095895Y10507218D01*
G01X24084465Y10495788D01*
G01X24078623Y10478770D01*
G01X24206639Y10467340D02*
G01X24200797Y10461498D01*
G01X24206639Y10455910D01*
G01X24212227Y10461498D01*
G01X24206639Y10467340D01*
G01X24294269Y10558780D02*
G01X24277251Y10552938D01*
G01X24265821Y10535920D01*
G01X24259979Y10507218D01*
G01X24259979Y10490200D01*
G01X24265821Y10461498D01*
G01X24277251Y10444480D01*
G01X24294269Y10438638D01*
G01X24305699Y10438638D01*
G01X24322971Y10444480D01*
G01X24334401Y10461498D01*
G01X24339989Y10490200D01*
G01X24339989Y10507218D01*
G01X24334401Y10535920D01*
G01X24322971Y10552938D01*
G01X24305699Y10558780D01*
G01X24294269Y10558780D01*
G01X24387741Y10518648D02*
G01X24387741Y10438638D01*
G01X24387741Y10495788D02*
G01X24405013Y10513060D01*
G01X24416443Y10518648D01*
G01X24433461Y10518648D01*
G01X24444891Y10513060D01*
G01X24450733Y10495788D01*
G01X24450733Y10438638D01*
G01X24450733Y10495788D02*
G01X24467751Y10513060D01*
G01X24479181Y10518648D01*
G01X24496453Y10518648D01*
G01X24507883Y10513060D01*
G01X24513471Y10495788D01*
G01X24513471Y10438638D01*
G01X24561223Y10558780D02*
G01X24567065Y10552938D01*
G01X24572653Y10558780D01*
G01X24567065Y10564368D01*
G01X24561223Y10558780D01*
G01X24567065Y10518648D02*
G01X24567065Y10438638D01*
G01X24620405Y10558780D02*
G01X24620405Y10438638D01*
G01X24708289Y10581640D02*
G01X24696859Y10570210D01*
G01X24685429Y10552938D01*
G01X24673999Y10530078D01*
G01X24668157Y10501630D01*
G01X24668157Y10478770D01*
G01X24673999Y10450068D01*
G01X24685429Y10427208D01*
G01X24696859Y10410190D01*
G01X24708289Y10398760D01*
G01X24790331Y10558780D02*
G01X24773313Y10552938D01*
G01X24761883Y10535920D01*
G01X24756041Y10507218D01*
G01X24756041Y10490200D01*
G01X24761883Y10461498D01*
G01X24773313Y10444480D01*
G01X24790331Y10438638D01*
G01X24801761Y10438638D01*
G01X24819033Y10444480D01*
G01X24830463Y10461498D01*
G01X24836051Y10490200D01*
G01X24836051Y10507218D01*
G01X24830463Y10535920D01*
G01X24819033Y10552938D01*
G01X24801761Y10558780D01*
G01X24790331Y10558780D01*
G01X24889645Y10467340D02*
G01X24883803Y10461498D01*
G01X24889645Y10455910D01*
G01X24895233Y10461498D01*
G01X24889645Y10467340D01*
G01X25017407Y10518648D02*
G01X25011565Y10501630D01*
G01X25000135Y10490200D01*
G01X24983117Y10484358D01*
G01X24977275Y10484358D01*
G01X24960257Y10490200D01*
G01X24948827Y10501630D01*
G01X24942985Y10518648D01*
G01X24942985Y10524490D01*
G01X24948827Y10541508D01*
G01X24960257Y10552938D01*
G01X24977275Y10558780D01*
G01X24983117Y10558780D01*
G01X25000135Y10552938D01*
G01X25011565Y10541508D01*
G01X25017407Y10518648D01*
G01X25017407Y10490200D01*
G01X25011565Y10461498D01*
G01X25000135Y10444480D01*
G01X24983117Y10438638D01*
G01X24971687Y10438638D01*
G01X24954415Y10444480D01*
G01X24948827Y10455910D01*
G01X25065159Y10535920D02*
G01X25076589Y10541508D01*
G01X25093861Y10558780D01*
G01X25093861Y10438638D01*
G01X25198763Y10558780D02*
G01X25141613Y10478770D01*
G01X25227465Y10478770D01*
G01X25198763Y10558780D02*
G01X25198763Y10438638D01*
G01X25275217Y10518648D02*
G01X25338209Y10438638D01*
G01X25338209Y10518648D02*
G01X25275217Y10438638D01*
G01X25420251Y10558780D02*
G01X25403233Y10552938D01*
G01X25391803Y10535920D01*
G01X25385961Y10507218D01*
G01X25385961Y10490200D01*
G01X25391803Y10461498D01*
G01X25403233Y10444480D01*
G01X25420251Y10438638D01*
G01X25431681Y10438638D01*
G01X25448953Y10444480D01*
G01X25460383Y10461498D01*
G01X25465971Y10490200D01*
G01X25465971Y10507218D01*
G01X25460383Y10535920D01*
G01X25448953Y10552938D01*
G01X25431681Y10558780D01*
G01X25420251Y10558780D01*
G01X25519565Y10467340D02*
G01X25513723Y10461498D01*
G01X25519565Y10455910D01*
G01X25525153Y10461498D01*
G01X25519565Y10467340D01*
G01X25647327Y10518648D02*
G01X25641485Y10501630D01*
G01X25630055Y10490200D01*
G01X25613037Y10484358D01*
G01X25607195Y10484358D01*
G01X25590177Y10490200D01*
G01X25578747Y10501630D01*
G01X25572905Y10518648D01*
G01X25572905Y10524490D01*
G01X25578747Y10541508D01*
G01X25590177Y10552938D01*
G01X25607195Y10558780D01*
G01X25613037Y10558780D01*
G01X25630055Y10552938D01*
G01X25641485Y10541508D01*
G01X25647327Y10518648D01*
G01X25647327Y10490200D01*
G01X25641485Y10461498D01*
G01X25630055Y10444480D01*
G01X25613037Y10438638D01*
G01X25601607Y10438638D01*
G01X25584335Y10444480D01*
G01X25578747Y10455910D01*
G01X25695079Y10535920D02*
G01X25706509Y10541508D01*
G01X25723781Y10558780D01*
G01X25723781Y10438638D01*
G01X25828683Y10558780D02*
G01X25771533Y10478770D01*
G01X25857385Y10478770D01*
G01X25828683Y10558780D02*
G01X25828683Y10438638D01*
G01X25905137Y10518648D02*
G01X25905137Y10438638D01*
G01X25905137Y10495788D02*
G01X25922409Y10513060D01*
G01X25933839Y10518648D01*
G01X25950857Y10518648D01*
G01X25962287Y10513060D01*
G01X25968129Y10495788D01*
G01X25968129Y10438638D01*
G01X25968129Y10495788D02*
G01X25985147Y10513060D01*
G01X25996577Y10518648D01*
G01X26013849Y10518648D01*
G01X26025279Y10513060D01*
G01X26030867Y10495788D01*
G01X26030867Y10438638D01*
G01X26078619Y10518648D02*
G01X26078619Y10438638D01*
G01X26078619Y10495788D02*
G01X26095891Y10513060D01*
G01X26107321Y10518648D01*
G01X26124339Y10518648D01*
G01X26135769Y10513060D01*
G01X26141611Y10495788D01*
G01X26141611Y10438638D01*
G01X26141611Y10495788D02*
G01X26158629Y10513060D01*
G01X26170059Y10518648D01*
G01X26187331Y10518648D01*
G01X26198761Y10513060D01*
G01X26204349Y10495788D01*
G01X26204349Y10438638D01*
G01X26252101Y10581640D02*
G01X26263531Y10570210D01*
G01X26274961Y10552938D01*
G01X26286391Y10530078D01*
G01X26292233Y10501630D01*
G01X26292233Y10478770D01*
G01X26286391Y10450068D01*
G01X26274961Y10427208D01*
G01X26263531Y10410190D01*
G01X26252101Y10398760D01*
G01X27297203Y10558780D02*
G01X27297203Y10438638D01*
G01X27297203Y10558780D02*
G01X27348765Y10558780D01*
G01X27365783Y10552938D01*
G01X27371625Y10547350D01*
G01X27377213Y10535920D01*
G01X27377213Y10518648D01*
G01X27371625Y10507218D01*
G01X27365783Y10501630D01*
G01X27348765Y10495788D01*
G01X27297203Y10495788D01*
G01X27465097Y10558780D02*
G01X27465097Y10438638D01*
G01X27424965Y10558780D02*
G01X27504975Y10558780D01*
G01X27552727Y10558780D02*
G01X27552727Y10438638D01*
G01X27632737Y10558780D02*
G01X27632737Y10438638D01*
G01X27552727Y10501630D02*
G01X27632737Y10501630D01*
G01X28758610Y10558780D02*
G01X28758610Y10438638D01*
G01X28758610Y10558780D02*
G01X28810172Y10558780D01*
G01X28827190Y10552938D01*
G01X28833032Y10547350D01*
G01X28838620Y10535920D01*
G01X28838620Y10524490D01*
G01X28833032Y10513060D01*
G01X28827190Y10507218D01*
G01X28810172Y10501630D01*
G01X28758610Y10501630D01*
G01X28798742Y10501630D02*
G01X28838620Y10438638D01*
G01X28915074Y10518648D02*
G01X28903644Y10513060D01*
G01X28892214Y10501630D01*
G01X28886372Y10484358D01*
G01X28886372Y10472928D01*
G01X28892214Y10455910D01*
G01X28903644Y10444480D01*
G01X28915074Y10438638D01*
G01X28932092Y10438638D01*
G01X28943522Y10444480D01*
G01X28954952Y10455910D01*
G01X28960794Y10472928D01*
G01X28960794Y10484358D01*
G01X28954952Y10501630D01*
G01X28943522Y10513060D01*
G01X28932092Y10518648D01*
G01X28915074Y10518648D01*
G01X29008546Y10518648D02*
G01X29008546Y10461498D01*
G01X29014388Y10444480D01*
G01X29025818Y10438638D01*
G01X29042836Y10438638D01*
G01X29054266Y10444480D01*
G01X29071538Y10461498D01*
G01X29071538Y10518648D02*
G01X29071538Y10438638D01*
G01X29119290Y10518648D02*
G01X29119290Y10438638D01*
G01X29119290Y10495788D02*
G01X29136562Y10513060D01*
G01X29147992Y10518648D01*
G01X29165010Y10518648D01*
G01X29176440Y10513060D01*
G01X29182282Y10495788D01*
G01X29182282Y10438638D01*
G01X29298614Y10558780D02*
G01X29298614Y10438638D01*
G01X29298614Y10501630D02*
G01X29287184Y10513060D01*
G01X29275754Y10518648D01*
G01X29258736Y10518648D01*
G01X29247306Y10513060D01*
G01X29235876Y10501630D01*
G01X29230034Y10484358D01*
G01X29230034Y10472928D01*
G01X29235876Y10455910D01*
G01X29247306Y10444480D01*
G01X29258736Y10438638D01*
G01X29275754Y10438638D01*
G01X29287184Y10444480D01*
G01X29298614Y10455910D01*
G01X30189791Y10558780D02*
G01X30189791Y10438638D01*
G01X30189791Y10558780D02*
G01X30241353Y10558780D01*
G01X30258371Y10552938D01*
G01X30264213Y10547350D01*
G01X30269801Y10535920D01*
G01X30269801Y10518648D01*
G01X30264213Y10507218D01*
G01X30258371Y10501630D01*
G01X30241353Y10495788D01*
G01X30189791Y10495788D01*
G01X30386133Y10518648D02*
G01X30386133Y10438638D01*
G01X30386133Y10501630D02*
G01X30374703Y10513060D01*
G01X30363273Y10518648D01*
G01X30346255Y10518648D01*
G01X30334825Y10513060D01*
G01X30323395Y10501630D01*
G01X30317553Y10484358D01*
G01X30317553Y10472928D01*
G01X30323395Y10455910D01*
G01X30334825Y10444480D01*
G01X30346255Y10438638D01*
G01X30363273Y10438638D01*
G01X30374703Y10444480D01*
G01X30386133Y10455910D01*
G01X30502465Y10558780D02*
G01X30502465Y10438638D01*
G01X30502465Y10501630D02*
G01X30491035Y10513060D01*
G01X30479605Y10518648D01*
G01X30462587Y10518648D01*
G01X30451157Y10513060D01*
G01X30439727Y10501630D01*
G01X30433885Y10484358D01*
G01X30433885Y10472928D01*
G01X30439727Y10455910D01*
G01X30451157Y10444480D01*
G01X30462587Y10438638D01*
G01X30479605Y10438638D01*
G01X30491035Y10444480D01*
G01X30502465Y10455910D01*
G01X31858970Y10558780D02*
G01X31858970Y10438638D01*
G01X31858970Y10558780D02*
G01X31910532Y10558780D01*
G01X31927550Y10552938D01*
G01X31933392Y10547350D01*
G01X31938980Y10535920D01*
G01X31938980Y10524490D01*
G01X31933392Y10513060D01*
G01X31927550Y10507218D01*
G01X31910532Y10501630D01*
G01X31858970Y10501630D01*
G01X31899102Y10501630D02*
G01X31938980Y10438638D01*
G01X32015434Y10518648D02*
G01X32004004Y10513060D01*
G01X31992574Y10501630D01*
G01X31986732Y10484358D01*
G01X31986732Y10472928D01*
G01X31992574Y10455910D01*
G01X32004004Y10444480D01*
G01X32015434Y10438638D01*
G01X32032452Y10438638D01*
G01X32043882Y10444480D01*
G01X32055312Y10455910D01*
G01X32061154Y10472928D01*
G01X32061154Y10484358D01*
G01X32055312Y10501630D01*
G01X32043882Y10513060D01*
G01X32032452Y10518648D01*
G01X32015434Y10518648D01*
G01X32108906Y10518648D02*
G01X32108906Y10461498D01*
G01X32114748Y10444480D01*
G01X32126178Y10438638D01*
G01X32143196Y10438638D01*
G01X32154626Y10444480D01*
G01X32171898Y10461498D01*
G01X32171898Y10518648D02*
G01X32171898Y10438638D01*
G01X32219650Y10518648D02*
G01X32219650Y10438638D01*
G01X32219650Y10495788D02*
G01X32236922Y10513060D01*
G01X32248352Y10518648D01*
G01X32265370Y10518648D01*
G01X32276800Y10513060D01*
G01X32282642Y10495788D01*
G01X32282642Y10438638D01*
G01X32398974Y10558780D02*
G01X32398974Y10438638D01*
G01X32398974Y10501630D02*
G01X32387544Y10513060D01*
G01X32376114Y10518648D01*
G01X32359096Y10518648D01*
G01X32347666Y10513060D01*
G01X32336236Y10501630D01*
G01X32330394Y10484358D01*
G01X32330394Y10472928D01*
G01X32336236Y10455910D01*
G01X32347666Y10444480D01*
G01X32359096Y10438638D01*
G01X32376114Y10438638D01*
G01X32387544Y10444480D01*
G01X32398974Y10455910D01*
G01X33818471Y10558780D02*
G01X33818471Y10438638D01*
G01X33778339Y10558780D02*
G01X33858349Y10558780D01*
G01X33934803Y10518648D02*
G01X33923373Y10513060D01*
G01X33911943Y10501630D01*
G01X33906101Y10484358D01*
G01X33906101Y10472928D01*
G01X33911943Y10455910D01*
G01X33923373Y10444480D01*
G01X33934803Y10438638D01*
G01X33951821Y10438638D01*
G01X33963251Y10444480D01*
G01X33974681Y10455910D01*
G01X33980523Y10472928D01*
G01X33980523Y10484358D01*
G01X33974681Y10501630D01*
G01X33963251Y10513060D01*
G01X33951821Y10518648D01*
G01X33934803Y10518648D01*
G01X34028275Y10518648D02*
G01X34028275Y10398760D01*
G01X34028275Y10501630D02*
G01X34039705Y10513060D01*
G01X34051135Y10518648D01*
G01X34068407Y10518648D01*
G01X34079837Y10513060D01*
G01X34091267Y10501630D01*
G01X34096855Y10484358D01*
G01X34096855Y10472928D01*
G01X34091267Y10455910D01*
G01X34079837Y10444480D01*
G01X34068407Y10438638D01*
G01X34051135Y10438638D01*
G01X34039705Y10444480D01*
G01X34028275Y10455910D01*
G01X34272623Y10558780D02*
G01X34272623Y10438638D01*
G01X34272623Y10438638D02*
G01X34341203Y10438638D01*
G01X34457535Y10518648D02*
G01X34457535Y10438638D01*
G01X34457535Y10501630D02*
G01X34446105Y10513060D01*
G01X34434675Y10518648D01*
G01X34417657Y10518648D01*
G01X34406227Y10513060D01*
G01X34394797Y10501630D01*
G01X34388955Y10484358D01*
G01X34388955Y10472928D01*
G01X34394797Y10455910D01*
G01X34406227Y10444480D01*
G01X34417657Y10438638D01*
G01X34434675Y10438638D01*
G01X34446105Y10444480D01*
G01X34457535Y10455910D01*
G01X34511129Y10518648D02*
G01X34545419Y10438638D01*
G01X34579709Y10518648D02*
G01X34545419Y10438638D01*
G01X34533989Y10415778D01*
G01X34522559Y10404348D01*
G01X34511129Y10398760D01*
G01X34505287Y10398760D01*
G01X34627461Y10484358D02*
G01X34696041Y10484358D01*
G01X34696041Y10495788D01*
G01X34690453Y10507218D01*
G01X34684611Y10513060D01*
G01X34673181Y10518648D01*
G01X34656163Y10518648D01*
G01X34644733Y10513060D01*
G01X34633303Y10501630D01*
G01X34627461Y10484358D01*
G01X34627461Y10472928D01*
G01X34633303Y10455910D01*
G01X34644733Y10444480D01*
G01X34656163Y10438638D01*
G01X34673181Y10438638D01*
G01X34684611Y10444480D01*
G01X34696041Y10455910D01*
G01X34743793Y10518648D02*
G01X34743793Y10438638D01*
G01X34743793Y10484358D02*
G01X34749635Y10501630D01*
G01X34761065Y10513060D01*
G01X34772495Y10518648D01*
G01X34789513Y10518648D01*
G01X34837265Y10490200D02*
G01X34940135Y10490200D01*
G01X34987887Y10558780D02*
G01X34987887Y10438638D01*
G01X34987887Y10558780D02*
G01X35039449Y10558780D01*
G01X35056467Y10552938D01*
G01X35062309Y10547350D01*
G01X35067897Y10535920D01*
G01X35067897Y10524490D01*
G01X35062309Y10513060D01*
G01X35056467Y10507218D01*
G01X35039449Y10501630D01*
G01X34987887Y10501630D02*
G01X35039449Y10501630D01*
G01X35056467Y10495788D01*
G01X35062309Y10490200D01*
G01X35067897Y10478770D01*
G01X35067897Y10461498D01*
G01X35062309Y10450068D01*
G01X35056467Y10444480D01*
G01X35039449Y10438638D01*
G01X34987887Y10438638D01*
G01X35144351Y10518648D02*
G01X35132921Y10513060D01*
G01X35121491Y10501630D01*
G01X35115649Y10484358D01*
G01X35115649Y10472928D01*
G01X35121491Y10455910D01*
G01X35132921Y10444480D01*
G01X35144351Y10438638D01*
G01X35161369Y10438638D01*
G01X35172799Y10444480D01*
G01X35184229Y10455910D01*
G01X35190071Y10472928D01*
G01X35190071Y10484358D01*
G01X35184229Y10501630D01*
G01X35172799Y10513060D01*
G01X35161369Y10518648D01*
G01X35144351Y10518648D01*
G01X35255095Y10558780D02*
G01X35255095Y10461498D01*
G01X35260683Y10444480D01*
G01X35272113Y10438638D01*
G01X35283543Y10438638D01*
G01X35237823Y10518648D02*
G01X35277955Y10518648D01*
G01X35348567Y10558780D02*
G01X35348567Y10461498D01*
G01X35354155Y10444480D01*
G01X35365585Y10438638D01*
G01X35377015Y10438638D01*
G01X35331295Y10518648D02*
G01X35371427Y10518648D01*
G01X35453469Y10518648D02*
G01X35442039Y10513060D01*
G01X35430609Y10501630D01*
G01X35424767Y10484358D01*
G01X35424767Y10472928D01*
G01X35430609Y10455910D01*
G01X35442039Y10444480D01*
G01X35453469Y10438638D01*
G01X35470487Y10438638D01*
G01X35481917Y10444480D01*
G01X35493347Y10455910D01*
G01X35499189Y10472928D01*
G01X35499189Y10484358D01*
G01X35493347Y10501630D01*
G01X35481917Y10513060D01*
G01X35470487Y10518648D01*
G01X35453469Y10518648D01*
G01X35546941Y10518648D02*
G01X35546941Y10438638D01*
G01X35546941Y10495788D02*
G01X35564213Y10513060D01*
G01X35575643Y10518648D01*
G01X35592661Y10518648D01*
G01X35604091Y10513060D01*
G01X35609933Y10495788D01*
G01X35609933Y10438638D01*
G01X35609933Y10495788D02*
G01X35626951Y10513060D01*
G01X35638381Y10518648D01*
G01X35655653Y10518648D01*
G01X35667083Y10513060D01*
G01X35672671Y10495788D01*
G01X35672671Y10438638D01*
G01X35848439Y10558780D02*
G01X35848439Y10438638D01*
G01X35848439Y10438638D02*
G01X35917019Y10438638D01*
G01X36033351Y10518648D02*
G01X36033351Y10438638D01*
G01X36033351Y10501630D02*
G01X36021921Y10513060D01*
G01X36010491Y10518648D01*
G01X35993473Y10518648D01*
G01X35982043Y10513060D01*
G01X35970613Y10501630D01*
G01X35964771Y10484358D01*
G01X35964771Y10472928D01*
G01X35970613Y10455910D01*
G01X35982043Y10444480D01*
G01X35993473Y10438638D01*
G01X36010491Y10438638D01*
G01X36021921Y10444480D01*
G01X36033351Y10455910D01*
G01X36086945Y10518648D02*
G01X36121235Y10438638D01*
G01X36155525Y10518648D02*
G01X36121235Y10438638D01*
G01X36109805Y10415778D01*
G01X36098375Y10404348D01*
G01X36086945Y10398760D01*
G01X36081103Y10398760D01*
G01X36203277Y10484358D02*
G01X36271857Y10484358D01*
G01X36271857Y10495788D01*
G01X36266269Y10507218D01*
G01X36260427Y10513060D01*
G01X36248997Y10518648D01*
G01X36231979Y10518648D01*
G01X36220549Y10513060D01*
G01X36209119Y10501630D01*
G01X36203277Y10484358D01*
G01X36203277Y10472928D01*
G01X36209119Y10455910D01*
G01X36220549Y10444480D01*
G01X36231979Y10438638D01*
G01X36248997Y10438638D01*
G01X36260427Y10444480D01*
G01X36271857Y10455910D01*
G01X36319609Y10518648D02*
G01X36319609Y10438638D01*
G01X36319609Y10484358D02*
G01X36325451Y10501630D01*
G01X36336881Y10513060D01*
G01X36348311Y10518648D01*
G01X36365329Y10518648D01*
G01X22000504Y9978209D02*
G01X22063496Y9978209D01*
G01X22029206Y9932489D01*
G01X22046224Y9932489D01*
G01X22057654Y9926647D01*
G01X22063496Y9921059D01*
G01X22069084Y9903787D01*
G01X22069084Y9892357D01*
G01X22063496Y9875339D01*
G01X22052066Y9863909D01*
G01X22034794Y9858067D01*
G01X22017776Y9858067D01*
G01X22000504Y9863909D01*
G01X21994916Y9869497D01*
G01X21989074Y9880927D01*
G01X23403237Y9955349D02*
G01X23414667Y9960937D01*
G01X23431939Y9978209D01*
G01X23431939Y9858067D01*
G01X23485533Y9949507D02*
G01X23485533Y9955349D01*
G01X23491121Y9966779D01*
G01X23496963Y9972367D01*
G01X23508393Y9978209D01*
G01X23531253Y9978209D01*
G01X23542683Y9972367D01*
G01X23548271Y9966779D01*
G01X23554113Y9955349D01*
G01X23554113Y9943919D01*
G01X23548271Y9932489D01*
G01X23536841Y9915217D01*
G01X23479691Y9858067D01*
G01X23559701Y9858067D01*
G01X23613295Y9886769D02*
G01X23607453Y9880927D01*
G01X23613295Y9875339D01*
G01X23618883Y9880927D01*
G01X23613295Y9886769D01*
G01X23700925Y9978209D02*
G01X23683907Y9972367D01*
G01X23672477Y9955349D01*
G01X23666635Y9926647D01*
G01X23666635Y9909629D01*
G01X23672477Y9880927D01*
G01X23683907Y9863909D01*
G01X23700925Y9858067D01*
G01X23712355Y9858067D01*
G01X23729627Y9863909D01*
G01X23741057Y9880927D01*
G01X23746645Y9909629D01*
G01X23746645Y9926647D01*
G01X23741057Y9955349D01*
G01X23729627Y9972367D01*
G01X23712355Y9978209D01*
G01X23700925Y9978209D01*
G01X23794397Y9938077D02*
G01X23794397Y9858067D01*
G01X23794397Y9915217D02*
G01X23811669Y9932489D01*
G01X23823099Y9938077D01*
G01X23840117Y9938077D01*
G01X23851547Y9932489D01*
G01X23857389Y9915217D01*
G01X23857389Y9858067D01*
G01X23857389Y9915217D02*
G01X23874407Y9932489D01*
G01X23885837Y9938077D01*
G01X23903109Y9938077D01*
G01X23914539Y9932489D01*
G01X23920127Y9915217D01*
G01X23920127Y9858067D01*
G01X23967879Y9978209D02*
G01X23973721Y9972367D01*
G01X23979309Y9978209D01*
G01X23973721Y9983797D01*
G01X23967879Y9978209D01*
G01X23973721Y9938077D02*
G01X23973721Y9858067D01*
G01X24027061Y9978209D02*
G01X24027061Y9858067D01*
G01X24114945Y10001069D02*
G01X24103515Y9989639D01*
G01X24092085Y9972367D01*
G01X24080655Y9949507D01*
G01X24074813Y9921059D01*
G01X24074813Y9898199D01*
G01X24080655Y9869497D01*
G01X24092085Y9846637D01*
G01X24103515Y9829619D01*
G01X24114945Y9818189D01*
G01X24196987Y9978209D02*
G01X24179969Y9972367D01*
G01X24168539Y9955349D01*
G01X24162697Y9926647D01*
G01X24162697Y9909629D01*
G01X24168539Y9880927D01*
G01X24179969Y9863909D01*
G01X24196987Y9858067D01*
G01X24208417Y9858067D01*
G01X24225689Y9863909D01*
G01X24237119Y9880927D01*
G01X24242707Y9909629D01*
G01X24242707Y9926647D01*
G01X24237119Y9955349D01*
G01X24225689Y9972367D01*
G01X24208417Y9978209D01*
G01X24196987Y9978209D01*
G01X24296301Y9886769D02*
G01X24290459Y9880927D01*
G01X24296301Y9875339D01*
G01X24301889Y9880927D01*
G01X24296301Y9886769D01*
G01X24361071Y9978209D02*
G01X24424063Y9978209D01*
G01X24389773Y9932489D01*
G01X24406791Y9932489D01*
G01X24418221Y9926647D01*
G01X24424063Y9921059D01*
G01X24429651Y9903787D01*
G01X24429651Y9892357D01*
G01X24424063Y9875339D01*
G01X24412633Y9863909D01*
G01X24395361Y9858067D01*
G01X24378343Y9858067D01*
G01X24361071Y9863909D01*
G01X24355483Y9869497D01*
G01X24349641Y9880927D01*
G01X24511693Y9978209D02*
G01X24494675Y9972367D01*
G01X24483245Y9955349D01*
G01X24477403Y9926647D01*
G01X24477403Y9909629D01*
G01X24483245Y9880927D01*
G01X24494675Y9863909D01*
G01X24511693Y9858067D01*
G01X24523123Y9858067D01*
G01X24540395Y9863909D01*
G01X24551825Y9880927D01*
G01X24557413Y9909629D01*
G01X24557413Y9926647D01*
G01X24551825Y9955349D01*
G01X24540395Y9972367D01*
G01X24523123Y9978209D01*
G01X24511693Y9978209D01*
G01X24673745Y9978209D02*
G01X24616595Y9978209D01*
G01X24611007Y9926647D01*
G01X24616595Y9932489D01*
G01X24633867Y9938077D01*
G01X24650885Y9938077D01*
G01X24668157Y9932489D01*
G01X24679587Y9921059D01*
G01X24685175Y9903787D01*
G01X24685175Y9892357D01*
G01X24679587Y9875339D01*
G01X24668157Y9863909D01*
G01X24650885Y9858067D01*
G01X24633867Y9858067D01*
G01X24616595Y9863909D01*
G01X24611007Y9869497D01*
G01X24605165Y9880927D01*
G01X24732927Y9938077D02*
G01X24732927Y9858067D01*
G01X24732927Y9915217D02*
G01X24750199Y9932489D01*
G01X24761629Y9938077D01*
G01X24778647Y9938077D01*
G01X24790077Y9932489D01*
G01X24795919Y9915217D01*
G01X24795919Y9858067D01*
G01X24795919Y9915217D02*
G01X24812937Y9932489D01*
G01X24824367Y9938077D01*
G01X24841639Y9938077D01*
G01X24853069Y9932489D01*
G01X24858657Y9915217D01*
G01X24858657Y9858067D01*
G01X24906409Y9938077D02*
G01X24906409Y9858067D01*
G01X24906409Y9915217D02*
G01X24923681Y9932489D01*
G01X24935111Y9938077D01*
G01X24952129Y9938077D01*
G01X24963559Y9932489D01*
G01X24969401Y9915217D01*
G01X24969401Y9858067D01*
G01X24969401Y9915217D02*
G01X24986419Y9932489D01*
G01X24997849Y9938077D01*
G01X25015121Y9938077D01*
G01X25026551Y9932489D01*
G01X25032139Y9915217D01*
G01X25032139Y9858067D01*
G01X25079891Y10001069D02*
G01X25091321Y9989639D01*
G01X25102751Y9972367D01*
G01X25114181Y9949507D01*
G01X25120023Y9921059D01*
G01X25120023Y9898199D01*
G01X25114181Y9869497D01*
G01X25102751Y9846637D01*
G01X25091321Y9829619D01*
G01X25079891Y9818189D01*
G01X27297203Y9978209D02*
G01X27297203Y9858067D01*
G01X27297203Y9978209D02*
G01X27348765Y9978209D01*
G01X27365783Y9972367D01*
G01X27371625Y9966779D01*
G01X27377213Y9955349D01*
G01X27377213Y9938077D01*
G01X27371625Y9926647D01*
G01X27365783Y9921059D01*
G01X27348765Y9915217D01*
G01X27297203Y9915217D01*
G01X27465097Y9978209D02*
G01X27465097Y9858067D01*
G01X27424965Y9978209D02*
G01X27504975Y9978209D01*
G01X27552727Y9978209D02*
G01X27552727Y9858067D01*
G01X27632737Y9978209D02*
G01X27632737Y9858067D01*
G01X27552727Y9921059D02*
G01X27632737Y9921059D01*
G01X28758610Y9978209D02*
G01X28758610Y9858067D01*
G01X28758610Y9978209D02*
G01X28810172Y9978209D01*
G01X28827190Y9972367D01*
G01X28833032Y9966779D01*
G01X28838620Y9955349D01*
G01X28838620Y9943919D01*
G01X28833032Y9932489D01*
G01X28827190Y9926647D01*
G01X28810172Y9921059D01*
G01X28758610Y9921059D01*
G01X28798742Y9921059D02*
G01X28838620Y9858067D01*
G01X28915074Y9938077D02*
G01X28903644Y9932489D01*
G01X28892214Y9921059D01*
G01X28886372Y9903787D01*
G01X28886372Y9892357D01*
G01X28892214Y9875339D01*
G01X28903644Y9863909D01*
G01X28915074Y9858067D01*
G01X28932092Y9858067D01*
G01X28943522Y9863909D01*
G01X28954952Y9875339D01*
G01X28960794Y9892357D01*
G01X28960794Y9903787D01*
G01X28954952Y9921059D01*
G01X28943522Y9932489D01*
G01X28932092Y9938077D01*
G01X28915074Y9938077D01*
G01X29008546Y9938077D02*
G01X29008546Y9880927D01*
G01X29014388Y9863909D01*
G01X29025818Y9858067D01*
G01X29042836Y9858067D01*
G01X29054266Y9863909D01*
G01X29071538Y9880927D01*
G01X29071538Y9938077D02*
G01X29071538Y9858067D01*
G01X29119290Y9938077D02*
G01X29119290Y9858067D01*
G01X29119290Y9915217D02*
G01X29136562Y9932489D01*
G01X29147992Y9938077D01*
G01X29165010Y9938077D01*
G01X29176440Y9932489D01*
G01X29182282Y9915217D01*
G01X29182282Y9858067D01*
G01X29298614Y9978209D02*
G01X29298614Y9858067D01*
G01X29298614Y9921059D02*
G01X29287184Y9932489D01*
G01X29275754Y9938077D01*
G01X29258736Y9938077D01*
G01X29247306Y9932489D01*
G01X29235876Y9921059D01*
G01X29230034Y9903787D01*
G01X29230034Y9892357D01*
G01X29235876Y9875339D01*
G01X29247306Y9863909D01*
G01X29258736Y9858067D01*
G01X29275754Y9858067D01*
G01X29287184Y9863909D01*
G01X29298614Y9875339D01*
G01X30189791Y9978209D02*
G01X30235511Y9858067D01*
G01X30281231Y9978209D02*
G01X30235511Y9858067D01*
G01X30328983Y9978209D02*
G01X30334825Y9972367D01*
G01X30340413Y9978209D01*
G01X30334825Y9983797D01*
G01X30328983Y9978209D01*
G01X30334825Y9938077D02*
G01X30334825Y9858067D01*
G01X30456745Y9938077D02*
G01X30456745Y9858067D01*
G01X30456745Y9921059D02*
G01X30445315Y9932489D01*
G01X30433885Y9938077D01*
G01X30416867Y9938077D01*
G01X30405437Y9932489D01*
G01X30394007Y9921059D01*
G01X30388165Y9903787D01*
G01X30388165Y9892357D01*
G01X30394007Y9875339D01*
G01X30405437Y9863909D01*
G01X30416867Y9858067D01*
G01X30433885Y9858067D01*
G01X30445315Y9863909D01*
G01X30456745Y9875339D01*
G01X33818471Y9978209D02*
G01X33818471Y9858067D01*
G01X33778339Y9978209D02*
G01X33858349Y9978209D01*
G01X33934803Y9938077D02*
G01X33923373Y9932489D01*
G01X33911943Y9921059D01*
G01X33906101Y9903787D01*
G01X33906101Y9892357D01*
G01X33911943Y9875339D01*
G01X33923373Y9863909D01*
G01X33934803Y9858067D01*
G01X33951821Y9858067D01*
G01X33963251Y9863909D01*
G01X33974681Y9875339D01*
G01X33980523Y9892357D01*
G01X33980523Y9903787D01*
G01X33974681Y9921059D01*
G01X33963251Y9932489D01*
G01X33951821Y9938077D01*
G01X33934803Y9938077D01*
G01X34028275Y9938077D02*
G01X34028275Y9818189D01*
G01X34028275Y9921059D02*
G01X34039705Y9932489D01*
G01X34051135Y9938077D01*
G01X34068407Y9938077D01*
G01X34079837Y9932489D01*
G01X34091267Y9921059D01*
G01X34096855Y9903787D01*
G01X34096855Y9892357D01*
G01X34091267Y9875339D01*
G01X34079837Y9863909D01*
G01X34068407Y9858067D01*
G01X34051135Y9858067D01*
G01X34039705Y9863909D01*
G01X34028275Y9875339D01*
G01X34272623Y9978209D02*
G01X34272623Y9858067D01*
G01X34272623Y9858067D02*
G01X34341203Y9858067D01*
G01X34457535Y9938077D02*
G01X34457535Y9858067D01*
G01X34457535Y9921059D02*
G01X34446105Y9932489D01*
G01X34434675Y9938077D01*
G01X34417657Y9938077D01*
G01X34406227Y9932489D01*
G01X34394797Y9921059D01*
G01X34388955Y9903787D01*
G01X34388955Y9892357D01*
G01X34394797Y9875339D01*
G01X34406227Y9863909D01*
G01X34417657Y9858067D01*
G01X34434675Y9858067D01*
G01X34446105Y9863909D01*
G01X34457535Y9875339D01*
G01X34511129Y9938077D02*
G01X34545419Y9858067D01*
G01X34579709Y9938077D02*
G01X34545419Y9858067D01*
G01X34533989Y9835207D01*
G01X34522559Y9823777D01*
G01X34511129Y9818189D01*
G01X34505287Y9818189D01*
G01X34627461Y9903787D02*
G01X34696041Y9903787D01*
G01X34696041Y9915217D01*
G01X34690453Y9926647D01*
G01X34684611Y9932489D01*
G01X34673181Y9938077D01*
G01X34656163Y9938077D01*
G01X34644733Y9932489D01*
G01X34633303Y9921059D01*
G01X34627461Y9903787D01*
G01X34627461Y9892357D01*
G01X34633303Y9875339D01*
G01X34644733Y9863909D01*
G01X34656163Y9858067D01*
G01X34673181Y9858067D01*
G01X34684611Y9863909D01*
G01X34696041Y9875339D01*
G01X34743793Y9938077D02*
G01X34743793Y9858067D01*
G01X34743793Y9903787D02*
G01X34749635Y9921059D01*
G01X34761065Y9932489D01*
G01X34772495Y9938077D01*
G01X34789513Y9938077D01*
G01X34837265Y9909629D02*
G01X34940135Y9909629D01*
G01X34987887Y9978209D02*
G01X34987887Y9858067D01*
G01X34987887Y9978209D02*
G01X35039449Y9978209D01*
G01X35056467Y9972367D01*
G01X35062309Y9966779D01*
G01X35067897Y9955349D01*
G01X35067897Y9943919D01*
G01X35062309Y9932489D01*
G01X35056467Y9926647D01*
G01X35039449Y9921059D01*
G01X34987887Y9921059D02*
G01X35039449Y9921059D01*
G01X35056467Y9915217D01*
G01X35062309Y9909629D01*
G01X35067897Y9898199D01*
G01X35067897Y9880927D01*
G01X35062309Y9869497D01*
G01X35056467Y9863909D01*
G01X35039449Y9858067D01*
G01X34987887Y9858067D01*
G01X35144351Y9938077D02*
G01X35132921Y9932489D01*
G01X35121491Y9921059D01*
G01X35115649Y9903787D01*
G01X35115649Y9892357D01*
G01X35121491Y9875339D01*
G01X35132921Y9863909D01*
G01X35144351Y9858067D01*
G01X35161369Y9858067D01*
G01X35172799Y9863909D01*
G01X35184229Y9875339D01*
G01X35190071Y9892357D01*
G01X35190071Y9903787D01*
G01X35184229Y9921059D01*
G01X35172799Y9932489D01*
G01X35161369Y9938077D01*
G01X35144351Y9938077D01*
G01X35255095Y9978209D02*
G01X35255095Y9880927D01*
G01X35260683Y9863909D01*
G01X35272113Y9858067D01*
G01X35283543Y9858067D01*
G01X35237823Y9938077D02*
G01X35277955Y9938077D01*
G01X35348567Y9978209D02*
G01X35348567Y9880927D01*
G01X35354155Y9863909D01*
G01X35365585Y9858067D01*
G01X35377015Y9858067D01*
G01X35331295Y9938077D02*
G01X35371427Y9938077D01*
G01X35453469Y9938077D02*
G01X35442039Y9932489D01*
G01X35430609Y9921059D01*
G01X35424767Y9903787D01*
G01X35424767Y9892357D01*
G01X35430609Y9875339D01*
G01X35442039Y9863909D01*
G01X35453469Y9858067D01*
G01X35470487Y9858067D01*
G01X35481917Y9863909D01*
G01X35493347Y9875339D01*
G01X35499189Y9892357D01*
G01X35499189Y9903787D01*
G01X35493347Y9921059D01*
G01X35481917Y9932489D01*
G01X35470487Y9938077D01*
G01X35453469Y9938077D01*
G01X35546941Y9938077D02*
G01X35546941Y9858067D01*
G01X35546941Y9915217D02*
G01X35564213Y9932489D01*
G01X35575643Y9938077D01*
G01X35592661Y9938077D01*
G01X35604091Y9932489D01*
G01X35609933Y9915217D01*
G01X35609933Y9858067D01*
G01X35609933Y9915217D02*
G01X35626951Y9932489D01*
G01X35638381Y9938077D01*
G01X35655653Y9938077D01*
G01X35667083Y9932489D01*
G01X35672671Y9915217D01*
G01X35672671Y9858067D01*
G01X35848439Y9978209D02*
G01X35848439Y9858067D01*
G01X35848439Y9858067D02*
G01X35917019Y9858067D01*
G01X36033351Y9938077D02*
G01X36033351Y9858067D01*
G01X36033351Y9921059D02*
G01X36021921Y9932489D01*
G01X36010491Y9938077D01*
G01X35993473Y9938077D01*
G01X35982043Y9932489D01*
G01X35970613Y9921059D01*
G01X35964771Y9903787D01*
G01X35964771Y9892357D01*
G01X35970613Y9875339D01*
G01X35982043Y9863909D01*
G01X35993473Y9858067D01*
G01X36010491Y9858067D01*
G01X36021921Y9863909D01*
G01X36033351Y9875339D01*
G01X36086945Y9938077D02*
G01X36121235Y9858067D01*
G01X36155525Y9938077D02*
G01X36121235Y9858067D01*
G01X36109805Y9835207D01*
G01X36098375Y9823777D01*
G01X36086945Y9818189D01*
G01X36081103Y9818189D01*
G01X36203277Y9903787D02*
G01X36271857Y9903787D01*
G01X36271857Y9915217D01*
G01X36266269Y9926647D01*
G01X36260427Y9932489D01*
G01X36248997Y9938077D01*
G01X36231979Y9938077D01*
G01X36220549Y9932489D01*
G01X36209119Y9921059D01*
G01X36203277Y9903787D01*
G01X36203277Y9892357D01*
G01X36209119Y9875339D01*
G01X36220549Y9863909D01*
G01X36231979Y9858067D01*
G01X36248997Y9858067D01*
G01X36260427Y9863909D01*
G01X36271857Y9875339D01*
G01X36319609Y9938077D02*
G01X36319609Y9858067D01*
G01X36319609Y9903787D02*
G01X36325451Y9921059D01*
G01X36336881Y9932489D01*
G01X36348311Y9938077D01*
G01X36365329Y9938077D01*
G01X22000504Y9397637D02*
G01X22063496Y9397637D01*
G01X22029206Y9351917D01*
G01X22046224Y9351917D01*
G01X22057654Y9346075D01*
G01X22063496Y9340487D01*
G01X22069084Y9323215D01*
G01X22069084Y9311785D01*
G01X22063496Y9294767D01*
G01X22052066Y9283337D01*
G01X22034794Y9277495D01*
G01X22017776Y9277495D01*
G01X22000504Y9283337D01*
G01X21994916Y9288925D01*
G01X21989074Y9300355D01*
G01X23414667Y9397637D02*
G01X23477659Y9397637D01*
G01X23443369Y9351917D01*
G01X23460387Y9351917D01*
G01X23471817Y9346075D01*
G01X23477659Y9340487D01*
G01X23483247Y9323215D01*
G01X23483247Y9311785D01*
G01X23477659Y9294767D01*
G01X23466229Y9283337D01*
G01X23448957Y9277495D01*
G01X23431939Y9277495D01*
G01X23414667Y9283337D01*
G01X23409079Y9288925D01*
G01X23403237Y9300355D01*
G01X23565289Y9397637D02*
G01X23548271Y9391795D01*
G01X23536841Y9374777D01*
G01X23530999Y9346075D01*
G01X23530999Y9329057D01*
G01X23536841Y9300355D01*
G01X23548271Y9283337D01*
G01X23565289Y9277495D01*
G01X23576719Y9277495D01*
G01X23593991Y9283337D01*
G01X23605421Y9300355D01*
G01X23611009Y9329057D01*
G01X23611009Y9346075D01*
G01X23605421Y9374777D01*
G01X23593991Y9391795D01*
G01X23576719Y9397637D01*
G01X23565289Y9397637D01*
G01X23664603Y9306197D02*
G01X23658761Y9300355D01*
G01X23664603Y9294767D01*
G01X23670191Y9300355D01*
G01X23664603Y9306197D01*
G01X23752233Y9397637D02*
G01X23735215Y9391795D01*
G01X23723785Y9374777D01*
G01X23717943Y9346075D01*
G01X23717943Y9329057D01*
G01X23723785Y9300355D01*
G01X23735215Y9283337D01*
G01X23752233Y9277495D01*
G01X23763663Y9277495D01*
G01X23780935Y9283337D01*
G01X23792365Y9300355D01*
G01X23797953Y9329057D01*
G01X23797953Y9346075D01*
G01X23792365Y9374777D01*
G01X23780935Y9391795D01*
G01X23763663Y9397637D01*
G01X23752233Y9397637D01*
G01X23845705Y9357505D02*
G01X23908697Y9277495D01*
G01X23908697Y9357505D02*
G01X23845705Y9277495D01*
G01X23967879Y9397637D02*
G01X24030871Y9397637D01*
G01X23996581Y9351917D01*
G01X24013599Y9351917D01*
G01X24025029Y9346075D01*
G01X24030871Y9340487D01*
G01X24036459Y9323215D01*
G01X24036459Y9311785D01*
G01X24030871Y9294767D01*
G01X24019441Y9283337D01*
G01X24002169Y9277495D01*
G01X23985151Y9277495D01*
G01X23967879Y9283337D01*
G01X23962291Y9288925D01*
G01X23956449Y9300355D01*
G01X24118501Y9397637D02*
G01X24101483Y9391795D01*
G01X24090053Y9374777D01*
G01X24084211Y9346075D01*
G01X24084211Y9329057D01*
G01X24090053Y9300355D01*
G01X24101483Y9283337D01*
G01X24118501Y9277495D01*
G01X24129931Y9277495D01*
G01X24147203Y9283337D01*
G01X24158633Y9300355D01*
G01X24164221Y9329057D01*
G01X24164221Y9346075D01*
G01X24158633Y9374777D01*
G01X24147203Y9391795D01*
G01X24129931Y9397637D01*
G01X24118501Y9397637D01*
G01X24217815Y9306197D02*
G01X24211973Y9300355D01*
G01X24217815Y9294767D01*
G01X24223403Y9300355D01*
G01X24217815Y9306197D01*
G01X24305445Y9397637D02*
G01X24288427Y9391795D01*
G01X24276997Y9374777D01*
G01X24271155Y9346075D01*
G01X24271155Y9329057D01*
G01X24276997Y9300355D01*
G01X24288427Y9283337D01*
G01X24305445Y9277495D01*
G01X24316875Y9277495D01*
G01X24334147Y9283337D01*
G01X24345577Y9300355D01*
G01X24351165Y9329057D01*
G01X24351165Y9346075D01*
G01X24345577Y9374777D01*
G01X24334147Y9391795D01*
G01X24316875Y9397637D01*
G01X24305445Y9397637D01*
G01X24398917Y9357505D02*
G01X24398917Y9277495D01*
G01X24398917Y9334645D02*
G01X24416189Y9351917D01*
G01X24427619Y9357505D01*
G01X24444637Y9357505D01*
G01X24456067Y9351917D01*
G01X24461909Y9334645D01*
G01X24461909Y9277495D01*
G01X24461909Y9334645D02*
G01X24478927Y9351917D01*
G01X24490357Y9357505D01*
G01X24507629Y9357505D01*
G01X24519059Y9351917D01*
G01X24524647Y9334645D01*
G01X24524647Y9277495D01*
G01X24572399Y9397637D02*
G01X24578241Y9391795D01*
G01X24583829Y9397637D01*
G01X24578241Y9403225D01*
G01X24572399Y9397637D01*
G01X24578241Y9357505D02*
G01X24578241Y9277495D01*
G01X24631581Y9397637D02*
G01X24631581Y9277495D01*
G01X24719465Y9420497D02*
G01X24708035Y9409067D01*
G01X24696605Y9391795D01*
G01X24685175Y9368935D01*
G01X24679333Y9340487D01*
G01X24679333Y9317627D01*
G01X24685175Y9288925D01*
G01X24696605Y9266065D01*
G01X24708035Y9249047D01*
G01X24719465Y9237617D01*
G01X24801507Y9397637D02*
G01X24784489Y9391795D01*
G01X24773059Y9374777D01*
G01X24767217Y9346075D01*
G01X24767217Y9329057D01*
G01X24773059Y9300355D01*
G01X24784489Y9283337D01*
G01X24801507Y9277495D01*
G01X24812937Y9277495D01*
G01X24830209Y9283337D01*
G01X24841639Y9300355D01*
G01X24847227Y9329057D01*
G01X24847227Y9346075D01*
G01X24841639Y9374777D01*
G01X24830209Y9391795D01*
G01X24812937Y9397637D01*
G01X24801507Y9397637D01*
G01X24900821Y9306197D02*
G01X24894979Y9300355D01*
G01X24900821Y9294767D01*
G01X24906409Y9300355D01*
G01X24900821Y9306197D01*
G01X25034171Y9397637D02*
G01X24977021Y9277495D01*
G01X24954161Y9397637D02*
G01X25034171Y9397637D01*
G01X25150503Y9380365D02*
G01X25144915Y9391795D01*
G01X25127643Y9397637D01*
G01X25116213Y9397637D01*
G01X25099195Y9391795D01*
G01X25087765Y9374777D01*
G01X25081923Y9346075D01*
G01X25081923Y9317627D01*
G01X25087765Y9294767D01*
G01X25099195Y9283337D01*
G01X25116213Y9277495D01*
G01X25122055Y9277495D01*
G01X25139073Y9283337D01*
G01X25150503Y9294767D01*
G01X25156345Y9311785D01*
G01X25156345Y9317627D01*
G01X25150503Y9334645D01*
G01X25139073Y9346075D01*
G01X25122055Y9351917D01*
G01X25116213Y9351917D01*
G01X25099195Y9346075D01*
G01X25087765Y9334645D01*
G01X25081923Y9317627D01*
G01X25209939Y9368935D02*
G01X25209939Y9374777D01*
G01X25215527Y9386207D01*
G01X25221369Y9391795D01*
G01X25232799Y9397637D01*
G01X25255659Y9397637D01*
G01X25267089Y9391795D01*
G01X25272677Y9386207D01*
G01X25278519Y9374777D01*
G01X25278519Y9363347D01*
G01X25272677Y9351917D01*
G01X25261247Y9334645D01*
G01X25204097Y9277495D01*
G01X25284107Y9277495D01*
G01X25331859Y9357505D02*
G01X25394851Y9277495D01*
G01X25394851Y9357505D02*
G01X25331859Y9277495D01*
G01X25476893Y9397637D02*
G01X25459875Y9391795D01*
G01X25448445Y9374777D01*
G01X25442603Y9346075D01*
G01X25442603Y9329057D01*
G01X25448445Y9300355D01*
G01X25459875Y9283337D01*
G01X25476893Y9277495D01*
G01X25488323Y9277495D01*
G01X25505595Y9283337D01*
G01X25517025Y9300355D01*
G01X25522613Y9329057D01*
G01X25522613Y9346075D01*
G01X25517025Y9374777D01*
G01X25505595Y9391795D01*
G01X25488323Y9397637D01*
G01X25476893Y9397637D01*
G01X25576207Y9306197D02*
G01X25570365Y9300355D01*
G01X25576207Y9294767D01*
G01X25581795Y9300355D01*
G01X25576207Y9306197D01*
G01X25709557Y9397637D02*
G01X25652407Y9277495D01*
G01X25629547Y9397637D02*
G01X25709557Y9397637D01*
G01X25825889Y9380365D02*
G01X25820301Y9391795D01*
G01X25803029Y9397637D01*
G01X25791599Y9397637D01*
G01X25774581Y9391795D01*
G01X25763151Y9374777D01*
G01X25757309Y9346075D01*
G01X25757309Y9317627D01*
G01X25763151Y9294767D01*
G01X25774581Y9283337D01*
G01X25791599Y9277495D01*
G01X25797441Y9277495D01*
G01X25814459Y9283337D01*
G01X25825889Y9294767D01*
G01X25831731Y9311785D01*
G01X25831731Y9317627D01*
G01X25825889Y9334645D01*
G01X25814459Y9346075D01*
G01X25797441Y9351917D01*
G01X25791599Y9351917D01*
G01X25774581Y9346075D01*
G01X25763151Y9334645D01*
G01X25757309Y9317627D01*
G01X25885325Y9368935D02*
G01X25885325Y9374777D01*
G01X25890913Y9386207D01*
G01X25896755Y9391795D01*
G01X25908185Y9397637D01*
G01X25931045Y9397637D01*
G01X25942475Y9391795D01*
G01X25948063Y9386207D01*
G01X25953905Y9374777D01*
G01X25953905Y9363347D01*
G01X25948063Y9351917D01*
G01X25936633Y9334645D01*
G01X25879483Y9277495D01*
G01X25959493Y9277495D01*
G01X26007245Y9357505D02*
G01X26007245Y9277495D01*
G01X26007245Y9334645D02*
G01X26024517Y9351917D01*
G01X26035947Y9357505D01*
G01X26052965Y9357505D01*
G01X26064395Y9351917D01*
G01X26070237Y9334645D01*
G01X26070237Y9277495D01*
G01X26070237Y9334645D02*
G01X26087255Y9351917D01*
G01X26098685Y9357505D01*
G01X26115957Y9357505D01*
G01X26127387Y9351917D01*
G01X26132975Y9334645D01*
G01X26132975Y9277495D01*
G01X26180727Y9357505D02*
G01X26180727Y9277495D01*
G01X26180727Y9334645D02*
G01X26197999Y9351917D01*
G01X26209429Y9357505D01*
G01X26226447Y9357505D01*
G01X26237877Y9351917D01*
G01X26243719Y9334645D01*
G01X26243719Y9277495D01*
G01X26243719Y9334645D02*
G01X26260737Y9351917D01*
G01X26272167Y9357505D01*
G01X26289439Y9357505D01*
G01X26300869Y9351917D01*
G01X26306457Y9334645D01*
G01X26306457Y9277495D01*
G01X26354209Y9420497D02*
G01X26365639Y9409067D01*
G01X26377069Y9391795D01*
G01X26388499Y9368935D01*
G01X26394341Y9340487D01*
G01X26394341Y9317627D01*
G01X26388499Y9288925D01*
G01X26377069Y9266065D01*
G01X26365639Y9249047D01*
G01X26354209Y9237617D01*
G01X27297203Y9397637D02*
G01X27297203Y9277495D01*
G01X27297203Y9397637D02*
G01X27348765Y9397637D01*
G01X27365783Y9391795D01*
G01X27371625Y9386207D01*
G01X27377213Y9374777D01*
G01X27377213Y9357505D01*
G01X27371625Y9346075D01*
G01X27365783Y9340487D01*
G01X27348765Y9334645D01*
G01X27297203Y9334645D01*
G01X27465097Y9397637D02*
G01X27465097Y9277495D01*
G01X27424965Y9397637D02*
G01X27504975Y9397637D01*
G01X27552727Y9397637D02*
G01X27552727Y9277495D01*
G01X27632737Y9397637D02*
G01X27632737Y9277495D01*
G01X27552727Y9340487D02*
G01X27632737Y9340487D01*
G01X28758610Y9397637D02*
G01X28758610Y9277495D01*
G01X28758610Y9397637D02*
G01X28810172Y9397637D01*
G01X28827190Y9391795D01*
G01X28833032Y9386207D01*
G01X28838620Y9374777D01*
G01X28838620Y9363347D01*
G01X28833032Y9351917D01*
G01X28827190Y9346075D01*
G01X28810172Y9340487D01*
G01X28758610Y9340487D01*
G01X28798742Y9340487D02*
G01X28838620Y9277495D01*
G01X28915074Y9357505D02*
G01X28903644Y9351917D01*
G01X28892214Y9340487D01*
G01X28886372Y9323215D01*
G01X28886372Y9311785D01*
G01X28892214Y9294767D01*
G01X28903644Y9283337D01*
G01X28915074Y9277495D01*
G01X28932092Y9277495D01*
G01X28943522Y9283337D01*
G01X28954952Y9294767D01*
G01X28960794Y9311785D01*
G01X28960794Y9323215D01*
G01X28954952Y9340487D01*
G01X28943522Y9351917D01*
G01X28932092Y9357505D01*
G01X28915074Y9357505D01*
G01X29008546Y9357505D02*
G01X29008546Y9300355D01*
G01X29014388Y9283337D01*
G01X29025818Y9277495D01*
G01X29042836Y9277495D01*
G01X29054266Y9283337D01*
G01X29071538Y9300355D01*
G01X29071538Y9357505D02*
G01X29071538Y9277495D01*
G01X29119290Y9357505D02*
G01X29119290Y9277495D01*
G01X29119290Y9334645D02*
G01X29136562Y9351917D01*
G01X29147992Y9357505D01*
G01X29165010Y9357505D01*
G01X29176440Y9351917D01*
G01X29182282Y9334645D01*
G01X29182282Y9277495D01*
G01X29298614Y9397637D02*
G01X29298614Y9277495D01*
G01X29298614Y9340487D02*
G01X29287184Y9351917D01*
G01X29275754Y9357505D01*
G01X29258736Y9357505D01*
G01X29247306Y9351917D01*
G01X29235876Y9340487D01*
G01X29230034Y9323215D01*
G01X29230034Y9311785D01*
G01X29235876Y9294767D01*
G01X29247306Y9283337D01*
G01X29258736Y9277495D01*
G01X29275754Y9277495D01*
G01X29287184Y9283337D01*
G01X29298614Y9294767D01*
G01X30189791Y9397637D02*
G01X30189791Y9277495D01*
G01X30189791Y9397637D02*
G01X30241353Y9397637D01*
G01X30258371Y9391795D01*
G01X30264213Y9386207D01*
G01X30269801Y9374777D01*
G01X30269801Y9357505D01*
G01X30264213Y9346075D01*
G01X30258371Y9340487D01*
G01X30241353Y9334645D01*
G01X30189791Y9334645D01*
G01X30386133Y9357505D02*
G01X30386133Y9277495D01*
G01X30386133Y9340487D02*
G01X30374703Y9351917D01*
G01X30363273Y9357505D01*
G01X30346255Y9357505D01*
G01X30334825Y9351917D01*
G01X30323395Y9340487D01*
G01X30317553Y9323215D01*
G01X30317553Y9311785D01*
G01X30323395Y9294767D01*
G01X30334825Y9283337D01*
G01X30346255Y9277495D01*
G01X30363273Y9277495D01*
G01X30374703Y9283337D01*
G01X30386133Y9294767D01*
G01X30502465Y9397637D02*
G01X30502465Y9277495D01*
G01X30502465Y9340487D02*
G01X30491035Y9351917D01*
G01X30479605Y9357505D01*
G01X30462587Y9357505D01*
G01X30451157Y9351917D01*
G01X30439727Y9340487D01*
G01X30433885Y9323215D01*
G01X30433885Y9311785D01*
G01X30439727Y9294767D01*
G01X30451157Y9283337D01*
G01X30462587Y9277495D01*
G01X30479605Y9277495D01*
G01X30491035Y9283337D01*
G01X30502465Y9294767D01*
G01X31858970Y9397637D02*
G01X31858970Y9277495D01*
G01X31858970Y9397637D02*
G01X31910532Y9397637D01*
G01X31927550Y9391795D01*
G01X31933392Y9386207D01*
G01X31938980Y9374777D01*
G01X31938980Y9363347D01*
G01X31933392Y9351917D01*
G01X31927550Y9346075D01*
G01X31910532Y9340487D01*
G01X31858970Y9340487D01*
G01X31899102Y9340487D02*
G01X31938980Y9277495D01*
G01X32015434Y9357505D02*
G01X32004004Y9351917D01*
G01X31992574Y9340487D01*
G01X31986732Y9323215D01*
G01X31986732Y9311785D01*
G01X31992574Y9294767D01*
G01X32004004Y9283337D01*
G01X32015434Y9277495D01*
G01X32032452Y9277495D01*
G01X32043882Y9283337D01*
G01X32055312Y9294767D01*
G01X32061154Y9311785D01*
G01X32061154Y9323215D01*
G01X32055312Y9340487D01*
G01X32043882Y9351917D01*
G01X32032452Y9357505D01*
G01X32015434Y9357505D01*
G01X32108906Y9357505D02*
G01X32108906Y9300355D01*
G01X32114748Y9283337D01*
G01X32126178Y9277495D01*
G01X32143196Y9277495D01*
G01X32154626Y9283337D01*
G01X32171898Y9300355D01*
G01X32171898Y9357505D02*
G01X32171898Y9277495D01*
G01X32219650Y9357505D02*
G01X32219650Y9277495D01*
G01X32219650Y9334645D02*
G01X32236922Y9351917D01*
G01X32248352Y9357505D01*
G01X32265370Y9357505D01*
G01X32276800Y9351917D01*
G01X32282642Y9334645D01*
G01X32282642Y9277495D01*
G01X32398974Y9397637D02*
G01X32398974Y9277495D01*
G01X32398974Y9340487D02*
G01X32387544Y9351917D01*
G01X32376114Y9357505D01*
G01X32359096Y9357505D01*
G01X32347666Y9351917D01*
G01X32336236Y9340487D01*
G01X32330394Y9323215D01*
G01X32330394Y9311785D01*
G01X32336236Y9294767D01*
G01X32347666Y9283337D01*
G01X32359096Y9277495D01*
G01X32376114Y9277495D01*
G01X32387544Y9283337D01*
G01X32398974Y9294767D01*
G01X33818471Y9397637D02*
G01X33818471Y9277495D01*
G01X33778339Y9397637D02*
G01X33858349Y9397637D01*
G01X33934803Y9357505D02*
G01X33923373Y9351917D01*
G01X33911943Y9340487D01*
G01X33906101Y9323215D01*
G01X33906101Y9311785D01*
G01X33911943Y9294767D01*
G01X33923373Y9283337D01*
G01X33934803Y9277495D01*
G01X33951821Y9277495D01*
G01X33963251Y9283337D01*
G01X33974681Y9294767D01*
G01X33980523Y9311785D01*
G01X33980523Y9323215D01*
G01X33974681Y9340487D01*
G01X33963251Y9351917D01*
G01X33951821Y9357505D01*
G01X33934803Y9357505D01*
G01X34028275Y9357505D02*
G01X34028275Y9237617D01*
G01X34028275Y9340487D02*
G01X34039705Y9351917D01*
G01X34051135Y9357505D01*
G01X34068407Y9357505D01*
G01X34079837Y9351917D01*
G01X34091267Y9340487D01*
G01X34096855Y9323215D01*
G01X34096855Y9311785D01*
G01X34091267Y9294767D01*
G01X34079837Y9283337D01*
G01X34068407Y9277495D01*
G01X34051135Y9277495D01*
G01X34039705Y9283337D01*
G01X34028275Y9294767D01*
G01X34272623Y9397637D02*
G01X34272623Y9277495D01*
G01X34272623Y9277495D02*
G01X34341203Y9277495D01*
G01X34457535Y9357505D02*
G01X34457535Y9277495D01*
G01X34457535Y9340487D02*
G01X34446105Y9351917D01*
G01X34434675Y9357505D01*
G01X34417657Y9357505D01*
G01X34406227Y9351917D01*
G01X34394797Y9340487D01*
G01X34388955Y9323215D01*
G01X34388955Y9311785D01*
G01X34394797Y9294767D01*
G01X34406227Y9283337D01*
G01X34417657Y9277495D01*
G01X34434675Y9277495D01*
G01X34446105Y9283337D01*
G01X34457535Y9294767D01*
G01X34511129Y9357505D02*
G01X34545419Y9277495D01*
G01X34579709Y9357505D02*
G01X34545419Y9277495D01*
G01X34533989Y9254635D01*
G01X34522559Y9243205D01*
G01X34511129Y9237617D01*
G01X34505287Y9237617D01*
G01X34627461Y9323215D02*
G01X34696041Y9323215D01*
G01X34696041Y9334645D01*
G01X34690453Y9346075D01*
G01X34684611Y9351917D01*
G01X34673181Y9357505D01*
G01X34656163Y9357505D01*
G01X34644733Y9351917D01*
G01X34633303Y9340487D01*
G01X34627461Y9323215D01*
G01X34627461Y9311785D01*
G01X34633303Y9294767D01*
G01X34644733Y9283337D01*
G01X34656163Y9277495D01*
G01X34673181Y9277495D01*
G01X34684611Y9283337D01*
G01X34696041Y9294767D01*
G01X34743793Y9357505D02*
G01X34743793Y9277495D01*
G01X34743793Y9323215D02*
G01X34749635Y9340487D01*
G01X34761065Y9351917D01*
G01X34772495Y9357505D01*
G01X34789513Y9357505D01*
G01X34837265Y9329057D02*
G01X34940135Y9329057D01*
G01X34987887Y9397637D02*
G01X34987887Y9277495D01*
G01X34987887Y9397637D02*
G01X35039449Y9397637D01*
G01X35056467Y9391795D01*
G01X35062309Y9386207D01*
G01X35067897Y9374777D01*
G01X35067897Y9363347D01*
G01X35062309Y9351917D01*
G01X35056467Y9346075D01*
G01X35039449Y9340487D01*
G01X34987887Y9340487D02*
G01X35039449Y9340487D01*
G01X35056467Y9334645D01*
G01X35062309Y9329057D01*
G01X35067897Y9317627D01*
G01X35067897Y9300355D01*
G01X35062309Y9288925D01*
G01X35056467Y9283337D01*
G01X35039449Y9277495D01*
G01X34987887Y9277495D01*
G01X35144351Y9357505D02*
G01X35132921Y9351917D01*
G01X35121491Y9340487D01*
G01X35115649Y9323215D01*
G01X35115649Y9311785D01*
G01X35121491Y9294767D01*
G01X35132921Y9283337D01*
G01X35144351Y9277495D01*
G01X35161369Y9277495D01*
G01X35172799Y9283337D01*
G01X35184229Y9294767D01*
G01X35190071Y9311785D01*
G01X35190071Y9323215D01*
G01X35184229Y9340487D01*
G01X35172799Y9351917D01*
G01X35161369Y9357505D01*
G01X35144351Y9357505D01*
G01X35255095Y9397637D02*
G01X35255095Y9300355D01*
G01X35260683Y9283337D01*
G01X35272113Y9277495D01*
G01X35283543Y9277495D01*
G01X35237823Y9357505D02*
G01X35277955Y9357505D01*
G01X35348567Y9397637D02*
G01X35348567Y9300355D01*
G01X35354155Y9283337D01*
G01X35365585Y9277495D01*
G01X35377015Y9277495D01*
G01X35331295Y9357505D02*
G01X35371427Y9357505D01*
G01X35453469Y9357505D02*
G01X35442039Y9351917D01*
G01X35430609Y9340487D01*
G01X35424767Y9323215D01*
G01X35424767Y9311785D01*
G01X35430609Y9294767D01*
G01X35442039Y9283337D01*
G01X35453469Y9277495D01*
G01X35470487Y9277495D01*
G01X35481917Y9283337D01*
G01X35493347Y9294767D01*
G01X35499189Y9311785D01*
G01X35499189Y9323215D01*
G01X35493347Y9340487D01*
G01X35481917Y9351917D01*
G01X35470487Y9357505D01*
G01X35453469Y9357505D01*
G01X35546941Y9357505D02*
G01X35546941Y9277495D01*
G01X35546941Y9334645D02*
G01X35564213Y9351917D01*
G01X35575643Y9357505D01*
G01X35592661Y9357505D01*
G01X35604091Y9351917D01*
G01X35609933Y9334645D01*
G01X35609933Y9277495D01*
G01X35609933Y9334645D02*
G01X35626951Y9351917D01*
G01X35638381Y9357505D01*
G01X35655653Y9357505D01*
G01X35667083Y9351917D01*
G01X35672671Y9334645D01*
G01X35672671Y9277495D01*
G01X35848439Y9397637D02*
G01X35848439Y9277495D01*
G01X35848439Y9277495D02*
G01X35917019Y9277495D01*
G01X36033351Y9357505D02*
G01X36033351Y9277495D01*
G01X36033351Y9340487D02*
G01X36021921Y9351917D01*
G01X36010491Y9357505D01*
G01X35993473Y9357505D01*
G01X35982043Y9351917D01*
G01X35970613Y9340487D01*
G01X35964771Y9323215D01*
G01X35964771Y9311785D01*
G01X35970613Y9294767D01*
G01X35982043Y9283337D01*
G01X35993473Y9277495D01*
G01X36010491Y9277495D01*
G01X36021921Y9283337D01*
G01X36033351Y9294767D01*
G01X36086945Y9357505D02*
G01X36121235Y9277495D01*
G01X36155525Y9357505D02*
G01X36121235Y9277495D01*
G01X36109805Y9254635D01*
G01X36098375Y9243205D01*
G01X36086945Y9237617D01*
G01X36081103Y9237617D01*
G01X36203277Y9323215D02*
G01X36271857Y9323215D01*
G01X36271857Y9334645D01*
G01X36266269Y9346075D01*
G01X36260427Y9351917D01*
G01X36248997Y9357505D01*
G01X36231979Y9357505D01*
G01X36220549Y9351917D01*
G01X36209119Y9340487D01*
G01X36203277Y9323215D01*
G01X36203277Y9311785D01*
G01X36209119Y9294767D01*
G01X36220549Y9283337D01*
G01X36231979Y9277495D01*
G01X36248997Y9277495D01*
G01X36260427Y9283337D01*
G01X36271857Y9294767D01*
G01X36319609Y9357505D02*
G01X36319609Y9277495D01*
G01X36319609Y9323215D02*
G01X36325451Y9340487D01*
G01X36336881Y9351917D01*
G01X36348311Y9357505D01*
G01X36365329Y9357505D01*
G01X22046224Y8817066D02*
G01X21989074Y8737056D01*
G01X22074926Y8737056D01*
G01X22046224Y8817066D02*
G01X22046224Y8696924D01*
G01X23460387Y8817066D02*
G01X23403237Y8737056D01*
G01X23489089Y8737056D01*
G01X23460387Y8817066D02*
G01X23460387Y8696924D01*
G01X23616851Y8817066D02*
G01X23559701Y8696924D01*
G01X23536841Y8817066D02*
G01X23616851Y8817066D01*
G01X23670445Y8725626D02*
G01X23664603Y8719784D01*
G01X23670445Y8714196D01*
G01X23676033Y8719784D01*
G01X23670445Y8725626D01*
G01X23729627Y8788364D02*
G01X23729627Y8794206D01*
G01X23735215Y8805636D01*
G01X23741057Y8811224D01*
G01X23752487Y8817066D01*
G01X23775347Y8817066D01*
G01X23786777Y8811224D01*
G01X23792365Y8805636D01*
G01X23798207Y8794206D01*
G01X23798207Y8782776D01*
G01X23792365Y8771346D01*
G01X23780935Y8754074D01*
G01X23723785Y8696924D01*
G01X23803795Y8696924D01*
G01X23851547Y8776934D02*
G01X23914539Y8696924D01*
G01X23914539Y8776934D02*
G01X23851547Y8696924D01*
G01X24019441Y8817066D02*
G01X23962291Y8737056D01*
G01X24048143Y8737056D01*
G01X24019441Y8817066D02*
G01X24019441Y8696924D01*
G01X24175905Y8817066D02*
G01X24118755Y8696924D01*
G01X24095895Y8817066D02*
G01X24175905Y8817066D01*
G01X24229499Y8725626D02*
G01X24223657Y8719784D01*
G01X24229499Y8714196D01*
G01X24235087Y8719784D01*
G01X24229499Y8725626D01*
G01X24288681Y8788364D02*
G01X24288681Y8794206D01*
G01X24294269Y8805636D01*
G01X24300111Y8811224D01*
G01X24311541Y8817066D01*
G01X24334401Y8817066D01*
G01X24345831Y8811224D01*
G01X24351419Y8805636D01*
G01X24357261Y8794206D01*
G01X24357261Y8782776D01*
G01X24351419Y8771346D01*
G01X24339989Y8754074D01*
G01X24282839Y8696924D01*
G01X24362849Y8696924D01*
G01X24410601Y8776934D02*
G01X24410601Y8696924D01*
G01X24410601Y8754074D02*
G01X24427873Y8771346D01*
G01X24439303Y8776934D01*
G01X24456321Y8776934D01*
G01X24467751Y8771346D01*
G01X24473593Y8754074D01*
G01X24473593Y8696924D01*
G01X24473593Y8754074D02*
G01X24490611Y8771346D01*
G01X24502041Y8776934D01*
G01X24519313Y8776934D01*
G01X24530743Y8771346D01*
G01X24536331Y8754074D01*
G01X24536331Y8696924D01*
G01X24584083Y8817066D02*
G01X24589925Y8811224D01*
G01X24595513Y8817066D01*
G01X24589925Y8822654D01*
G01X24584083Y8817066D01*
G01X24589925Y8776934D02*
G01X24589925Y8696924D01*
G01X24643265Y8817066D02*
G01X24643265Y8696924D01*
G01X24731149Y8839926D02*
G01X24719719Y8828496D01*
G01X24708289Y8811224D01*
G01X24696859Y8788364D01*
G01X24691017Y8759916D01*
G01X24691017Y8737056D01*
G01X24696859Y8708354D01*
G01X24708289Y8685494D01*
G01X24719719Y8668476D01*
G01X24731149Y8657046D01*
G01X24778901Y8794206D02*
G01X24790331Y8799794D01*
G01X24807603Y8817066D01*
G01X24807603Y8696924D01*
G01X24861197Y8725626D02*
G01X24855355Y8719784D01*
G01X24861197Y8714196D01*
G01X24866785Y8719784D01*
G01X24861197Y8725626D01*
G01X24920379Y8788364D02*
G01X24920379Y8794206D01*
G01X24925967Y8805636D01*
G01X24931809Y8811224D01*
G01X24943239Y8817066D01*
G01X24966099Y8817066D01*
G01X24977529Y8811224D01*
G01X24983117Y8805636D01*
G01X24988959Y8794206D01*
G01X24988959Y8782776D01*
G01X24983117Y8771346D01*
G01X24971687Y8754074D01*
G01X24914537Y8696924D01*
G01X24994547Y8696924D01*
G01X25076589Y8817066D02*
G01X25059571Y8811224D01*
G01X25048141Y8794206D01*
G01X25042299Y8765504D01*
G01X25042299Y8748486D01*
G01X25048141Y8719784D01*
G01X25059571Y8702766D01*
G01X25076589Y8696924D01*
G01X25088019Y8696924D01*
G01X25105291Y8702766D01*
G01X25116721Y8719784D01*
G01X25122309Y8748486D01*
G01X25122309Y8765504D01*
G01X25116721Y8794206D01*
G01X25105291Y8811224D01*
G01X25088019Y8817066D01*
G01X25076589Y8817066D01*
G01X25204351Y8817066D02*
G01X25187333Y8811224D01*
G01X25175903Y8794206D01*
G01X25170061Y8765504D01*
G01X25170061Y8748486D01*
G01X25175903Y8719784D01*
G01X25187333Y8702766D01*
G01X25204351Y8696924D01*
G01X25215781Y8696924D01*
G01X25233053Y8702766D01*
G01X25244483Y8719784D01*
G01X25250071Y8748486D01*
G01X25250071Y8765504D01*
G01X25244483Y8794206D01*
G01X25233053Y8811224D01*
G01X25215781Y8817066D01*
G01X25204351Y8817066D01*
G01X25297823Y8776934D02*
G01X25360815Y8696924D01*
G01X25360815Y8776934D02*
G01X25297823Y8696924D01*
G01X25408567Y8794206D02*
G01X25419997Y8799794D01*
G01X25437269Y8817066D01*
G01X25437269Y8696924D01*
G01X25490863Y8725626D02*
G01X25485021Y8719784D01*
G01X25490863Y8714196D01*
G01X25496451Y8719784D01*
G01X25490863Y8725626D01*
G01X25550045Y8788364D02*
G01X25550045Y8794206D01*
G01X25555633Y8805636D01*
G01X25561475Y8811224D01*
G01X25572905Y8817066D01*
G01X25595765Y8817066D01*
G01X25607195Y8811224D01*
G01X25612783Y8805636D01*
G01X25618625Y8794206D01*
G01X25618625Y8782776D01*
G01X25612783Y8771346D01*
G01X25601353Y8754074D01*
G01X25544203Y8696924D01*
G01X25624213Y8696924D01*
G01X25706255Y8817066D02*
G01X25689237Y8811224D01*
G01X25677807Y8794206D01*
G01X25671965Y8765504D01*
G01X25671965Y8748486D01*
G01X25677807Y8719784D01*
G01X25689237Y8702766D01*
G01X25706255Y8696924D01*
G01X25717685Y8696924D01*
G01X25734957Y8702766D01*
G01X25746387Y8719784D01*
G01X25751975Y8748486D01*
G01X25751975Y8765504D01*
G01X25746387Y8794206D01*
G01X25734957Y8811224D01*
G01X25717685Y8817066D01*
G01X25706255Y8817066D01*
G01X25834017Y8817066D02*
G01X25816999Y8811224D01*
G01X25805569Y8794206D01*
G01X25799727Y8765504D01*
G01X25799727Y8748486D01*
G01X25805569Y8719784D01*
G01X25816999Y8702766D01*
G01X25834017Y8696924D01*
G01X25845447Y8696924D01*
G01X25862719Y8702766D01*
G01X25874149Y8719784D01*
G01X25879737Y8748486D01*
G01X25879737Y8765504D01*
G01X25874149Y8794206D01*
G01X25862719Y8811224D01*
G01X25845447Y8817066D01*
G01X25834017Y8817066D01*
G01X25927489Y8776934D02*
G01X25927489Y8696924D01*
G01X25927489Y8754074D02*
G01X25944761Y8771346D01*
G01X25956191Y8776934D01*
G01X25973209Y8776934D01*
G01X25984639Y8771346D01*
G01X25990481Y8754074D01*
G01X25990481Y8696924D01*
G01X25990481Y8754074D02*
G01X26007499Y8771346D01*
G01X26018929Y8776934D01*
G01X26036201Y8776934D01*
G01X26047631Y8771346D01*
G01X26053219Y8754074D01*
G01X26053219Y8696924D01*
G01X26100971Y8776934D02*
G01X26100971Y8696924D01*
G01X26100971Y8754074D02*
G01X26118243Y8771346D01*
G01X26129673Y8776934D01*
G01X26146691Y8776934D01*
G01X26158121Y8771346D01*
G01X26163963Y8754074D01*
G01X26163963Y8696924D01*
G01X26163963Y8754074D02*
G01X26180981Y8771346D01*
G01X26192411Y8776934D01*
G01X26209683Y8776934D01*
G01X26221113Y8771346D01*
G01X26226701Y8754074D01*
G01X26226701Y8696924D01*
G01X26274453Y8839926D02*
G01X26285883Y8828496D01*
G01X26297313Y8811224D01*
G01X26308743Y8788364D01*
G01X26314585Y8759916D01*
G01X26314585Y8737056D01*
G01X26308743Y8708354D01*
G01X26297313Y8685494D01*
G01X26285883Y8668476D01*
G01X26274453Y8657046D01*
G01X27297203Y8817066D02*
G01X27297203Y8696924D01*
G01X27297203Y8817066D02*
G01X27348765Y8817066D01*
G01X27365783Y8811224D01*
G01X27371625Y8805636D01*
G01X27377213Y8794206D01*
G01X27377213Y8776934D01*
G01X27371625Y8765504D01*
G01X27365783Y8759916D01*
G01X27348765Y8754074D01*
G01X27297203Y8754074D01*
G01X27465097Y8817066D02*
G01X27465097Y8696924D01*
G01X27424965Y8817066D02*
G01X27504975Y8817066D01*
G01X27552727Y8817066D02*
G01X27552727Y8696924D01*
G01X27632737Y8817066D02*
G01X27632737Y8696924D01*
G01X27552727Y8759916D02*
G01X27632737Y8759916D01*
G01X28758610Y8817066D02*
G01X28758610Y8696924D01*
G01X28758610Y8817066D02*
G01X28810172Y8817066D01*
G01X28827190Y8811224D01*
G01X28833032Y8805636D01*
G01X28838620Y8794206D01*
G01X28838620Y8782776D01*
G01X28833032Y8771346D01*
G01X28827190Y8765504D01*
G01X28810172Y8759916D01*
G01X28758610Y8759916D01*
G01X28798742Y8759916D02*
G01X28838620Y8696924D01*
G01X28915074Y8776934D02*
G01X28903644Y8771346D01*
G01X28892214Y8759916D01*
G01X28886372Y8742644D01*
G01X28886372Y8731214D01*
G01X28892214Y8714196D01*
G01X28903644Y8702766D01*
G01X28915074Y8696924D01*
G01X28932092Y8696924D01*
G01X28943522Y8702766D01*
G01X28954952Y8714196D01*
G01X28960794Y8731214D01*
G01X28960794Y8742644D01*
G01X28954952Y8759916D01*
G01X28943522Y8771346D01*
G01X28932092Y8776934D01*
G01X28915074Y8776934D01*
G01X29008546Y8776934D02*
G01X29008546Y8719784D01*
G01X29014388Y8702766D01*
G01X29025818Y8696924D01*
G01X29042836Y8696924D01*
G01X29054266Y8702766D01*
G01X29071538Y8719784D01*
G01X29071538Y8776934D02*
G01X29071538Y8696924D01*
G01X29119290Y8776934D02*
G01X29119290Y8696924D01*
G01X29119290Y8754074D02*
G01X29136562Y8771346D01*
G01X29147992Y8776934D01*
G01X29165010Y8776934D01*
G01X29176440Y8771346D01*
G01X29182282Y8754074D01*
G01X29182282Y8696924D01*
G01X29298614Y8817066D02*
G01X29298614Y8696924D01*
G01X29298614Y8759916D02*
G01X29287184Y8771346D01*
G01X29275754Y8776934D01*
G01X29258736Y8776934D01*
G01X29247306Y8771346D01*
G01X29235876Y8759916D01*
G01X29230034Y8742644D01*
G01X29230034Y8731214D01*
G01X29235876Y8714196D01*
G01X29247306Y8702766D01*
G01X29258736Y8696924D01*
G01X29275754Y8696924D01*
G01X29287184Y8702766D01*
G01X29298614Y8714196D01*
G01X30189791Y8817066D02*
G01X30189791Y8696924D01*
G01X30189791Y8817066D02*
G01X30241353Y8817066D01*
G01X30258371Y8811224D01*
G01X30264213Y8805636D01*
G01X30269801Y8794206D01*
G01X30269801Y8776934D01*
G01X30264213Y8765504D01*
G01X30258371Y8759916D01*
G01X30241353Y8754074D01*
G01X30189791Y8754074D01*
G01X30386133Y8776934D02*
G01X30386133Y8696924D01*
G01X30386133Y8759916D02*
G01X30374703Y8771346D01*
G01X30363273Y8776934D01*
G01X30346255Y8776934D01*
G01X30334825Y8771346D01*
G01X30323395Y8759916D01*
G01X30317553Y8742644D01*
G01X30317553Y8731214D01*
G01X30323395Y8714196D01*
G01X30334825Y8702766D01*
G01X30346255Y8696924D01*
G01X30363273Y8696924D01*
G01X30374703Y8702766D01*
G01X30386133Y8714196D01*
G01X30502465Y8817066D02*
G01X30502465Y8696924D01*
G01X30502465Y8759916D02*
G01X30491035Y8771346D01*
G01X30479605Y8776934D01*
G01X30462587Y8776934D01*
G01X30451157Y8771346D01*
G01X30439727Y8759916D01*
G01X30433885Y8742644D01*
G01X30433885Y8731214D01*
G01X30439727Y8714196D01*
G01X30451157Y8702766D01*
G01X30462587Y8696924D01*
G01X30479605Y8696924D01*
G01X30491035Y8702766D01*
G01X30502465Y8714196D01*
G01X31899102Y8839926D02*
G01X31887672Y8828496D01*
G01X31876242Y8811224D01*
G01X31864812Y8788364D01*
G01X31858970Y8759916D01*
G01X31858970Y8737056D01*
G01X31864812Y8708354D01*
G01X31876242Y8685494D01*
G01X31887672Y8668476D01*
G01X31899102Y8657046D01*
G01X31946854Y8817066D02*
G01X31946854Y8696924D01*
G01X31946854Y8817066D02*
G01X31992574Y8696924D01*
G01X32038294Y8817066D02*
G01X31992574Y8696924D01*
G01X32038294Y8817066D02*
G01X32038294Y8696924D01*
G01X32086046Y8817066D02*
G01X32091888Y8811224D01*
G01X32097476Y8817066D01*
G01X32091888Y8822654D01*
G01X32086046Y8817066D01*
G01X32091888Y8776934D02*
G01X32091888Y8696924D01*
G01X32145228Y8776934D02*
G01X32208220Y8696924D01*
G01X32208220Y8776934D02*
G01X32145228Y8696924D01*
G01X32255972Y8742644D02*
G01X32324552Y8742644D01*
G01X32324552Y8754074D01*
G01X32318964Y8765504D01*
G01X32313122Y8771346D01*
G01X32301692Y8776934D01*
G01X32284674Y8776934D01*
G01X32273244Y8771346D01*
G01X32261814Y8759916D01*
G01X32255972Y8742644D01*
G01X32255972Y8731214D01*
G01X32261814Y8714196D01*
G01X32273244Y8702766D01*
G01X32284674Y8696924D01*
G01X32301692Y8696924D01*
G01X32313122Y8702766D01*
G01X32324552Y8714196D01*
G01X32440884Y8817066D02*
G01X32440884Y8696924D01*
G01X32440884Y8759916D02*
G01X32429454Y8771346D01*
G01X32418024Y8776934D01*
G01X32401006Y8776934D01*
G01X32389576Y8771346D01*
G01X32378146Y8759916D01*
G01X32372304Y8742644D01*
G01X32372304Y8731214D01*
G01X32378146Y8714196D01*
G01X32389576Y8702766D01*
G01X32401006Y8696924D01*
G01X32418024Y8696924D01*
G01X32429454Y8702766D01*
G01X32440884Y8714196D01*
G01X32488636Y8839926D02*
G01X32500066Y8828496D01*
G01X32511496Y8811224D01*
G01X32522926Y8788364D01*
G01X32528768Y8759916D01*
G01X32528768Y8737056D01*
G01X32522926Y8708354D01*
G01X32511496Y8685494D01*
G01X32500066Y8668476D01*
G01X32488636Y8657046D01*
G01X33818471Y8817066D02*
G01X33818471Y8696924D01*
G01X33778339Y8817066D02*
G01X33858349Y8817066D01*
G01X33934803Y8776934D02*
G01X33923373Y8771346D01*
G01X33911943Y8759916D01*
G01X33906101Y8742644D01*
G01X33906101Y8731214D01*
G01X33911943Y8714196D01*
G01X33923373Y8702766D01*
G01X33934803Y8696924D01*
G01X33951821Y8696924D01*
G01X33963251Y8702766D01*
G01X33974681Y8714196D01*
G01X33980523Y8731214D01*
G01X33980523Y8742644D01*
G01X33974681Y8759916D01*
G01X33963251Y8771346D01*
G01X33951821Y8776934D01*
G01X33934803Y8776934D01*
G01X34028275Y8776934D02*
G01X34028275Y8657046D01*
G01X34028275Y8759916D02*
G01X34039705Y8771346D01*
G01X34051135Y8776934D01*
G01X34068407Y8776934D01*
G01X34079837Y8771346D01*
G01X34091267Y8759916D01*
G01X34096855Y8742644D01*
G01X34096855Y8731214D01*
G01X34091267Y8714196D01*
G01X34079837Y8702766D01*
G01X34068407Y8696924D01*
G01X34051135Y8696924D01*
G01X34039705Y8702766D01*
G01X34028275Y8714196D01*
G01X34272623Y8817066D02*
G01X34272623Y8696924D01*
G01X34272623Y8696924D02*
G01X34341203Y8696924D01*
G01X34457535Y8776934D02*
G01X34457535Y8696924D01*
G01X34457535Y8759916D02*
G01X34446105Y8771346D01*
G01X34434675Y8776934D01*
G01X34417657Y8776934D01*
G01X34406227Y8771346D01*
G01X34394797Y8759916D01*
G01X34388955Y8742644D01*
G01X34388955Y8731214D01*
G01X34394797Y8714196D01*
G01X34406227Y8702766D01*
G01X34417657Y8696924D01*
G01X34434675Y8696924D01*
G01X34446105Y8702766D01*
G01X34457535Y8714196D01*
G01X34511129Y8776934D02*
G01X34545419Y8696924D01*
G01X34579709Y8776934D02*
G01X34545419Y8696924D01*
G01X34533989Y8674064D01*
G01X34522559Y8662634D01*
G01X34511129Y8657046D01*
G01X34505287Y8657046D01*
G01X34627461Y8742644D02*
G01X34696041Y8742644D01*
G01X34696041Y8754074D01*
G01X34690453Y8765504D01*
G01X34684611Y8771346D01*
G01X34673181Y8776934D01*
G01X34656163Y8776934D01*
G01X34644733Y8771346D01*
G01X34633303Y8759916D01*
G01X34627461Y8742644D01*
G01X34627461Y8731214D01*
G01X34633303Y8714196D01*
G01X34644733Y8702766D01*
G01X34656163Y8696924D01*
G01X34673181Y8696924D01*
G01X34684611Y8702766D01*
G01X34696041Y8714196D01*
G01X34743793Y8776934D02*
G01X34743793Y8696924D01*
G01X34743793Y8742644D02*
G01X34749635Y8759916D01*
G01X34761065Y8771346D01*
G01X34772495Y8776934D01*
G01X34789513Y8776934D01*
G01X34837265Y8748486D02*
G01X34940135Y8748486D01*
G01X34987887Y8817066D02*
G01X34987887Y8696924D01*
G01X34987887Y8817066D02*
G01X35039449Y8817066D01*
G01X35056467Y8811224D01*
G01X35062309Y8805636D01*
G01X35067897Y8794206D01*
G01X35067897Y8782776D01*
G01X35062309Y8771346D01*
G01X35056467Y8765504D01*
G01X35039449Y8759916D01*
G01X34987887Y8759916D02*
G01X35039449Y8759916D01*
G01X35056467Y8754074D01*
G01X35062309Y8748486D01*
G01X35067897Y8737056D01*
G01X35067897Y8719784D01*
G01X35062309Y8708354D01*
G01X35056467Y8702766D01*
G01X35039449Y8696924D01*
G01X34987887Y8696924D01*
G01X35144351Y8776934D02*
G01X35132921Y8771346D01*
G01X35121491Y8759916D01*
G01X35115649Y8742644D01*
G01X35115649Y8731214D01*
G01X35121491Y8714196D01*
G01X35132921Y8702766D01*
G01X35144351Y8696924D01*
G01X35161369Y8696924D01*
G01X35172799Y8702766D01*
G01X35184229Y8714196D01*
G01X35190071Y8731214D01*
G01X35190071Y8742644D01*
G01X35184229Y8759916D01*
G01X35172799Y8771346D01*
G01X35161369Y8776934D01*
G01X35144351Y8776934D01*
G01X35255095Y8817066D02*
G01X35255095Y8719784D01*
G01X35260683Y8702766D01*
G01X35272113Y8696924D01*
G01X35283543Y8696924D01*
G01X35237823Y8776934D02*
G01X35277955Y8776934D01*
G01X35348567Y8817066D02*
G01X35348567Y8719784D01*
G01X35354155Y8702766D01*
G01X35365585Y8696924D01*
G01X35377015Y8696924D01*
G01X35331295Y8776934D02*
G01X35371427Y8776934D01*
G01X35453469Y8776934D02*
G01X35442039Y8771346D01*
G01X35430609Y8759916D01*
G01X35424767Y8742644D01*
G01X35424767Y8731214D01*
G01X35430609Y8714196D01*
G01X35442039Y8702766D01*
G01X35453469Y8696924D01*
G01X35470487Y8696924D01*
G01X35481917Y8702766D01*
G01X35493347Y8714196D01*
G01X35499189Y8731214D01*
G01X35499189Y8742644D01*
G01X35493347Y8759916D01*
G01X35481917Y8771346D01*
G01X35470487Y8776934D01*
G01X35453469Y8776934D01*
G01X35546941Y8776934D02*
G01X35546941Y8696924D01*
G01X35546941Y8754074D02*
G01X35564213Y8771346D01*
G01X35575643Y8776934D01*
G01X35592661Y8776934D01*
G01X35604091Y8771346D01*
G01X35609933Y8754074D01*
G01X35609933Y8696924D01*
G01X35609933Y8754074D02*
G01X35626951Y8771346D01*
G01X35638381Y8776934D01*
G01X35655653Y8776934D01*
G01X35667083Y8771346D01*
G01X35672671Y8754074D01*
G01X35672671Y8696924D01*
G01X35848439Y8817066D02*
G01X35848439Y8696924D01*
G01X35848439Y8696924D02*
G01X35917019Y8696924D01*
G01X36033351Y8776934D02*
G01X36033351Y8696924D01*
G01X36033351Y8759916D02*
G01X36021921Y8771346D01*
G01X36010491Y8776934D01*
G01X35993473Y8776934D01*
G01X35982043Y8771346D01*
G01X35970613Y8759916D01*
G01X35964771Y8742644D01*
G01X35964771Y8731214D01*
G01X35970613Y8714196D01*
G01X35982043Y8702766D01*
G01X35993473Y8696924D01*
G01X36010491Y8696924D01*
G01X36021921Y8702766D01*
G01X36033351Y8714196D01*
G01X36086945Y8776934D02*
G01X36121235Y8696924D01*
G01X36155525Y8776934D02*
G01X36121235Y8696924D01*
G01X36109805Y8674064D01*
G01X36098375Y8662634D01*
G01X36086945Y8657046D01*
G01X36081103Y8657046D01*
G01X36203277Y8742644D02*
G01X36271857Y8742644D01*
G01X36271857Y8754074D01*
G01X36266269Y8765504D01*
G01X36260427Y8771346D01*
G01X36248997Y8776934D01*
G01X36231979Y8776934D01*
G01X36220549Y8771346D01*
G01X36209119Y8759916D01*
G01X36203277Y8742644D01*
G01X36203277Y8731214D01*
G01X36209119Y8714196D01*
G01X36220549Y8702766D01*
G01X36231979Y8696924D01*
G01X36248997Y8696924D01*
G01X36260427Y8702766D01*
G01X36271857Y8714196D01*
G01X36319609Y8776934D02*
G01X36319609Y8696924D01*
G01X36319609Y8742644D02*
G01X36325451Y8759916D01*
G01X36336881Y8771346D01*
G01X36348311Y8776934D01*
G01X36365329Y8776934D01*
G01X22017776Y8236494D02*
G01X22000504Y8230652D01*
G01X21994916Y8219222D01*
G01X21994916Y8207792D01*
G01X22000504Y8196362D01*
G01X22011934Y8190774D01*
G01X22034794Y8184932D01*
G01X22052066Y8179344D01*
G01X22063496Y8167914D01*
G01X22069084Y8156484D01*
G01X22069084Y8139212D01*
G01X22063496Y8127782D01*
G01X22057654Y8122194D01*
G01X22040636Y8116352D01*
G01X22017776Y8116352D01*
G01X22000504Y8122194D01*
G01X21994916Y8127782D01*
G01X21989074Y8139212D01*
G01X21989074Y8156484D01*
G01X21994916Y8167914D01*
G01X22006346Y8179344D01*
G01X22023364Y8184932D01*
G01X22046224Y8190774D01*
G01X22057654Y8196362D01*
G01X22063496Y8207792D01*
G01X22063496Y8219222D01*
G01X22057654Y8230652D01*
G01X22040636Y8236494D01*
G01X22017776Y8236494D01*
G01X23414667Y8236494D02*
G01X23477659Y8236494D01*
G01X23443369Y8190774D01*
G01X23460387Y8190774D01*
G01X23471817Y8184932D01*
G01X23477659Y8179344D01*
G01X23483247Y8162072D01*
G01X23483247Y8150642D01*
G01X23477659Y8133624D01*
G01X23466229Y8122194D01*
G01X23448957Y8116352D01*
G01X23431939Y8116352D01*
G01X23414667Y8122194D01*
G01X23409079Y8127782D01*
G01X23403237Y8139212D01*
G01X23599579Y8236494D02*
G01X23542429Y8236494D01*
G01X23536841Y8184932D01*
G01X23542429Y8190774D01*
G01X23559701Y8196362D01*
G01X23576719Y8196362D01*
G01X23593991Y8190774D01*
G01X23605421Y8179344D01*
G01X23611009Y8162072D01*
G01X23611009Y8150642D01*
G01X23605421Y8133624D01*
G01X23593991Y8122194D01*
G01X23576719Y8116352D01*
G01X23559701Y8116352D01*
G01X23542429Y8122194D01*
G01X23536841Y8127782D01*
G01X23530999Y8139212D01*
G01X23664603Y8145054D02*
G01X23658761Y8139212D01*
G01X23664603Y8133624D01*
G01X23670191Y8139212D01*
G01X23664603Y8145054D01*
G01X23775093Y8236494D02*
G01X23717943Y8156484D01*
G01X23803795Y8156484D01*
G01X23775093Y8236494D02*
G01X23775093Y8116352D01*
G01X23851547Y8196362D02*
G01X23914539Y8116352D01*
G01X23914539Y8196362D02*
G01X23851547Y8116352D01*
G01X23973721Y8236494D02*
G01X24036713Y8236494D01*
G01X24002423Y8190774D01*
G01X24019441Y8190774D01*
G01X24030871Y8184932D01*
G01X24036713Y8179344D01*
G01X24042301Y8162072D01*
G01X24042301Y8150642D01*
G01X24036713Y8133624D01*
G01X24025283Y8122194D01*
G01X24008011Y8116352D01*
G01X23990993Y8116352D01*
G01X23973721Y8122194D01*
G01X23968133Y8127782D01*
G01X23962291Y8139212D01*
G01X24158633Y8236494D02*
G01X24101483Y8236494D01*
G01X24095895Y8184932D01*
G01X24101483Y8190774D01*
G01X24118755Y8196362D01*
G01X24135773Y8196362D01*
G01X24153045Y8190774D01*
G01X24164475Y8179344D01*
G01X24170063Y8162072D01*
G01X24170063Y8150642D01*
G01X24164475Y8133624D01*
G01X24153045Y8122194D01*
G01X24135773Y8116352D01*
G01X24118755Y8116352D01*
G01X24101483Y8122194D01*
G01X24095895Y8127782D01*
G01X24090053Y8139212D01*
G01X24223657Y8145054D02*
G01X24217815Y8139212D01*
G01X24223657Y8133624D01*
G01X24229245Y8139212D01*
G01X24223657Y8145054D01*
G01X24334147Y8236494D02*
G01X24276997Y8156484D01*
G01X24362849Y8156484D01*
G01X24334147Y8236494D02*
G01X24334147Y8116352D01*
G01X24410601Y8196362D02*
G01X24410601Y8116352D01*
G01X24410601Y8173502D02*
G01X24427873Y8190774D01*
G01X24439303Y8196362D01*
G01X24456321Y8196362D01*
G01X24467751Y8190774D01*
G01X24473593Y8173502D01*
G01X24473593Y8116352D01*
G01X24473593Y8173502D02*
G01X24490611Y8190774D01*
G01X24502041Y8196362D01*
G01X24519313Y8196362D01*
G01X24530743Y8190774D01*
G01X24536331Y8173502D01*
G01X24536331Y8116352D01*
G01X24584083Y8236494D02*
G01X24589925Y8230652D01*
G01X24595513Y8236494D01*
G01X24589925Y8242082D01*
G01X24584083Y8236494D01*
G01X24589925Y8196362D02*
G01X24589925Y8116352D01*
G01X24643265Y8236494D02*
G01X24643265Y8116352D01*
G01X24731149Y8259354D02*
G01X24719719Y8247924D01*
G01X24708289Y8230652D01*
G01X24696859Y8207792D01*
G01X24691017Y8179344D01*
G01X24691017Y8156484D01*
G01X24696859Y8127782D01*
G01X24708289Y8104922D01*
G01X24719719Y8087904D01*
G01X24731149Y8076474D01*
G01X24813191Y8236494D02*
G01X24796173Y8230652D01*
G01X24784743Y8213634D01*
G01X24778901Y8184932D01*
G01X24778901Y8167914D01*
G01X24784743Y8139212D01*
G01X24796173Y8122194D01*
G01X24813191Y8116352D01*
G01X24824621Y8116352D01*
G01X24841893Y8122194D01*
G01X24853323Y8139212D01*
G01X24858911Y8167914D01*
G01X24858911Y8184932D01*
G01X24853323Y8213634D01*
G01X24841893Y8230652D01*
G01X24824621Y8236494D01*
G01X24813191Y8236494D01*
G01X24912505Y8145054D02*
G01X24906663Y8139212D01*
G01X24912505Y8133624D01*
G01X24918093Y8139212D01*
G01X24912505Y8145054D01*
G01X25040267Y8196362D02*
G01X25034425Y8179344D01*
G01X25022995Y8167914D01*
G01X25005977Y8162072D01*
G01X25000135Y8162072D01*
G01X24983117Y8167914D01*
G01X24971687Y8179344D01*
G01X24965845Y8196362D01*
G01X24965845Y8202204D01*
G01X24971687Y8219222D01*
G01X24983117Y8230652D01*
G01X25000135Y8236494D01*
G01X25005977Y8236494D01*
G01X25022995Y8230652D01*
G01X25034425Y8219222D01*
G01X25040267Y8196362D01*
G01X25040267Y8167914D01*
G01X25034425Y8139212D01*
G01X25022995Y8122194D01*
G01X25005977Y8116352D01*
G01X24994547Y8116352D01*
G01X24977275Y8122194D01*
G01X24971687Y8133624D01*
G01X25122309Y8236494D02*
G01X25105291Y8230652D01*
G01X25093861Y8213634D01*
G01X25088019Y8184932D01*
G01X25088019Y8167914D01*
G01X25093861Y8139212D01*
G01X25105291Y8122194D01*
G01X25122309Y8116352D01*
G01X25133739Y8116352D01*
G01X25151011Y8122194D01*
G01X25162441Y8139212D01*
G01X25168029Y8167914D01*
G01X25168029Y8184932D01*
G01X25162441Y8213634D01*
G01X25151011Y8230652D01*
G01X25133739Y8236494D01*
G01X25122309Y8236494D01*
G01X25250071Y8236494D02*
G01X25233053Y8230652D01*
G01X25221623Y8213634D01*
G01X25215781Y8184932D01*
G01X25215781Y8167914D01*
G01X25221623Y8139212D01*
G01X25233053Y8122194D01*
G01X25250071Y8116352D01*
G01X25261501Y8116352D01*
G01X25278773Y8122194D01*
G01X25290203Y8139212D01*
G01X25295791Y8167914D01*
G01X25295791Y8184932D01*
G01X25290203Y8213634D01*
G01X25278773Y8230652D01*
G01X25261501Y8236494D01*
G01X25250071Y8236494D01*
G01X25343543Y8196362D02*
G01X25406535Y8116352D01*
G01X25406535Y8196362D02*
G01X25343543Y8116352D01*
G01X25488577Y8236494D02*
G01X25471559Y8230652D01*
G01X25460129Y8213634D01*
G01X25454287Y8184932D01*
G01X25454287Y8167914D01*
G01X25460129Y8139212D01*
G01X25471559Y8122194D01*
G01X25488577Y8116352D01*
G01X25500007Y8116352D01*
G01X25517279Y8122194D01*
G01X25528709Y8139212D01*
G01X25534297Y8167914D01*
G01X25534297Y8184932D01*
G01X25528709Y8213634D01*
G01X25517279Y8230652D01*
G01X25500007Y8236494D01*
G01X25488577Y8236494D01*
G01X25587891Y8145054D02*
G01X25582049Y8139212D01*
G01X25587891Y8133624D01*
G01X25593479Y8139212D01*
G01X25587891Y8145054D01*
G01X25715653Y8196362D02*
G01X25709811Y8179344D01*
G01X25698381Y8167914D01*
G01X25681363Y8162072D01*
G01X25675521Y8162072D01*
G01X25658503Y8167914D01*
G01X25647073Y8179344D01*
G01X25641231Y8196362D01*
G01X25641231Y8202204D01*
G01X25647073Y8219222D01*
G01X25658503Y8230652D01*
G01X25675521Y8236494D01*
G01X25681363Y8236494D01*
G01X25698381Y8230652D01*
G01X25709811Y8219222D01*
G01X25715653Y8196362D01*
G01X25715653Y8167914D01*
G01X25709811Y8139212D01*
G01X25698381Y8122194D01*
G01X25681363Y8116352D01*
G01X25669933Y8116352D01*
G01X25652661Y8122194D01*
G01X25647073Y8133624D01*
G01X25797695Y8236494D02*
G01X25780677Y8230652D01*
G01X25769247Y8213634D01*
G01X25763405Y8184932D01*
G01X25763405Y8167914D01*
G01X25769247Y8139212D01*
G01X25780677Y8122194D01*
G01X25797695Y8116352D01*
G01X25809125Y8116352D01*
G01X25826397Y8122194D01*
G01X25837827Y8139212D01*
G01X25843415Y8167914D01*
G01X25843415Y8184932D01*
G01X25837827Y8213634D01*
G01X25826397Y8230652D01*
G01X25809125Y8236494D01*
G01X25797695Y8236494D01*
G01X25925457Y8236494D02*
G01X25908439Y8230652D01*
G01X25897009Y8213634D01*
G01X25891167Y8184932D01*
G01X25891167Y8167914D01*
G01X25897009Y8139212D01*
G01X25908439Y8122194D01*
G01X25925457Y8116352D01*
G01X25936887Y8116352D01*
G01X25954159Y8122194D01*
G01X25965589Y8139212D01*
G01X25971177Y8167914D01*
G01X25971177Y8184932D01*
G01X25965589Y8213634D01*
G01X25954159Y8230652D01*
G01X25936887Y8236494D01*
G01X25925457Y8236494D01*
G01X26018929Y8196362D02*
G01X26018929Y8116352D01*
G01X26018929Y8173502D02*
G01X26036201Y8190774D01*
G01X26047631Y8196362D01*
G01X26064649Y8196362D01*
G01X26076079Y8190774D01*
G01X26081921Y8173502D01*
G01X26081921Y8116352D01*
G01X26081921Y8173502D02*
G01X26098939Y8190774D01*
G01X26110369Y8196362D01*
G01X26127641Y8196362D01*
G01X26139071Y8190774D01*
G01X26144659Y8173502D01*
G01X26144659Y8116352D01*
G01X26192411Y8196362D02*
G01X26192411Y8116352D01*
G01X26192411Y8173502D02*
G01X26209683Y8190774D01*
G01X26221113Y8196362D01*
G01X26238131Y8196362D01*
G01X26249561Y8190774D01*
G01X26255403Y8173502D01*
G01X26255403Y8116352D01*
G01X26255403Y8173502D02*
G01X26272421Y8190774D01*
G01X26283851Y8196362D01*
G01X26301123Y8196362D01*
G01X26312553Y8190774D01*
G01X26318141Y8173502D01*
G01X26318141Y8116352D01*
G01X26365893Y8259354D02*
G01X26377323Y8247924D01*
G01X26388753Y8230652D01*
G01X26400183Y8207792D01*
G01X26406025Y8179344D01*
G01X26406025Y8156484D01*
G01X26400183Y8127782D01*
G01X26388753Y8104922D01*
G01X26377323Y8087904D01*
G01X26365893Y8076474D01*
G01X27297203Y8236494D02*
G01X27297203Y8116352D01*
G01X27297203Y8236494D02*
G01X27348765Y8236494D01*
G01X27365783Y8230652D01*
G01X27371625Y8225064D01*
G01X27377213Y8213634D01*
G01X27377213Y8196362D01*
G01X27371625Y8184932D01*
G01X27365783Y8179344D01*
G01X27348765Y8173502D01*
G01X27297203Y8173502D01*
G01X27465097Y8236494D02*
G01X27465097Y8116352D01*
G01X27424965Y8236494D02*
G01X27504975Y8236494D01*
G01X27552727Y8236494D02*
G01X27552727Y8116352D01*
G01X27632737Y8236494D02*
G01X27632737Y8116352D01*
G01X27552727Y8179344D02*
G01X27632737Y8179344D01*
G01X28758610Y8236494D02*
G01X28758610Y8116352D01*
G01X28758610Y8236494D02*
G01X28810172Y8236494D01*
G01X28827190Y8230652D01*
G01X28833032Y8225064D01*
G01X28838620Y8213634D01*
G01X28838620Y8202204D01*
G01X28833032Y8190774D01*
G01X28827190Y8184932D01*
G01X28810172Y8179344D01*
G01X28758610Y8179344D01*
G01X28798742Y8179344D02*
G01X28838620Y8116352D01*
G01X28915074Y8196362D02*
G01X28903644Y8190774D01*
G01X28892214Y8179344D01*
G01X28886372Y8162072D01*
G01X28886372Y8150642D01*
G01X28892214Y8133624D01*
G01X28903644Y8122194D01*
G01X28915074Y8116352D01*
G01X28932092Y8116352D01*
G01X28943522Y8122194D01*
G01X28954952Y8133624D01*
G01X28960794Y8150642D01*
G01X28960794Y8162072D01*
G01X28954952Y8179344D01*
G01X28943522Y8190774D01*
G01X28932092Y8196362D01*
G01X28915074Y8196362D01*
G01X29008546Y8196362D02*
G01X29008546Y8139212D01*
G01X29014388Y8122194D01*
G01X29025818Y8116352D01*
G01X29042836Y8116352D01*
G01X29054266Y8122194D01*
G01X29071538Y8139212D01*
G01X29071538Y8196362D02*
G01X29071538Y8116352D01*
G01X29119290Y8196362D02*
G01X29119290Y8116352D01*
G01X29119290Y8173502D02*
G01X29136562Y8190774D01*
G01X29147992Y8196362D01*
G01X29165010Y8196362D01*
G01X29176440Y8190774D01*
G01X29182282Y8173502D01*
G01X29182282Y8116352D01*
G01X29298614Y8236494D02*
G01X29298614Y8116352D01*
G01X29298614Y8179344D02*
G01X29287184Y8190774D01*
G01X29275754Y8196362D01*
G01X29258736Y8196362D01*
G01X29247306Y8190774D01*
G01X29235876Y8179344D01*
G01X29230034Y8162072D01*
G01X29230034Y8150642D01*
G01X29235876Y8133624D01*
G01X29247306Y8122194D01*
G01X29258736Y8116352D01*
G01X29275754Y8116352D01*
G01X29287184Y8122194D01*
G01X29298614Y8133624D01*
G01X30189791Y8236494D02*
G01X30189791Y8116352D01*
G01X30189791Y8236494D02*
G01X30241353Y8236494D01*
G01X30258371Y8230652D01*
G01X30264213Y8225064D01*
G01X30269801Y8213634D01*
G01X30269801Y8196362D01*
G01X30264213Y8184932D01*
G01X30258371Y8179344D01*
G01X30241353Y8173502D01*
G01X30189791Y8173502D01*
G01X30386133Y8196362D02*
G01X30386133Y8116352D01*
G01X30386133Y8179344D02*
G01X30374703Y8190774D01*
G01X30363273Y8196362D01*
G01X30346255Y8196362D01*
G01X30334825Y8190774D01*
G01X30323395Y8179344D01*
G01X30317553Y8162072D01*
G01X30317553Y8150642D01*
G01X30323395Y8133624D01*
G01X30334825Y8122194D01*
G01X30346255Y8116352D01*
G01X30363273Y8116352D01*
G01X30374703Y8122194D01*
G01X30386133Y8133624D01*
G01X30502465Y8236494D02*
G01X30502465Y8116352D01*
G01X30502465Y8179344D02*
G01X30491035Y8190774D01*
G01X30479605Y8196362D01*
G01X30462587Y8196362D01*
G01X30451157Y8190774D01*
G01X30439727Y8179344D01*
G01X30433885Y8162072D01*
G01X30433885Y8150642D01*
G01X30439727Y8133624D01*
G01X30451157Y8122194D01*
G01X30462587Y8116352D01*
G01X30479605Y8116352D01*
G01X30491035Y8122194D01*
G01X30502465Y8133624D01*
G01X31899102Y8259354D02*
G01X31887672Y8247924D01*
G01X31876242Y8230652D01*
G01X31864812Y8207792D01*
G01X31858970Y8179344D01*
G01X31858970Y8156484D01*
G01X31864812Y8127782D01*
G01X31876242Y8104922D01*
G01X31887672Y8087904D01*
G01X31899102Y8076474D01*
G01X31946854Y8236494D02*
G01X31946854Y8116352D01*
G01X31946854Y8236494D02*
G01X31992574Y8116352D01*
G01X32038294Y8236494D02*
G01X31992574Y8116352D01*
G01X32038294Y8236494D02*
G01X32038294Y8116352D01*
G01X32086046Y8236494D02*
G01X32091888Y8230652D01*
G01X32097476Y8236494D01*
G01X32091888Y8242082D01*
G01X32086046Y8236494D01*
G01X32091888Y8196362D02*
G01X32091888Y8116352D01*
G01X32145228Y8196362D02*
G01X32208220Y8116352D01*
G01X32208220Y8196362D02*
G01X32145228Y8116352D01*
G01X32255972Y8162072D02*
G01X32324552Y8162072D01*
G01X32324552Y8173502D01*
G01X32318964Y8184932D01*
G01X32313122Y8190774D01*
G01X32301692Y8196362D01*
G01X32284674Y8196362D01*
G01X32273244Y8190774D01*
G01X32261814Y8179344D01*
G01X32255972Y8162072D01*
G01X32255972Y8150642D01*
G01X32261814Y8133624D01*
G01X32273244Y8122194D01*
G01X32284674Y8116352D01*
G01X32301692Y8116352D01*
G01X32313122Y8122194D01*
G01X32324552Y8133624D01*
G01X32440884Y8236494D02*
G01X32440884Y8116352D01*
G01X32440884Y8179344D02*
G01X32429454Y8190774D01*
G01X32418024Y8196362D01*
G01X32401006Y8196362D01*
G01X32389576Y8190774D01*
G01X32378146Y8179344D01*
G01X32372304Y8162072D01*
G01X32372304Y8150642D01*
G01X32378146Y8133624D01*
G01X32389576Y8122194D01*
G01X32401006Y8116352D01*
G01X32418024Y8116352D01*
G01X32429454Y8122194D01*
G01X32440884Y8133624D01*
G01X32488636Y8259354D02*
G01X32500066Y8247924D01*
G01X32511496Y8230652D01*
G01X32522926Y8207792D01*
G01X32528768Y8179344D01*
G01X32528768Y8156484D01*
G01X32522926Y8127782D01*
G01X32511496Y8104922D01*
G01X32500066Y8087904D01*
G01X32488636Y8076474D01*
G01X33818471Y8236494D02*
G01X33818471Y8116352D01*
G01X33778339Y8236494D02*
G01X33858349Y8236494D01*
G01X33934803Y8196362D02*
G01X33923373Y8190774D01*
G01X33911943Y8179344D01*
G01X33906101Y8162072D01*
G01X33906101Y8150642D01*
G01X33911943Y8133624D01*
G01X33923373Y8122194D01*
G01X33934803Y8116352D01*
G01X33951821Y8116352D01*
G01X33963251Y8122194D01*
G01X33974681Y8133624D01*
G01X33980523Y8150642D01*
G01X33980523Y8162072D01*
G01X33974681Y8179344D01*
G01X33963251Y8190774D01*
G01X33951821Y8196362D01*
G01X33934803Y8196362D01*
G01X34028275Y8196362D02*
G01X34028275Y8076474D01*
G01X34028275Y8179344D02*
G01X34039705Y8190774D01*
G01X34051135Y8196362D01*
G01X34068407Y8196362D01*
G01X34079837Y8190774D01*
G01X34091267Y8179344D01*
G01X34096855Y8162072D01*
G01X34096855Y8150642D01*
G01X34091267Y8133624D01*
G01X34079837Y8122194D01*
G01X34068407Y8116352D01*
G01X34051135Y8116352D01*
G01X34039705Y8122194D01*
G01X34028275Y8133624D01*
G01X34272623Y8236494D02*
G01X34272623Y8116352D01*
G01X34272623Y8116352D02*
G01X34341203Y8116352D01*
G01X34457535Y8196362D02*
G01X34457535Y8116352D01*
G01X34457535Y8179344D02*
G01X34446105Y8190774D01*
G01X34434675Y8196362D01*
G01X34417657Y8196362D01*
G01X34406227Y8190774D01*
G01X34394797Y8179344D01*
G01X34388955Y8162072D01*
G01X34388955Y8150642D01*
G01X34394797Y8133624D01*
G01X34406227Y8122194D01*
G01X34417657Y8116352D01*
G01X34434675Y8116352D01*
G01X34446105Y8122194D01*
G01X34457535Y8133624D01*
G01X34511129Y8196362D02*
G01X34545419Y8116352D01*
G01X34579709Y8196362D02*
G01X34545419Y8116352D01*
G01X34533989Y8093492D01*
G01X34522559Y8082062D01*
G01X34511129Y8076474D01*
G01X34505287Y8076474D01*
G01X34627461Y8162072D02*
G01X34696041Y8162072D01*
G01X34696041Y8173502D01*
G01X34690453Y8184932D01*
G01X34684611Y8190774D01*
G01X34673181Y8196362D01*
G01X34656163Y8196362D01*
G01X34644733Y8190774D01*
G01X34633303Y8179344D01*
G01X34627461Y8162072D01*
G01X34627461Y8150642D01*
G01X34633303Y8133624D01*
G01X34644733Y8122194D01*
G01X34656163Y8116352D01*
G01X34673181Y8116352D01*
G01X34684611Y8122194D01*
G01X34696041Y8133624D01*
G01X34743793Y8196362D02*
G01X34743793Y8116352D01*
G01X34743793Y8162072D02*
G01X34749635Y8179344D01*
G01X34761065Y8190774D01*
G01X34772495Y8196362D01*
G01X34789513Y8196362D01*
G01X34837265Y8167914D02*
G01X34940135Y8167914D01*
G01X34987887Y8236494D02*
G01X34987887Y8116352D01*
G01X34987887Y8236494D02*
G01X35039449Y8236494D01*
G01X35056467Y8230652D01*
G01X35062309Y8225064D01*
G01X35067897Y8213634D01*
G01X35067897Y8202204D01*
G01X35062309Y8190774D01*
G01X35056467Y8184932D01*
G01X35039449Y8179344D01*
G01X34987887Y8179344D02*
G01X35039449Y8179344D01*
G01X35056467Y8173502D01*
G01X35062309Y8167914D01*
G01X35067897Y8156484D01*
G01X35067897Y8139212D01*
G01X35062309Y8127782D01*
G01X35056467Y8122194D01*
G01X35039449Y8116352D01*
G01X34987887Y8116352D01*
G01X35144351Y8196362D02*
G01X35132921Y8190774D01*
G01X35121491Y8179344D01*
G01X35115649Y8162072D01*
G01X35115649Y8150642D01*
G01X35121491Y8133624D01*
G01X35132921Y8122194D01*
G01X35144351Y8116352D01*
G01X35161369Y8116352D01*
G01X35172799Y8122194D01*
G01X35184229Y8133624D01*
G01X35190071Y8150642D01*
G01X35190071Y8162072D01*
G01X35184229Y8179344D01*
G01X35172799Y8190774D01*
G01X35161369Y8196362D01*
G01X35144351Y8196362D01*
G01X35255095Y8236494D02*
G01X35255095Y8139212D01*
G01X35260683Y8122194D01*
G01X35272113Y8116352D01*
G01X35283543Y8116352D01*
G01X35237823Y8196362D02*
G01X35277955Y8196362D01*
G01X35348567Y8236494D02*
G01X35348567Y8139212D01*
G01X35354155Y8122194D01*
G01X35365585Y8116352D01*
G01X35377015Y8116352D01*
G01X35331295Y8196362D02*
G01X35371427Y8196362D01*
G01X35453469Y8196362D02*
G01X35442039Y8190774D01*
G01X35430609Y8179344D01*
G01X35424767Y8162072D01*
G01X35424767Y8150642D01*
G01X35430609Y8133624D01*
G01X35442039Y8122194D01*
G01X35453469Y8116352D01*
G01X35470487Y8116352D01*
G01X35481917Y8122194D01*
G01X35493347Y8133624D01*
G01X35499189Y8150642D01*
G01X35499189Y8162072D01*
G01X35493347Y8179344D01*
G01X35481917Y8190774D01*
G01X35470487Y8196362D01*
G01X35453469Y8196362D01*
G01X35546941Y8196362D02*
G01X35546941Y8116352D01*
G01X35546941Y8173502D02*
G01X35564213Y8190774D01*
G01X35575643Y8196362D01*
G01X35592661Y8196362D01*
G01X35604091Y8190774D01*
G01X35609933Y8173502D01*
G01X35609933Y8116352D01*
G01X35609933Y8173502D02*
G01X35626951Y8190774D01*
G01X35638381Y8196362D01*
G01X35655653Y8196362D01*
G01X35667083Y8190774D01*
G01X35672671Y8173502D01*
G01X35672671Y8116352D01*
G01X35848439Y8236494D02*
G01X35848439Y8116352D01*
G01X35848439Y8116352D02*
G01X35917019Y8116352D01*
G01X36033351Y8196362D02*
G01X36033351Y8116352D01*
G01X36033351Y8179344D02*
G01X36021921Y8190774D01*
G01X36010491Y8196362D01*
G01X35993473Y8196362D01*
G01X35982043Y8190774D01*
G01X35970613Y8179344D01*
G01X35964771Y8162072D01*
G01X35964771Y8150642D01*
G01X35970613Y8133624D01*
G01X35982043Y8122194D01*
G01X35993473Y8116352D01*
G01X36010491Y8116352D01*
G01X36021921Y8122194D01*
G01X36033351Y8133624D01*
G01X36086945Y8196362D02*
G01X36121235Y8116352D01*
G01X36155525Y8196362D02*
G01X36121235Y8116352D01*
G01X36109805Y8093492D01*
G01X36098375Y8082062D01*
G01X36086945Y8076474D01*
G01X36081103Y8076474D01*
G01X36203277Y8162072D02*
G01X36271857Y8162072D01*
G01X36271857Y8173502D01*
G01X36266269Y8184932D01*
G01X36260427Y8190774D01*
G01X36248997Y8196362D01*
G01X36231979Y8196362D01*
G01X36220549Y8190774D01*
G01X36209119Y8179344D01*
G01X36203277Y8162072D01*
G01X36203277Y8150642D01*
G01X36209119Y8133624D01*
G01X36220549Y8122194D01*
G01X36231979Y8116352D01*
G01X36248997Y8116352D01*
G01X36260427Y8122194D01*
G01X36271857Y8133624D01*
G01X36319609Y8196362D02*
G01X36319609Y8116352D01*
G01X36319609Y8162072D02*
G01X36325451Y8179344D01*
G01X36336881Y8190774D01*
G01X36348311Y8196362D01*
G01X36365329Y8196362D01*
G01X21989074Y7633063D02*
G01X22000504Y7638651D01*
G01X22017776Y7655923D01*
G01X22017776Y7535781D01*
G01X22094230Y7655923D02*
G01X22076958Y7650081D01*
G01X22071370Y7638651D01*
G01X22071370Y7627221D01*
G01X22076958Y7615791D01*
G01X22088388Y7610203D01*
G01X22111248Y7604361D01*
G01X22128520Y7598773D01*
G01X22139950Y7587343D01*
G01X22145538Y7575913D01*
G01X22145538Y7558641D01*
G01X22139950Y7547211D01*
G01X22134108Y7541623D01*
G01X22117090Y7535781D01*
G01X22094230Y7535781D01*
G01X22076958Y7541623D01*
G01X22071370Y7547211D01*
G01X22065528Y7558641D01*
G01X22065528Y7575913D01*
G01X22071370Y7587343D01*
G01X22082800Y7598773D01*
G01X22099818Y7604361D01*
G01X22122678Y7610203D01*
G01X22134108Y7615791D01*
G01X22139950Y7627221D01*
G01X22139950Y7638651D01*
G01X22134108Y7650081D01*
G01X22117090Y7655923D01*
G01X22094230Y7655923D01*
G01X23414667Y7655923D02*
G01X23477659Y7655923D01*
G01X23443369Y7610203D01*
G01X23460387Y7610203D01*
G01X23471817Y7604361D01*
G01X23477659Y7598773D01*
G01X23483247Y7581501D01*
G01X23483247Y7570071D01*
G01X23477659Y7553053D01*
G01X23466229Y7541623D01*
G01X23448957Y7535781D01*
G01X23431939Y7535781D01*
G01X23414667Y7541623D01*
G01X23409079Y7547211D01*
G01X23403237Y7558641D01*
G01X23530999Y7633063D02*
G01X23542429Y7638651D01*
G01X23559701Y7655923D01*
G01X23559701Y7535781D01*
G01X23613295Y7564483D02*
G01X23607453Y7558641D01*
G01X23613295Y7553053D01*
G01X23618883Y7558641D01*
G01X23613295Y7564483D01*
G01X23735215Y7655923D02*
G01X23678065Y7655923D01*
G01X23672477Y7604361D01*
G01X23678065Y7610203D01*
G01X23695337Y7615791D01*
G01X23712355Y7615791D01*
G01X23729627Y7610203D01*
G01X23741057Y7598773D01*
G01X23746645Y7581501D01*
G01X23746645Y7570071D01*
G01X23741057Y7553053D01*
G01X23729627Y7541623D01*
G01X23712355Y7535781D01*
G01X23695337Y7535781D01*
G01X23678065Y7541623D01*
G01X23672477Y7547211D01*
G01X23666635Y7558641D01*
G01X23794397Y7615791D02*
G01X23857389Y7535781D01*
G01X23857389Y7615791D02*
G01X23794397Y7535781D01*
G01X23916571Y7655923D02*
G01X23979563Y7655923D01*
G01X23945273Y7610203D01*
G01X23962291Y7610203D01*
G01X23973721Y7604361D01*
G01X23979563Y7598773D01*
G01X23985151Y7581501D01*
G01X23985151Y7570071D01*
G01X23979563Y7553053D01*
G01X23968133Y7541623D01*
G01X23950861Y7535781D01*
G01X23933843Y7535781D01*
G01X23916571Y7541623D01*
G01X23910983Y7547211D01*
G01X23905141Y7558641D01*
G01X24032903Y7633063D02*
G01X24044333Y7638651D01*
G01X24061605Y7655923D01*
G01X24061605Y7535781D01*
G01X24115199Y7564483D02*
G01X24109357Y7558641D01*
G01X24115199Y7553053D01*
G01X24120787Y7558641D01*
G01X24115199Y7564483D01*
G01X24237119Y7655923D02*
G01X24179969Y7655923D01*
G01X24174381Y7604361D01*
G01X24179969Y7610203D01*
G01X24197241Y7615791D01*
G01X24214259Y7615791D01*
G01X24231531Y7610203D01*
G01X24242961Y7598773D01*
G01X24248549Y7581501D01*
G01X24248549Y7570071D01*
G01X24242961Y7553053D01*
G01X24231531Y7541623D01*
G01X24214259Y7535781D01*
G01X24197241Y7535781D01*
G01X24179969Y7541623D01*
G01X24174381Y7547211D01*
G01X24168539Y7558641D01*
G01X24296301Y7615791D02*
G01X24296301Y7535781D01*
G01X24296301Y7592931D02*
G01X24313573Y7610203D01*
G01X24325003Y7615791D01*
G01X24342021Y7615791D01*
G01X24353451Y7610203D01*
G01X24359293Y7592931D01*
G01X24359293Y7535781D01*
G01X24359293Y7592931D02*
G01X24376311Y7610203D01*
G01X24387741Y7615791D01*
G01X24405013Y7615791D01*
G01X24416443Y7610203D01*
G01X24422031Y7592931D01*
G01X24422031Y7535781D01*
G01X24469783Y7655923D02*
G01X24475625Y7650081D01*
G01X24481213Y7655923D01*
G01X24475625Y7661511D01*
G01X24469783Y7655923D01*
G01X24475625Y7615791D02*
G01X24475625Y7535781D01*
G01X24528965Y7655923D02*
G01X24528965Y7535781D01*
G01X24616849Y7678783D02*
G01X24605419Y7667353D01*
G01X24593989Y7650081D01*
G01X24582559Y7627221D01*
G01X24576717Y7598773D01*
G01X24576717Y7575913D01*
G01X24582559Y7547211D01*
G01X24593989Y7524351D01*
G01X24605419Y7507333D01*
G01X24616849Y7495903D01*
G01X24698891Y7655923D02*
G01X24681873Y7650081D01*
G01X24670443Y7633063D01*
G01X24664601Y7604361D01*
G01X24664601Y7587343D01*
G01X24670443Y7558641D01*
G01X24681873Y7541623D01*
G01X24698891Y7535781D01*
G01X24710321Y7535781D01*
G01X24727593Y7541623D01*
G01X24739023Y7558641D01*
G01X24744611Y7587343D01*
G01X24744611Y7604361D01*
G01X24739023Y7633063D01*
G01X24727593Y7650081D01*
G01X24710321Y7655923D01*
G01X24698891Y7655923D01*
G01X24798205Y7564483D02*
G01X24792363Y7558641D01*
G01X24798205Y7553053D01*
G01X24803793Y7558641D01*
G01X24798205Y7564483D01*
G01X24880247Y7655923D02*
G01X24862975Y7650081D01*
G01X24857387Y7638651D01*
G01X24857387Y7627221D01*
G01X24862975Y7615791D01*
G01X24874405Y7610203D01*
G01X24897265Y7604361D01*
G01X24914537Y7598773D01*
G01X24925967Y7587343D01*
G01X24931555Y7575913D01*
G01X24931555Y7558641D01*
G01X24925967Y7547211D01*
G01X24920125Y7541623D01*
G01X24903107Y7535781D01*
G01X24880247Y7535781D01*
G01X24862975Y7541623D01*
G01X24857387Y7547211D01*
G01X24851545Y7558641D01*
G01X24851545Y7575913D01*
G01X24857387Y7587343D01*
G01X24868817Y7598773D01*
G01X24885835Y7604361D01*
G01X24908695Y7610203D01*
G01X24920125Y7615791D01*
G01X24925967Y7627221D01*
G01X24925967Y7638651D01*
G01X24920125Y7650081D01*
G01X24903107Y7655923D01*
G01X24880247Y7655923D01*
G01X25013597Y7655923D02*
G01X24996579Y7650081D01*
G01X24985149Y7633063D01*
G01X24979307Y7604361D01*
G01X24979307Y7587343D01*
G01X24985149Y7558641D01*
G01X24996579Y7541623D01*
G01X25013597Y7535781D01*
G01X25025027Y7535781D01*
G01X25042299Y7541623D01*
G01X25053729Y7558641D01*
G01X25059317Y7587343D01*
G01X25059317Y7604361D01*
G01X25053729Y7633063D01*
G01X25042299Y7650081D01*
G01X25025027Y7655923D01*
G01X25013597Y7655923D01*
G01X25141359Y7655923D02*
G01X25124341Y7650081D01*
G01X25112911Y7633063D01*
G01X25107069Y7604361D01*
G01X25107069Y7587343D01*
G01X25112911Y7558641D01*
G01X25124341Y7541623D01*
G01X25141359Y7535781D01*
G01X25152789Y7535781D01*
G01X25170061Y7541623D01*
G01X25181491Y7558641D01*
G01X25187079Y7587343D01*
G01X25187079Y7604361D01*
G01X25181491Y7633063D01*
G01X25170061Y7650081D01*
G01X25152789Y7655923D01*
G01X25141359Y7655923D01*
G01X25234831Y7615791D02*
G01X25297823Y7535781D01*
G01X25297823Y7615791D02*
G01X25234831Y7535781D01*
G01X25379865Y7655923D02*
G01X25362847Y7650081D01*
G01X25351417Y7633063D01*
G01X25345575Y7604361D01*
G01X25345575Y7587343D01*
G01X25351417Y7558641D01*
G01X25362847Y7541623D01*
G01X25379865Y7535781D01*
G01X25391295Y7535781D01*
G01X25408567Y7541623D01*
G01X25419997Y7558641D01*
G01X25425585Y7587343D01*
G01X25425585Y7604361D01*
G01X25419997Y7633063D01*
G01X25408567Y7650081D01*
G01X25391295Y7655923D01*
G01X25379865Y7655923D01*
G01X25479179Y7564483D02*
G01X25473337Y7558641D01*
G01X25479179Y7553053D01*
G01X25484767Y7558641D01*
G01X25479179Y7564483D01*
G01X25561221Y7655923D02*
G01X25543949Y7650081D01*
G01X25538361Y7638651D01*
G01X25538361Y7627221D01*
G01X25543949Y7615791D01*
G01X25555379Y7610203D01*
G01X25578239Y7604361D01*
G01X25595511Y7598773D01*
G01X25606941Y7587343D01*
G01X25612529Y7575913D01*
G01X25612529Y7558641D01*
G01X25606941Y7547211D01*
G01X25601099Y7541623D01*
G01X25584081Y7535781D01*
G01X25561221Y7535781D01*
G01X25543949Y7541623D01*
G01X25538361Y7547211D01*
G01X25532519Y7558641D01*
G01X25532519Y7575913D01*
G01X25538361Y7587343D01*
G01X25549791Y7598773D01*
G01X25566809Y7604361D01*
G01X25589669Y7610203D01*
G01X25601099Y7615791D01*
G01X25606941Y7627221D01*
G01X25606941Y7638651D01*
G01X25601099Y7650081D01*
G01X25584081Y7655923D01*
G01X25561221Y7655923D01*
G01X25694571Y7655923D02*
G01X25677553Y7650081D01*
G01X25666123Y7633063D01*
G01X25660281Y7604361D01*
G01X25660281Y7587343D01*
G01X25666123Y7558641D01*
G01X25677553Y7541623D01*
G01X25694571Y7535781D01*
G01X25706001Y7535781D01*
G01X25723273Y7541623D01*
G01X25734703Y7558641D01*
G01X25740291Y7587343D01*
G01X25740291Y7604361D01*
G01X25734703Y7633063D01*
G01X25723273Y7650081D01*
G01X25706001Y7655923D01*
G01X25694571Y7655923D01*
G01X25822333Y7655923D02*
G01X25805315Y7650081D01*
G01X25793885Y7633063D01*
G01X25788043Y7604361D01*
G01X25788043Y7587343D01*
G01X25793885Y7558641D01*
G01X25805315Y7541623D01*
G01X25822333Y7535781D01*
G01X25833763Y7535781D01*
G01X25851035Y7541623D01*
G01X25862465Y7558641D01*
G01X25868053Y7587343D01*
G01X25868053Y7604361D01*
G01X25862465Y7633063D01*
G01X25851035Y7650081D01*
G01X25833763Y7655923D01*
G01X25822333Y7655923D01*
G01X25915805Y7615791D02*
G01X25915805Y7535781D01*
G01X25915805Y7592931D02*
G01X25933077Y7610203D01*
G01X25944507Y7615791D01*
G01X25961525Y7615791D01*
G01X25972955Y7610203D01*
G01X25978797Y7592931D01*
G01X25978797Y7535781D01*
G01X25978797Y7592931D02*
G01X25995815Y7610203D01*
G01X26007245Y7615791D01*
G01X26024517Y7615791D01*
G01X26035947Y7610203D01*
G01X26041535Y7592931D01*
G01X26041535Y7535781D01*
G01X26089287Y7615791D02*
G01X26089287Y7535781D01*
G01X26089287Y7592931D02*
G01X26106559Y7610203D01*
G01X26117989Y7615791D01*
G01X26135007Y7615791D01*
G01X26146437Y7610203D01*
G01X26152279Y7592931D01*
G01X26152279Y7535781D01*
G01X26152279Y7592931D02*
G01X26169297Y7610203D01*
G01X26180727Y7615791D01*
G01X26197999Y7615791D01*
G01X26209429Y7610203D01*
G01X26215017Y7592931D01*
G01X26215017Y7535781D01*
G01X26262769Y7678783D02*
G01X26274199Y7667353D01*
G01X26285629Y7650081D01*
G01X26297059Y7627221D01*
G01X26302901Y7598773D01*
G01X26302901Y7575913D01*
G01X26297059Y7547211D01*
G01X26285629Y7524351D01*
G01X26274199Y7507333D01*
G01X26262769Y7495903D01*
G01X27297203Y7655923D02*
G01X27297203Y7535781D01*
G01X27297203Y7655923D02*
G01X27348765Y7655923D01*
G01X27365783Y7650081D01*
G01X27371625Y7644493D01*
G01X27377213Y7633063D01*
G01X27377213Y7615791D01*
G01X27371625Y7604361D01*
G01X27365783Y7598773D01*
G01X27348765Y7592931D01*
G01X27297203Y7592931D01*
G01X27465097Y7655923D02*
G01X27465097Y7535781D01*
G01X27424965Y7655923D02*
G01X27504975Y7655923D01*
G01X27552727Y7655923D02*
G01X27552727Y7535781D01*
G01X27632737Y7655923D02*
G01X27632737Y7535781D01*
G01X27552727Y7598773D02*
G01X27632737Y7598773D01*
G01X28758610Y7655923D02*
G01X28758610Y7535781D01*
G01X28758610Y7655923D02*
G01X28810172Y7655923D01*
G01X28827190Y7650081D01*
G01X28833032Y7644493D01*
G01X28838620Y7633063D01*
G01X28838620Y7621633D01*
G01X28833032Y7610203D01*
G01X28827190Y7604361D01*
G01X28810172Y7598773D01*
G01X28758610Y7598773D01*
G01X28798742Y7598773D02*
G01X28838620Y7535781D01*
G01X28915074Y7615791D02*
G01X28903644Y7610203D01*
G01X28892214Y7598773D01*
G01X28886372Y7581501D01*
G01X28886372Y7570071D01*
G01X28892214Y7553053D01*
G01X28903644Y7541623D01*
G01X28915074Y7535781D01*
G01X28932092Y7535781D01*
G01X28943522Y7541623D01*
G01X28954952Y7553053D01*
G01X28960794Y7570071D01*
G01X28960794Y7581501D01*
G01X28954952Y7598773D01*
G01X28943522Y7610203D01*
G01X28932092Y7615791D01*
G01X28915074Y7615791D01*
G01X29008546Y7615791D02*
G01X29008546Y7558641D01*
G01X29014388Y7541623D01*
G01X29025818Y7535781D01*
G01X29042836Y7535781D01*
G01X29054266Y7541623D01*
G01X29071538Y7558641D01*
G01X29071538Y7615791D02*
G01X29071538Y7535781D01*
G01X29119290Y7615791D02*
G01X29119290Y7535781D01*
G01X29119290Y7592931D02*
G01X29136562Y7610203D01*
G01X29147992Y7615791D01*
G01X29165010Y7615791D01*
G01X29176440Y7610203D01*
G01X29182282Y7592931D01*
G01X29182282Y7535781D01*
G01X29298614Y7655923D02*
G01X29298614Y7535781D01*
G01X29298614Y7598773D02*
G01X29287184Y7610203D01*
G01X29275754Y7615791D01*
G01X29258736Y7615791D01*
G01X29247306Y7610203D01*
G01X29235876Y7598773D01*
G01X29230034Y7581501D01*
G01X29230034Y7570071D01*
G01X29235876Y7553053D01*
G01X29247306Y7541623D01*
G01X29258736Y7535781D01*
G01X29275754Y7535781D01*
G01X29287184Y7541623D01*
G01X29298614Y7553053D01*
G01X30189791Y7655923D02*
G01X30189791Y7535781D01*
G01X30189791Y7655923D02*
G01X30241353Y7655923D01*
G01X30258371Y7650081D01*
G01X30264213Y7644493D01*
G01X30269801Y7633063D01*
G01X30269801Y7615791D01*
G01X30264213Y7604361D01*
G01X30258371Y7598773D01*
G01X30241353Y7592931D01*
G01X30189791Y7592931D01*
G01X30386133Y7615791D02*
G01X30386133Y7535781D01*
G01X30386133Y7598773D02*
G01X30374703Y7610203D01*
G01X30363273Y7615791D01*
G01X30346255Y7615791D01*
G01X30334825Y7610203D01*
G01X30323395Y7598773D01*
G01X30317553Y7581501D01*
G01X30317553Y7570071D01*
G01X30323395Y7553053D01*
G01X30334825Y7541623D01*
G01X30346255Y7535781D01*
G01X30363273Y7535781D01*
G01X30374703Y7541623D01*
G01X30386133Y7553053D01*
G01X30502465Y7655923D02*
G01X30502465Y7535781D01*
G01X30502465Y7598773D02*
G01X30491035Y7610203D01*
G01X30479605Y7615791D01*
G01X30462587Y7615791D01*
G01X30451157Y7610203D01*
G01X30439727Y7598773D01*
G01X30433885Y7581501D01*
G01X30433885Y7570071D01*
G01X30439727Y7553053D01*
G01X30451157Y7541623D01*
G01X30462587Y7535781D01*
G01X30479605Y7535781D01*
G01X30491035Y7541623D01*
G01X30502465Y7553053D01*
G01X31899102Y7678783D02*
G01X31887672Y7667353D01*
G01X31876242Y7650081D01*
G01X31864812Y7627221D01*
G01X31858970Y7598773D01*
G01X31858970Y7575913D01*
G01X31864812Y7547211D01*
G01X31876242Y7524351D01*
G01X31887672Y7507333D01*
G01X31899102Y7495903D01*
G01X31946854Y7655923D02*
G01X31946854Y7535781D01*
G01X31946854Y7655923D02*
G01X31992574Y7535781D01*
G01X32038294Y7655923D02*
G01X31992574Y7535781D01*
G01X32038294Y7655923D02*
G01X32038294Y7535781D01*
G01X32086046Y7655923D02*
G01X32091888Y7650081D01*
G01X32097476Y7655923D01*
G01X32091888Y7661511D01*
G01X32086046Y7655923D01*
G01X32091888Y7615791D02*
G01X32091888Y7535781D01*
G01X32145228Y7615791D02*
G01X32208220Y7535781D01*
G01X32208220Y7615791D02*
G01X32145228Y7535781D01*
G01X32255972Y7581501D02*
G01X32324552Y7581501D01*
G01X32324552Y7592931D01*
G01X32318964Y7604361D01*
G01X32313122Y7610203D01*
G01X32301692Y7615791D01*
G01X32284674Y7615791D01*
G01X32273244Y7610203D01*
G01X32261814Y7598773D01*
G01X32255972Y7581501D01*
G01X32255972Y7570071D01*
G01X32261814Y7553053D01*
G01X32273244Y7541623D01*
G01X32284674Y7535781D01*
G01X32301692Y7535781D01*
G01X32313122Y7541623D01*
G01X32324552Y7553053D01*
G01X32440884Y7655923D02*
G01X32440884Y7535781D01*
G01X32440884Y7598773D02*
G01X32429454Y7610203D01*
G01X32418024Y7615791D01*
G01X32401006Y7615791D01*
G01X32389576Y7610203D01*
G01X32378146Y7598773D01*
G01X32372304Y7581501D01*
G01X32372304Y7570071D01*
G01X32378146Y7553053D01*
G01X32389576Y7541623D01*
G01X32401006Y7535781D01*
G01X32418024Y7535781D01*
G01X32429454Y7541623D01*
G01X32440884Y7553053D01*
G01X32488636Y7678783D02*
G01X32500066Y7667353D01*
G01X32511496Y7650081D01*
G01X32522926Y7627221D01*
G01X32528768Y7598773D01*
G01X32528768Y7575913D01*
G01X32522926Y7547211D01*
G01X32511496Y7524351D01*
G01X32500066Y7507333D01*
G01X32488636Y7495903D01*
G01X33818471Y7655923D02*
G01X33818471Y7535781D01*
G01X33778339Y7655923D02*
G01X33858349Y7655923D01*
G01X33934803Y7615791D02*
G01X33923373Y7610203D01*
G01X33911943Y7598773D01*
G01X33906101Y7581501D01*
G01X33906101Y7570071D01*
G01X33911943Y7553053D01*
G01X33923373Y7541623D01*
G01X33934803Y7535781D01*
G01X33951821Y7535781D01*
G01X33963251Y7541623D01*
G01X33974681Y7553053D01*
G01X33980523Y7570071D01*
G01X33980523Y7581501D01*
G01X33974681Y7598773D01*
G01X33963251Y7610203D01*
G01X33951821Y7615791D01*
G01X33934803Y7615791D01*
G01X34028275Y7615791D02*
G01X34028275Y7495903D01*
G01X34028275Y7598773D02*
G01X34039705Y7610203D01*
G01X34051135Y7615791D01*
G01X34068407Y7615791D01*
G01X34079837Y7610203D01*
G01X34091267Y7598773D01*
G01X34096855Y7581501D01*
G01X34096855Y7570071D01*
G01X34091267Y7553053D01*
G01X34079837Y7541623D01*
G01X34068407Y7535781D01*
G01X34051135Y7535781D01*
G01X34039705Y7541623D01*
G01X34028275Y7553053D01*
G01X34272623Y7655923D02*
G01X34272623Y7535781D01*
G01X34272623Y7535781D02*
G01X34341203Y7535781D01*
G01X34457535Y7615791D02*
G01X34457535Y7535781D01*
G01X34457535Y7598773D02*
G01X34446105Y7610203D01*
G01X34434675Y7615791D01*
G01X34417657Y7615791D01*
G01X34406227Y7610203D01*
G01X34394797Y7598773D01*
G01X34388955Y7581501D01*
G01X34388955Y7570071D01*
G01X34394797Y7553053D01*
G01X34406227Y7541623D01*
G01X34417657Y7535781D01*
G01X34434675Y7535781D01*
G01X34446105Y7541623D01*
G01X34457535Y7553053D01*
G01X34511129Y7615791D02*
G01X34545419Y7535781D01*
G01X34579709Y7615791D02*
G01X34545419Y7535781D01*
G01X34533989Y7512921D01*
G01X34522559Y7501491D01*
G01X34511129Y7495903D01*
G01X34505287Y7495903D01*
G01X34627461Y7581501D02*
G01X34696041Y7581501D01*
G01X34696041Y7592931D01*
G01X34690453Y7604361D01*
G01X34684611Y7610203D01*
G01X34673181Y7615791D01*
G01X34656163Y7615791D01*
G01X34644733Y7610203D01*
G01X34633303Y7598773D01*
G01X34627461Y7581501D01*
G01X34627461Y7570071D01*
G01X34633303Y7553053D01*
G01X34644733Y7541623D01*
G01X34656163Y7535781D01*
G01X34673181Y7535781D01*
G01X34684611Y7541623D01*
G01X34696041Y7553053D01*
G01X34743793Y7615791D02*
G01X34743793Y7535781D01*
G01X34743793Y7581501D02*
G01X34749635Y7598773D01*
G01X34761065Y7610203D01*
G01X34772495Y7615791D01*
G01X34789513Y7615791D01*
G01X34837265Y7587343D02*
G01X34940135Y7587343D01*
G01X34987887Y7655923D02*
G01X34987887Y7535781D01*
G01X34987887Y7655923D02*
G01X35039449Y7655923D01*
G01X35056467Y7650081D01*
G01X35062309Y7644493D01*
G01X35067897Y7633063D01*
G01X35067897Y7621633D01*
G01X35062309Y7610203D01*
G01X35056467Y7604361D01*
G01X35039449Y7598773D01*
G01X34987887Y7598773D02*
G01X35039449Y7598773D01*
G01X35056467Y7592931D01*
G01X35062309Y7587343D01*
G01X35067897Y7575913D01*
G01X35067897Y7558641D01*
G01X35062309Y7547211D01*
G01X35056467Y7541623D01*
G01X35039449Y7535781D01*
G01X34987887Y7535781D01*
G01X35144351Y7615791D02*
G01X35132921Y7610203D01*
G01X35121491Y7598773D01*
G01X35115649Y7581501D01*
G01X35115649Y7570071D01*
G01X35121491Y7553053D01*
G01X35132921Y7541623D01*
G01X35144351Y7535781D01*
G01X35161369Y7535781D01*
G01X35172799Y7541623D01*
G01X35184229Y7553053D01*
G01X35190071Y7570071D01*
G01X35190071Y7581501D01*
G01X35184229Y7598773D01*
G01X35172799Y7610203D01*
G01X35161369Y7615791D01*
G01X35144351Y7615791D01*
G01X35255095Y7655923D02*
G01X35255095Y7558641D01*
G01X35260683Y7541623D01*
G01X35272113Y7535781D01*
G01X35283543Y7535781D01*
G01X35237823Y7615791D02*
G01X35277955Y7615791D01*
G01X35348567Y7655923D02*
G01X35348567Y7558641D01*
G01X35354155Y7541623D01*
G01X35365585Y7535781D01*
G01X35377015Y7535781D01*
G01X35331295Y7615791D02*
G01X35371427Y7615791D01*
G01X35453469Y7615791D02*
G01X35442039Y7610203D01*
G01X35430609Y7598773D01*
G01X35424767Y7581501D01*
G01X35424767Y7570071D01*
G01X35430609Y7553053D01*
G01X35442039Y7541623D01*
G01X35453469Y7535781D01*
G01X35470487Y7535781D01*
G01X35481917Y7541623D01*
G01X35493347Y7553053D01*
G01X35499189Y7570071D01*
G01X35499189Y7581501D01*
G01X35493347Y7598773D01*
G01X35481917Y7610203D01*
G01X35470487Y7615791D01*
G01X35453469Y7615791D01*
G01X35546941Y7615791D02*
G01X35546941Y7535781D01*
G01X35546941Y7592931D02*
G01X35564213Y7610203D01*
G01X35575643Y7615791D01*
G01X35592661Y7615791D01*
G01X35604091Y7610203D01*
G01X35609933Y7592931D01*
G01X35609933Y7535781D01*
G01X35609933Y7592931D02*
G01X35626951Y7610203D01*
G01X35638381Y7615791D01*
G01X35655653Y7615791D01*
G01X35667083Y7610203D01*
G01X35672671Y7592931D01*
G01X35672671Y7535781D01*
G01X35848439Y7655923D02*
G01X35848439Y7535781D01*
G01X35848439Y7535781D02*
G01X35917019Y7535781D01*
G01X36033351Y7615791D02*
G01X36033351Y7535781D01*
G01X36033351Y7598773D02*
G01X36021921Y7610203D01*
G01X36010491Y7615791D01*
G01X35993473Y7615791D01*
G01X35982043Y7610203D01*
G01X35970613Y7598773D01*
G01X35964771Y7581501D01*
G01X35964771Y7570071D01*
G01X35970613Y7553053D01*
G01X35982043Y7541623D01*
G01X35993473Y7535781D01*
G01X36010491Y7535781D01*
G01X36021921Y7541623D01*
G01X36033351Y7553053D01*
G01X36086945Y7615791D02*
G01X36121235Y7535781D01*
G01X36155525Y7615791D02*
G01X36121235Y7535781D01*
G01X36109805Y7512921D01*
G01X36098375Y7501491D01*
G01X36086945Y7495903D01*
G01X36081103Y7495903D01*
G01X36203277Y7581501D02*
G01X36271857Y7581501D01*
G01X36271857Y7592931D01*
G01X36266269Y7604361D01*
G01X36260427Y7610203D01*
G01X36248997Y7615791D01*
G01X36231979Y7615791D01*
G01X36220549Y7610203D01*
G01X36209119Y7598773D01*
G01X36203277Y7581501D01*
G01X36203277Y7570071D01*
G01X36209119Y7553053D01*
G01X36220549Y7541623D01*
G01X36231979Y7535781D01*
G01X36248997Y7535781D01*
G01X36260427Y7541623D01*
G01X36271857Y7553053D01*
G01X36319609Y7615791D02*
G01X36319609Y7535781D01*
G01X36319609Y7581501D02*
G01X36325451Y7598773D01*
G01X36336881Y7610203D01*
G01X36348311Y7615791D01*
G01X36365329Y7615791D01*
G01X21994916Y7046649D02*
G01X21994916Y7052491D01*
G01X22000504Y7063921D01*
G01X22006346Y7069509D01*
G01X22017776Y7075351D01*
G01X22040636Y7075351D01*
G01X22052066Y7069509D01*
G01X22057654Y7063921D01*
G01X22063496Y7052491D01*
G01X22063496Y7041061D01*
G01X22057654Y7029631D01*
G01X22046224Y7012359D01*
G01X21989074Y6955209D01*
G01X22069084Y6955209D01*
G01X22151126Y7075351D02*
G01X22134108Y7069509D01*
G01X22122678Y7052491D01*
G01X22116836Y7023789D01*
G01X22116836Y7006771D01*
G01X22122678Y6978069D01*
G01X22134108Y6961051D01*
G01X22151126Y6955209D01*
G01X22162556Y6955209D01*
G01X22179828Y6961051D01*
G01X22191258Y6978069D01*
G01X22196846Y7006771D01*
G01X22196846Y7023789D01*
G01X22191258Y7052491D01*
G01X22179828Y7069509D01*
G01X22162556Y7075351D01*
G01X22151126Y7075351D01*
G01X23414667Y7075351D02*
G01X23477659Y7075351D01*
G01X23443369Y7029631D01*
G01X23460387Y7029631D01*
G01X23471817Y7023789D01*
G01X23477659Y7018201D01*
G01X23483247Y7000929D01*
G01X23483247Y6989499D01*
G01X23477659Y6972481D01*
G01X23466229Y6961051D01*
G01X23448957Y6955209D01*
G01X23431939Y6955209D01*
G01X23414667Y6961051D01*
G01X23409079Y6966639D01*
G01X23403237Y6978069D01*
G01X23605421Y7035219D02*
G01X23599579Y7018201D01*
G01X23588149Y7006771D01*
G01X23571131Y7000929D01*
G01X23565289Y7000929D01*
G01X23548271Y7006771D01*
G01X23536841Y7018201D01*
G01X23530999Y7035219D01*
G01X23530999Y7041061D01*
G01X23536841Y7058079D01*
G01X23548271Y7069509D01*
G01X23565289Y7075351D01*
G01X23571131Y7075351D01*
G01X23588149Y7069509D01*
G01X23599579Y7058079D01*
G01X23605421Y7035219D01*
G01X23605421Y7006771D01*
G01X23599579Y6978069D01*
G01X23588149Y6961051D01*
G01X23571131Y6955209D01*
G01X23559701Y6955209D01*
G01X23542429Y6961051D01*
G01X23536841Y6972481D01*
G01X23659015Y6983911D02*
G01X23653173Y6978069D01*
G01X23659015Y6972481D01*
G01X23664603Y6978069D01*
G01X23659015Y6983911D01*
G01X23769505Y7075351D02*
G01X23712355Y6995341D01*
G01X23798207Y6995341D01*
G01X23769505Y7075351D02*
G01X23769505Y6955209D01*
G01X23845959Y7035219D02*
G01X23908951Y6955209D01*
G01X23908951Y7035219D02*
G01X23845959Y6955209D01*
G01X23968133Y7075351D02*
G01X24031125Y7075351D01*
G01X23996835Y7029631D01*
G01X24013853Y7029631D01*
G01X24025283Y7023789D01*
G01X24031125Y7018201D01*
G01X24036713Y7000929D01*
G01X24036713Y6989499D01*
G01X24031125Y6972481D01*
G01X24019695Y6961051D01*
G01X24002423Y6955209D01*
G01X23985405Y6955209D01*
G01X23968133Y6961051D01*
G01X23962545Y6966639D01*
G01X23956703Y6978069D01*
G01X24158887Y7035219D02*
G01X24153045Y7018201D01*
G01X24141615Y7006771D01*
G01X24124597Y7000929D01*
G01X24118755Y7000929D01*
G01X24101737Y7006771D01*
G01X24090307Y7018201D01*
G01X24084465Y7035219D01*
G01X24084465Y7041061D01*
G01X24090307Y7058079D01*
G01X24101737Y7069509D01*
G01X24118755Y7075351D01*
G01X24124597Y7075351D01*
G01X24141615Y7069509D01*
G01X24153045Y7058079D01*
G01X24158887Y7035219D01*
G01X24158887Y7006771D01*
G01X24153045Y6978069D01*
G01X24141615Y6961051D01*
G01X24124597Y6955209D01*
G01X24113167Y6955209D01*
G01X24095895Y6961051D01*
G01X24090307Y6972481D01*
G01X24212481Y6983911D02*
G01X24206639Y6978069D01*
G01X24212481Y6972481D01*
G01X24218069Y6978069D01*
G01X24212481Y6983911D01*
G01X24322971Y7075351D02*
G01X24265821Y6995341D01*
G01X24351673Y6995341D01*
G01X24322971Y7075351D02*
G01X24322971Y6955209D01*
G01X24399425Y7035219D02*
G01X24399425Y6955209D01*
G01X24399425Y7012359D02*
G01X24416697Y7029631D01*
G01X24428127Y7035219D01*
G01X24445145Y7035219D01*
G01X24456575Y7029631D01*
G01X24462417Y7012359D01*
G01X24462417Y6955209D01*
G01X24462417Y7012359D02*
G01X24479435Y7029631D01*
G01X24490865Y7035219D01*
G01X24508137Y7035219D01*
G01X24519567Y7029631D01*
G01X24525155Y7012359D01*
G01X24525155Y6955209D01*
G01X24572907Y7075351D02*
G01X24578749Y7069509D01*
G01X24584337Y7075351D01*
G01X24578749Y7080939D01*
G01X24572907Y7075351D01*
G01X24578749Y7035219D02*
G01X24578749Y6955209D01*
G01X24632089Y7075351D02*
G01X24632089Y6955209D01*
G01X24719973Y7098211D02*
G01X24708543Y7086781D01*
G01X24697113Y7069509D01*
G01X24685683Y7046649D01*
G01X24679841Y7018201D01*
G01X24679841Y6995341D01*
G01X24685683Y6966639D01*
G01X24697113Y6943779D01*
G01X24708543Y6926761D01*
G01X24719973Y6915331D01*
G01X24767725Y7052491D02*
G01X24779155Y7058079D01*
G01X24796427Y7075351D01*
G01X24796427Y6955209D01*
G01X24850021Y6983911D02*
G01X24844179Y6978069D01*
G01X24850021Y6972481D01*
G01X24855609Y6978069D01*
G01X24850021Y6983911D01*
G01X24937651Y7075351D02*
G01X24920633Y7069509D01*
G01X24909203Y7052491D01*
G01X24903361Y7023789D01*
G01X24903361Y7006771D01*
G01X24909203Y6978069D01*
G01X24920633Y6961051D01*
G01X24937651Y6955209D01*
G01X24949081Y6955209D01*
G01X24966353Y6961051D01*
G01X24977783Y6978069D01*
G01X24983371Y7006771D01*
G01X24983371Y7023789D01*
G01X24977783Y7052491D01*
G01X24966353Y7069509D01*
G01X24949081Y7075351D01*
G01X24937651Y7075351D01*
G01X25065413Y7075351D02*
G01X25048395Y7069509D01*
G01X25036965Y7052491D01*
G01X25031123Y7023789D01*
G01X25031123Y7006771D01*
G01X25036965Y6978069D01*
G01X25048395Y6961051D01*
G01X25065413Y6955209D01*
G01X25076843Y6955209D01*
G01X25094115Y6961051D01*
G01X25105545Y6978069D01*
G01X25111133Y7006771D01*
G01X25111133Y7023789D01*
G01X25105545Y7052491D01*
G01X25094115Y7069509D01*
G01X25076843Y7075351D01*
G01X25065413Y7075351D01*
G01X25193175Y7075351D02*
G01X25176157Y7069509D01*
G01X25164727Y7052491D01*
G01X25158885Y7023789D01*
G01X25158885Y7006771D01*
G01X25164727Y6978069D01*
G01X25176157Y6961051D01*
G01X25193175Y6955209D01*
G01X25204605Y6955209D01*
G01X25221877Y6961051D01*
G01X25233307Y6978069D01*
G01X25238895Y7006771D01*
G01X25238895Y7023789D01*
G01X25233307Y7052491D01*
G01X25221877Y7069509D01*
G01X25204605Y7075351D01*
G01X25193175Y7075351D01*
G01X25286647Y7035219D02*
G01X25349639Y6955209D01*
G01X25349639Y7035219D02*
G01X25286647Y6955209D01*
G01X25397391Y7052491D02*
G01X25408821Y7058079D01*
G01X25426093Y7075351D01*
G01X25426093Y6955209D01*
G01X25479687Y6983911D02*
G01X25473845Y6978069D01*
G01X25479687Y6972481D01*
G01X25485275Y6978069D01*
G01X25479687Y6983911D01*
G01X25567317Y7075351D02*
G01X25550299Y7069509D01*
G01X25538869Y7052491D01*
G01X25533027Y7023789D01*
G01X25533027Y7006771D01*
G01X25538869Y6978069D01*
G01X25550299Y6961051D01*
G01X25567317Y6955209D01*
G01X25578747Y6955209D01*
G01X25596019Y6961051D01*
G01X25607449Y6978069D01*
G01X25613037Y7006771D01*
G01X25613037Y7023789D01*
G01X25607449Y7052491D01*
G01X25596019Y7069509D01*
G01X25578747Y7075351D01*
G01X25567317Y7075351D01*
G01X25695079Y7075351D02*
G01X25678061Y7069509D01*
G01X25666631Y7052491D01*
G01X25660789Y7023789D01*
G01X25660789Y7006771D01*
G01X25666631Y6978069D01*
G01X25678061Y6961051D01*
G01X25695079Y6955209D01*
G01X25706509Y6955209D01*
G01X25723781Y6961051D01*
G01X25735211Y6978069D01*
G01X25740799Y7006771D01*
G01X25740799Y7023789D01*
G01X25735211Y7052491D01*
G01X25723781Y7069509D01*
G01X25706509Y7075351D01*
G01X25695079Y7075351D01*
G01X25822841Y7075351D02*
G01X25805823Y7069509D01*
G01X25794393Y7052491D01*
G01X25788551Y7023789D01*
G01X25788551Y7006771D01*
G01X25794393Y6978069D01*
G01X25805823Y6961051D01*
G01X25822841Y6955209D01*
G01X25834271Y6955209D01*
G01X25851543Y6961051D01*
G01X25862973Y6978069D01*
G01X25868561Y7006771D01*
G01X25868561Y7023789D01*
G01X25862973Y7052491D01*
G01X25851543Y7069509D01*
G01X25834271Y7075351D01*
G01X25822841Y7075351D01*
G01X25916313Y7035219D02*
G01X25916313Y6955209D01*
G01X25916313Y7012359D02*
G01X25933585Y7029631D01*
G01X25945015Y7035219D01*
G01X25962033Y7035219D01*
G01X25973463Y7029631D01*
G01X25979305Y7012359D01*
G01X25979305Y6955209D01*
G01X25979305Y7012359D02*
G01X25996323Y7029631D01*
G01X26007753Y7035219D01*
G01X26025025Y7035219D01*
G01X26036455Y7029631D01*
G01X26042043Y7012359D01*
G01X26042043Y6955209D01*
G01X26089795Y7035219D02*
G01X26089795Y6955209D01*
G01X26089795Y7012359D02*
G01X26107067Y7029631D01*
G01X26118497Y7035219D01*
G01X26135515Y7035219D01*
G01X26146945Y7029631D01*
G01X26152787Y7012359D01*
G01X26152787Y6955209D01*
G01X26152787Y7012359D02*
G01X26169805Y7029631D01*
G01X26181235Y7035219D01*
G01X26198507Y7035219D01*
G01X26209937Y7029631D01*
G01X26215525Y7012359D01*
G01X26215525Y6955209D01*
G01X26263277Y7098211D02*
G01X26274707Y7086781D01*
G01X26286137Y7069509D01*
G01X26297567Y7046649D01*
G01X26303409Y7018201D01*
G01X26303409Y6995341D01*
G01X26297567Y6966639D01*
G01X26286137Y6943779D01*
G01X26274707Y6926761D01*
G01X26263277Y6915331D01*
G01X27297203Y7075351D02*
G01X27297203Y6955209D01*
G01X27297203Y7075351D02*
G01X27348765Y7075351D01*
G01X27365783Y7069509D01*
G01X27371625Y7063921D01*
G01X27377213Y7052491D01*
G01X27377213Y7035219D01*
G01X27371625Y7023789D01*
G01X27365783Y7018201D01*
G01X27348765Y7012359D01*
G01X27297203Y7012359D01*
G01X27465097Y7075351D02*
G01X27465097Y6955209D01*
G01X27424965Y7075351D02*
G01X27504975Y7075351D01*
G01X27552727Y7075351D02*
G01X27552727Y6955209D01*
G01X27632737Y7075351D02*
G01X27632737Y6955209D01*
G01X27552727Y7018201D02*
G01X27632737Y7018201D01*
G01X28758610Y7075351D02*
G01X28758610Y6955209D01*
G01X28758610Y7075351D02*
G01X28810172Y7075351D01*
G01X28827190Y7069509D01*
G01X28833032Y7063921D01*
G01X28838620Y7052491D01*
G01X28838620Y7041061D01*
G01X28833032Y7029631D01*
G01X28827190Y7023789D01*
G01X28810172Y7018201D01*
G01X28758610Y7018201D01*
G01X28798742Y7018201D02*
G01X28838620Y6955209D01*
G01X28915074Y7035219D02*
G01X28903644Y7029631D01*
G01X28892214Y7018201D01*
G01X28886372Y7000929D01*
G01X28886372Y6989499D01*
G01X28892214Y6972481D01*
G01X28903644Y6961051D01*
G01X28915074Y6955209D01*
G01X28932092Y6955209D01*
G01X28943522Y6961051D01*
G01X28954952Y6972481D01*
G01X28960794Y6989499D01*
G01X28960794Y7000929D01*
G01X28954952Y7018201D01*
G01X28943522Y7029631D01*
G01X28932092Y7035219D01*
G01X28915074Y7035219D01*
G01X29008546Y7035219D02*
G01X29008546Y6978069D01*
G01X29014388Y6961051D01*
G01X29025818Y6955209D01*
G01X29042836Y6955209D01*
G01X29054266Y6961051D01*
G01X29071538Y6978069D01*
G01X29071538Y7035219D02*
G01X29071538Y6955209D01*
G01X29119290Y7035219D02*
G01X29119290Y6955209D01*
G01X29119290Y7012359D02*
G01X29136562Y7029631D01*
G01X29147992Y7035219D01*
G01X29165010Y7035219D01*
G01X29176440Y7029631D01*
G01X29182282Y7012359D01*
G01X29182282Y6955209D01*
G01X29298614Y7075351D02*
G01X29298614Y6955209D01*
G01X29298614Y7018201D02*
G01X29287184Y7029631D01*
G01X29275754Y7035219D01*
G01X29258736Y7035219D01*
G01X29247306Y7029631D01*
G01X29235876Y7018201D01*
G01X29230034Y7000929D01*
G01X29230034Y6989499D01*
G01X29235876Y6972481D01*
G01X29247306Y6961051D01*
G01X29258736Y6955209D01*
G01X29275754Y6955209D01*
G01X29287184Y6961051D01*
G01X29298614Y6972481D01*
G01X30189791Y7075351D02*
G01X30189791Y6955209D01*
G01X30189791Y7075351D02*
G01X30241353Y7075351D01*
G01X30258371Y7069509D01*
G01X30264213Y7063921D01*
G01X30269801Y7052491D01*
G01X30269801Y7035219D01*
G01X30264213Y7023789D01*
G01X30258371Y7018201D01*
G01X30241353Y7012359D01*
G01X30189791Y7012359D01*
G01X30386133Y7035219D02*
G01X30386133Y6955209D01*
G01X30386133Y7018201D02*
G01X30374703Y7029631D01*
G01X30363273Y7035219D01*
G01X30346255Y7035219D01*
G01X30334825Y7029631D01*
G01X30323395Y7018201D01*
G01X30317553Y7000929D01*
G01X30317553Y6989499D01*
G01X30323395Y6972481D01*
G01X30334825Y6961051D01*
G01X30346255Y6955209D01*
G01X30363273Y6955209D01*
G01X30374703Y6961051D01*
G01X30386133Y6972481D01*
G01X30502465Y7075351D02*
G01X30502465Y6955209D01*
G01X30502465Y7018201D02*
G01X30491035Y7029631D01*
G01X30479605Y7035219D01*
G01X30462587Y7035219D01*
G01X30451157Y7029631D01*
G01X30439727Y7018201D01*
G01X30433885Y7000929D01*
G01X30433885Y6989499D01*
G01X30439727Y6972481D01*
G01X30451157Y6961051D01*
G01X30462587Y6955209D01*
G01X30479605Y6955209D01*
G01X30491035Y6961051D01*
G01X30502465Y6972481D01*
G01X31858970Y7075351D02*
G01X31858970Y6955209D01*
G01X31858970Y7075351D02*
G01X31910532Y7075351D01*
G01X31927550Y7069509D01*
G01X31933392Y7063921D01*
G01X31938980Y7052491D01*
G01X31938980Y7041061D01*
G01X31933392Y7029631D01*
G01X31927550Y7023789D01*
G01X31910532Y7018201D01*
G01X31858970Y7018201D01*
G01X31899102Y7018201D02*
G01X31938980Y6955209D01*
G01X32015434Y7035219D02*
G01X32004004Y7029631D01*
G01X31992574Y7018201D01*
G01X31986732Y7000929D01*
G01X31986732Y6989499D01*
G01X31992574Y6972481D01*
G01X32004004Y6961051D01*
G01X32015434Y6955209D01*
G01X32032452Y6955209D01*
G01X32043882Y6961051D01*
G01X32055312Y6972481D01*
G01X32061154Y6989499D01*
G01X32061154Y7000929D01*
G01X32055312Y7018201D01*
G01X32043882Y7029631D01*
G01X32032452Y7035219D01*
G01X32015434Y7035219D01*
G01X32108906Y7035219D02*
G01X32108906Y6978069D01*
G01X32114748Y6961051D01*
G01X32126178Y6955209D01*
G01X32143196Y6955209D01*
G01X32154626Y6961051D01*
G01X32171898Y6978069D01*
G01X32171898Y7035219D02*
G01X32171898Y6955209D01*
G01X32219650Y7035219D02*
G01X32219650Y6955209D01*
G01X32219650Y7012359D02*
G01X32236922Y7029631D01*
G01X32248352Y7035219D01*
G01X32265370Y7035219D01*
G01X32276800Y7029631D01*
G01X32282642Y7012359D01*
G01X32282642Y6955209D01*
G01X32398974Y7075351D02*
G01X32398974Y6955209D01*
G01X32398974Y7018201D02*
G01X32387544Y7029631D01*
G01X32376114Y7035219D01*
G01X32359096Y7035219D01*
G01X32347666Y7029631D01*
G01X32336236Y7018201D01*
G01X32330394Y7000929D01*
G01X32330394Y6989499D01*
G01X32336236Y6972481D01*
G01X32347666Y6961051D01*
G01X32359096Y6955209D01*
G01X32376114Y6955209D01*
G01X32387544Y6961051D01*
G01X32398974Y6972481D01*
G01X33818471Y7075351D02*
G01X33818471Y6955209D01*
G01X33778339Y7075351D02*
G01X33858349Y7075351D01*
G01X33934803Y7035219D02*
G01X33923373Y7029631D01*
G01X33911943Y7018201D01*
G01X33906101Y7000929D01*
G01X33906101Y6989499D01*
G01X33911943Y6972481D01*
G01X33923373Y6961051D01*
G01X33934803Y6955209D01*
G01X33951821Y6955209D01*
G01X33963251Y6961051D01*
G01X33974681Y6972481D01*
G01X33980523Y6989499D01*
G01X33980523Y7000929D01*
G01X33974681Y7018201D01*
G01X33963251Y7029631D01*
G01X33951821Y7035219D01*
G01X33934803Y7035219D01*
G01X34028275Y7035219D02*
G01X34028275Y6915331D01*
G01X34028275Y7018201D02*
G01X34039705Y7029631D01*
G01X34051135Y7035219D01*
G01X34068407Y7035219D01*
G01X34079837Y7029631D01*
G01X34091267Y7018201D01*
G01X34096855Y7000929D01*
G01X34096855Y6989499D01*
G01X34091267Y6972481D01*
G01X34079837Y6961051D01*
G01X34068407Y6955209D01*
G01X34051135Y6955209D01*
G01X34039705Y6961051D01*
G01X34028275Y6972481D01*
G01X34272623Y7075351D02*
G01X34272623Y6955209D01*
G01X34272623Y6955209D02*
G01X34341203Y6955209D01*
G01X34457535Y7035219D02*
G01X34457535Y6955209D01*
G01X34457535Y7018201D02*
G01X34446105Y7029631D01*
G01X34434675Y7035219D01*
G01X34417657Y7035219D01*
G01X34406227Y7029631D01*
G01X34394797Y7018201D01*
G01X34388955Y7000929D01*
G01X34388955Y6989499D01*
G01X34394797Y6972481D01*
G01X34406227Y6961051D01*
G01X34417657Y6955209D01*
G01X34434675Y6955209D01*
G01X34446105Y6961051D01*
G01X34457535Y6972481D01*
G01X34511129Y7035219D02*
G01X34545419Y6955209D01*
G01X34579709Y7035219D02*
G01X34545419Y6955209D01*
G01X34533989Y6932349D01*
G01X34522559Y6920919D01*
G01X34511129Y6915331D01*
G01X34505287Y6915331D01*
G01X34627461Y7000929D02*
G01X34696041Y7000929D01*
G01X34696041Y7012359D01*
G01X34690453Y7023789D01*
G01X34684611Y7029631D01*
G01X34673181Y7035219D01*
G01X34656163Y7035219D01*
G01X34644733Y7029631D01*
G01X34633303Y7018201D01*
G01X34627461Y7000929D01*
G01X34627461Y6989499D01*
G01X34633303Y6972481D01*
G01X34644733Y6961051D01*
G01X34656163Y6955209D01*
G01X34673181Y6955209D01*
G01X34684611Y6961051D01*
G01X34696041Y6972481D01*
G01X34743793Y7035219D02*
G01X34743793Y6955209D01*
G01X34743793Y7000929D02*
G01X34749635Y7018201D01*
G01X34761065Y7029631D01*
G01X34772495Y7035219D01*
G01X34789513Y7035219D01*
G01X34837265Y7006771D02*
G01X34940135Y7006771D01*
G01X34987887Y7075351D02*
G01X34987887Y6955209D01*
G01X34987887Y7075351D02*
G01X35039449Y7075351D01*
G01X35056467Y7069509D01*
G01X35062309Y7063921D01*
G01X35067897Y7052491D01*
G01X35067897Y7041061D01*
G01X35062309Y7029631D01*
G01X35056467Y7023789D01*
G01X35039449Y7018201D01*
G01X34987887Y7018201D02*
G01X35039449Y7018201D01*
G01X35056467Y7012359D01*
G01X35062309Y7006771D01*
G01X35067897Y6995341D01*
G01X35067897Y6978069D01*
G01X35062309Y6966639D01*
G01X35056467Y6961051D01*
G01X35039449Y6955209D01*
G01X34987887Y6955209D01*
G01X35144351Y7035219D02*
G01X35132921Y7029631D01*
G01X35121491Y7018201D01*
G01X35115649Y7000929D01*
G01X35115649Y6989499D01*
G01X35121491Y6972481D01*
G01X35132921Y6961051D01*
G01X35144351Y6955209D01*
G01X35161369Y6955209D01*
G01X35172799Y6961051D01*
G01X35184229Y6972481D01*
G01X35190071Y6989499D01*
G01X35190071Y7000929D01*
G01X35184229Y7018201D01*
G01X35172799Y7029631D01*
G01X35161369Y7035219D01*
G01X35144351Y7035219D01*
G01X35255095Y7075351D02*
G01X35255095Y6978069D01*
G01X35260683Y6961051D01*
G01X35272113Y6955209D01*
G01X35283543Y6955209D01*
G01X35237823Y7035219D02*
G01X35277955Y7035219D01*
G01X35348567Y7075351D02*
G01X35348567Y6978069D01*
G01X35354155Y6961051D01*
G01X35365585Y6955209D01*
G01X35377015Y6955209D01*
G01X35331295Y7035219D02*
G01X35371427Y7035219D01*
G01X35453469Y7035219D02*
G01X35442039Y7029631D01*
G01X35430609Y7018201D01*
G01X35424767Y7000929D01*
G01X35424767Y6989499D01*
G01X35430609Y6972481D01*
G01X35442039Y6961051D01*
G01X35453469Y6955209D01*
G01X35470487Y6955209D01*
G01X35481917Y6961051D01*
G01X35493347Y6972481D01*
G01X35499189Y6989499D01*
G01X35499189Y7000929D01*
G01X35493347Y7018201D01*
G01X35481917Y7029631D01*
G01X35470487Y7035219D01*
G01X35453469Y7035219D01*
G01X35546941Y7035219D02*
G01X35546941Y6955209D01*
G01X35546941Y7012359D02*
G01X35564213Y7029631D01*
G01X35575643Y7035219D01*
G01X35592661Y7035219D01*
G01X35604091Y7029631D01*
G01X35609933Y7012359D01*
G01X35609933Y6955209D01*
G01X35609933Y7012359D02*
G01X35626951Y7029631D01*
G01X35638381Y7035219D01*
G01X35655653Y7035219D01*
G01X35667083Y7029631D01*
G01X35672671Y7012359D01*
G01X35672671Y6955209D01*
G01X35848439Y7075351D02*
G01X35848439Y6955209D01*
G01X35848439Y6955209D02*
G01X35917019Y6955209D01*
G01X36033351Y7035219D02*
G01X36033351Y6955209D01*
G01X36033351Y7018201D02*
G01X36021921Y7029631D01*
G01X36010491Y7035219D01*
G01X35993473Y7035219D01*
G01X35982043Y7029631D01*
G01X35970613Y7018201D01*
G01X35964771Y7000929D01*
G01X35964771Y6989499D01*
G01X35970613Y6972481D01*
G01X35982043Y6961051D01*
G01X35993473Y6955209D01*
G01X36010491Y6955209D01*
G01X36021921Y6961051D01*
G01X36033351Y6972481D01*
G01X36086945Y7035219D02*
G01X36121235Y6955209D01*
G01X36155525Y7035219D02*
G01X36121235Y6955209D01*
G01X36109805Y6932349D01*
G01X36098375Y6920919D01*
G01X36086945Y6915331D01*
G01X36081103Y6915331D01*
G01X36203277Y7000929D02*
G01X36271857Y7000929D01*
G01X36271857Y7012359D01*
G01X36266269Y7023789D01*
G01X36260427Y7029631D01*
G01X36248997Y7035219D01*
G01X36231979Y7035219D01*
G01X36220549Y7029631D01*
G01X36209119Y7018201D01*
G01X36203277Y7000929D01*
G01X36203277Y6989499D01*
G01X36209119Y6972481D01*
G01X36220549Y6961051D01*
G01X36231979Y6955209D01*
G01X36248997Y6955209D01*
G01X36260427Y6961051D01*
G01X36271857Y6972481D01*
G01X36319609Y7035219D02*
G01X36319609Y6955209D01*
G01X36319609Y7000929D02*
G01X36325451Y7018201D01*
G01X36336881Y7029631D01*
G01X36348311Y7035219D01*
G01X36365329Y7035219D01*

G04 Image Start*
G36*
G01X20692586Y7732486D02*
G01X20857686Y7567386D01*
G01X20692586Y7402286D01*
G01X20527486Y7567386D01*
G01X20563401Y7567386D01*
G01X20692586Y7438201D01*
G01X20821770Y7567386D01*
G01X20692586Y7696570D01*
G01X20692586Y7696570D01*
G01X20563401Y7567386D01*
G01X20527486Y7567386D01*
G01X20692586Y7732486D01*
G37*
G36*
G01X20824463Y9797596D02*
G01X20718849Y9809077D01*
G01X20675974Y9711871D01*
G01X20633099Y9809077D01*
G01X20527486Y9797596D01*
G01X20590249Y9883321D01*
G01X20550527Y9937576D01*
G01X20582020Y9937576D01*
G01X20621720Y9883321D01*
G01X20582020Y9829067D01*
G01X20648847Y9836331D01*
G01X20648847Y9836331D01*
G01X20675974Y9774838D01*
G01X20703101Y9836331D01*
G01X20769929Y9829067D01*
G01X20730229Y9883321D01*
G01X20769903Y9937550D01*
G01X20703076Y9930286D01*
G01X20675974Y9991805D01*
G01X20648847Y9930311D01*
G01X20582020Y9937576D01*
G01X20550527Y9937576D01*
G01X20527486Y9969046D01*
G01X20633124Y9957566D01*
G01X20675974Y10054771D01*
G01X20718849Y9957566D01*
G01X20824463Y9969046D01*
G01X20761699Y9883321D01*
G01X20824463Y9797596D01*
G37*
G36*
G01X20695469Y10911901D02*
G01X20687729Y10911313D01*
G01X20679886Y10911114D01*
G01X20672043Y10911313D01*
G01X20664302Y10911901D01*
G01X20656675Y10912870D01*
G01X20649170Y10914210D01*
G01X20634564Y10917965D01*
G01X20620562Y10923090D01*
G01X20607240Y10929507D01*
G01X20594674Y10937140D01*
G01X20582942Y10945913D01*
G01X20572120Y10955748D01*
G01X20562284Y10966571D01*
G01X20553511Y10978303D01*
G01X20545878Y10990868D01*
G01X20539461Y11004190D01*
G01X20534337Y11018192D01*
G01X20530582Y11032798D01*
G01X20529242Y11040304D01*
G01X20528272Y11047931D01*
G01X20527684Y11055671D01*
G01X20527486Y11063514D01*
G01X20552886Y11063514D01*
G01X20553543Y11050548D01*
G01X20555470Y11037952D01*
G01X20558605Y11025790D01*
G01X20562882Y11014128D01*
G01X20568237Y11003028D01*
G01X20574605Y10992557D01*
G01X20581923Y10982777D01*
G01X20590125Y10973754D01*
G01X20599149Y10965551D01*
G01X20608928Y10958234D01*
G01X20619400Y10951865D01*
G01X20630499Y10946510D01*
G01X20642162Y10942234D01*
G01X20654323Y10939099D01*
G01X20654323Y10939099D01*
G01X20666919Y10937171D01*
G01X20679886Y10936514D01*
G01X20692852Y10937171D01*
G01X20705448Y10939099D01*
G01X20717610Y10942234D01*
G01X20729272Y10946510D01*
G01X20740372Y10951865D01*
G01X20750843Y10958234D01*
G01X20760623Y10965551D01*
G01X20769646Y10973754D01*
G01X20777849Y10982777D01*
G01X20785166Y10992557D01*
G01X20791535Y11003028D01*
G01X20796890Y11014128D01*
G01X20801166Y11025790D01*
G01X20804301Y11037952D01*
G01X20806229Y11050548D01*
G01X20806886Y11063514D01*
G01X20806229Y11076481D01*
G01X20804301Y11089077D01*
G01X20801166Y11101238D01*
G01X20796890Y11112901D01*
G01X20791535Y11124000D01*
G01X20785166Y11134472D01*
G01X20777849Y11144251D01*
G01X20769646Y11153275D01*
G01X20760623Y11161477D01*
G01X20750843Y11168795D01*
G01X20740372Y11175163D01*
G01X20729272Y11180518D01*
G01X20717610Y11184795D01*
G01X20705448Y11187929D01*
G01X20692852Y11189857D01*
G01X20679886Y11190514D01*
G01X20666919Y11189857D01*
G01X20654323Y11187929D01*
G01X20642162Y11184795D01*
G01X20630499Y11180518D01*
G01X20619400Y11175163D01*
G01X20608928Y11168795D01*
G01X20599149Y11161477D01*
G01X20590125Y11153275D01*
G01X20581923Y11144251D01*
G01X20574605Y11134472D01*
G01X20568237Y11124000D01*
G01X20562882Y11112901D01*
G01X20558605Y11101238D01*
G01X20555470Y11089077D01*
G01X20553543Y11076481D01*
G01X20552886Y11063514D01*
G01X20527486Y11063514D01*
G01X20527684Y11071357D01*
G01X20528272Y11079098D01*
G01X20529242Y11086725D01*
G01X20530582Y11094230D01*
G01X20534337Y11108836D01*
G01X20539461Y11122838D01*
G01X20545878Y11136160D01*
G01X20553511Y11148726D01*
G01X20562284Y11160458D01*
G01X20572120Y11171280D01*
G01X20582942Y11181116D01*
G01X20594674Y11189889D01*
G01X20607240Y11197522D01*
G01X20620562Y11203939D01*
G01X20634564Y11209063D01*
G01X20649170Y11212818D01*
G01X20656675Y11214158D01*
G01X20664302Y11215128D01*
G01X20672043Y11215716D01*
G01X20679886Y11215914D01*
G01X20687729Y11215716D01*
G01X20695469Y11215128D01*
G01X20703096Y11214158D01*
G01X20710602Y11212818D01*
G01X20725208Y11209063D01*
G01X20739210Y11203939D01*
G01X20752532Y11197522D01*
G01X20765097Y11189889D01*
G01X20776829Y11181116D01*
G01X20787652Y11171280D01*
G01X20797487Y11160458D01*
G01X20806260Y11148726D01*
G01X20813893Y11136160D01*
G01X20820310Y11122838D01*
G01X20825435Y11108836D01*
G01X20829190Y11094230D01*
G01X20830530Y11086725D01*
G01X20831499Y11079098D01*
G01X20832087Y11071357D01*
G01X20832286Y11063514D01*
G01X20832087Y11055671D01*
G01X20831499Y11047931D01*
G01X20830530Y11040304D01*
G01X20829190Y11032798D01*
G01X20825435Y11018192D01*
G01X20820310Y11004190D01*
G01X20813893Y10990868D01*
G01X20806260Y10978303D01*
G01X20797487Y10966571D01*
G01X20787652Y10955748D01*
G01X20776829Y10945913D01*
G01X20765097Y10937140D01*
G01X20752532Y10929507D01*
G01X20739210Y10923090D01*
G01X20725208Y10917965D01*
G01X20710602Y10914210D01*
G01X20703096Y10912870D01*
G01X20695469Y10911901D01*
G37*
G36*
G01X20832286Y8671963D02*
G01X20749177Y8671963D01*
G01X20749177Y8588829D01*
G01X20610620Y8588829D01*
G01X20610620Y8671937D01*
G01X20527486Y8671937D01*
G01X20527486Y8785094D01*
G01X20552886Y8785094D01*
G01X20552886Y8697363D01*
G01X20636020Y8697363D01*
G01X20636020Y8614229D01*
G01X20636020Y8614229D01*
G01X20723752Y8614229D01*
G01X20723752Y8697337D01*
G01X20806886Y8697337D01*
G01X20806886Y8785094D01*
G01X20723752Y8785094D01*
G01X20723752Y8868229D01*
G01X20636020Y8868229D01*
G01X20636020Y8785094D01*
G01X20552886Y8785094D01*
G01X20527486Y8785094D01*
G01X20527486Y8810494D01*
G01X20610620Y8810494D01*
G01X20610620Y8893629D01*
G01X20749152Y8893629D01*
G01X20749152Y8810494D01*
G01X20832286Y8810494D01*
G01X20832286Y8671963D01*
G37*
G36*
G01X20832286Y9474200D02*
G01X20762258Y9321800D01*
G01X20832286Y9169400D01*
G01X20679886Y9239428D01*
G01X20527486Y9169400D01*
G01X20551248Y9221114D01*
G01X20579200Y9221114D01*
G01X20669269Y9262516D01*
G01X20679886Y9267393D01*
G01X20690503Y9262516D01*
G01X20780571Y9221114D01*
G01X20739169Y9311183D01*
G01X20734293Y9321800D01*
G01X20739169Y9332417D01*
G01X20780571Y9422486D01*
G01X20690503Y9381084D01*
G01X20679886Y9376207D01*
G01X20669269Y9381084D01*
G01X20579200Y9422486D01*
G01X20620602Y9332417D01*
G01X20625479Y9321800D01*
G01X20625479Y9321800D01*
G01X20620602Y9311183D01*
G01X20579200Y9221114D01*
G01X20551248Y9221114D01*
G01X20597514Y9321800D01*
G01X20527486Y9474200D01*
G01X20679886Y9404172D01*
G01X20832286Y9474200D01*
G37*
G36*
G01X20527486Y10635343D02*
G01X20832286Y10635343D01*
G01X20679886Y10371386D01*
G01X20542151Y10609943D01*
G01X20571479Y10609943D01*
G01X20679886Y10422186D01*
G01X20788293Y10609943D01*
G01X20788293Y10609943D01*
G01X20571479Y10609943D01*
G01X20542151Y10609943D01*
G01X20527486Y10635343D01*
G37*
G36*
G01X20806886Y8033657D02*
G01X20705286Y8033657D01*
G01X20667186Y8109857D01*
G01X20629086Y8033657D01*
G01X20527486Y8033657D01*
G01X20527486Y8059057D01*
G01X20552886Y8059057D01*
G01X20613389Y8059057D01*
G01X20644453Y8121211D01*
G01X20667186Y8166652D01*
G01X20689919Y8121211D01*
G01X20720983Y8059057D01*
G01X20781486Y8059057D01*
G01X20781486Y8119560D01*
G01X20719332Y8150650D01*
G01X20673891Y8173357D01*
G01X20719332Y8196065D01*
G01X20781486Y8227154D01*
G01X20781486Y8287657D01*
G01X20720983Y8287657D01*
G01X20689919Y8225503D01*
G01X20667186Y8180063D01*
G01X20644453Y8225503D01*
G01X20613389Y8287657D01*
G01X20552886Y8287657D01*
G01X20552886Y8227154D01*
G01X20615040Y8196065D01*
G01X20660480Y8173357D01*
G01X20615040Y8150650D01*
G01X20552886Y8119560D01*
G01X20552886Y8059057D01*
G01X20552886Y8059057D01*
G01X20527486Y8059057D01*
G01X20527486Y8135257D01*
G01X20603686Y8173357D01*
G01X20527486Y8211457D01*
G01X20527486Y8313057D01*
G01X20629086Y8313057D01*
G01X20667186Y8236857D01*
G01X20705286Y8313057D01*
G01X20806886Y8313057D01*
G01X20806886Y8211457D01*
G01X20730686Y8173357D01*
G01X20806886Y8135257D01*
G01X20806886Y8033657D01*
G37*
G36*
G01X20527486Y11796486D02*
G01X20806886Y11796486D01*
G01X20806886Y11517086D01*
G01X20527486Y11517086D01*
G01X20527486Y11771086D01*
G01X20552886Y11771086D01*
G01X20552886Y11542486D01*
G01X20781486Y11542486D01*
G01X20781486Y11771086D01*
G01X20781486Y11771086D01*
G01X20552886Y11771086D01*
G01X20527486Y11771086D01*
G01X20527486Y11796486D01*
G37*
G36*
G01X20527486Y7151914D02*
G01X20806886Y7151914D01*
G01X20806886Y6872514D01*
G01X20527486Y6872514D01*
G01X20527486Y7126514D01*
G01X20552886Y7126514D01*
G01X20552886Y6897914D01*
G01X20781486Y6897914D01*
G01X20781486Y7126514D01*
G01X20781486Y7126514D01*
G01X20552886Y7126514D01*
G01X20527486Y7126514D01*
G01X20527486Y7151914D01*
G37*
G36*
G01X20578286Y7101114D02*
G01X20756086Y7101114D01*
G01X20756086Y6923314D01*
G01X20578286Y6923314D01*
G01X20578286Y6948714D01*
G01X20603686Y6948714D01*
G01X20730686Y6948714D01*
G01X20730686Y7075714D01*
G01X20603686Y7075714D01*
G01X20603686Y6948714D01*
G01X20603686Y6948714D01*
G01X20578286Y6948714D01*
G01X20578286Y7101114D01*
G37*

G04 PolygonModel Start*
G54D20*
G01X20237200Y6716486D02*
G01X36956061Y6716486D01*
G01X20237200Y7297057D02*
G01X36956061Y7297057D01*
G01X20237200Y7877629D02*
G01X36956061Y7877629D01*
G01X20237200Y8458200D02*
G01X36956061Y8458200D01*
G01X20237200Y9038771D02*
G01X36956061Y9038771D01*
G01X20237200Y9619343D02*
G01X36956061Y9619343D01*
G01X20237200Y10199914D02*
G01X36956061Y10199914D01*
G01X20237200Y10780486D02*
G01X36956061Y10780486D01*
G01X20237200Y11361057D02*
G01X36956061Y11361057D01*
G01X20237200Y11941629D02*
G01X36956061Y11941629D01*
G01X20237200Y12522200D02*
G01X36956061Y12522200D01*
G01X20237200Y12522200D02*
G01X20237200Y6741886D01*
G01X21688629Y12522200D02*
G01X21688629Y6741886D01*
G01X23102792Y12522200D02*
G01X23102792Y6741886D01*
G01X26996757Y12522200D02*
G01X26996757Y6741886D01*
G01X28458164Y12522200D02*
G01X28458164Y6741886D01*
G01X29889345Y12522200D02*
G01X29889345Y6741886D01*
G01X31558524Y12522200D02*
G01X31558524Y6741886D01*
G01X33477893Y12522200D02*
G01X33477893Y6741886D01*
G01X36956061Y12522200D02*
G01X36956061Y6741886D01*

M02*

